<?xml version="1.0" encoding="UTF-8" ?>
<!DOCTYPE svg PUBLIC "-//W3C//DTD SVG 1.1//EN" "http://www.w3.org/Graphics/SVG/1.1/DTD/svg11.dtd">
<svg width="1200pt" height="1200pt" viewBox="0 0 1200 1200" version="1.1" xmlns="http://www.w3.org/2000/svg">
<g id="#ffffffff">
<path fill="#ffffff" opacity="1.00" d=" M 793.40 91.49 C 803.19 91.37 812.98 91.44 822.77 91.46 C 829.73 91.53 835.54 96.06 840.15 100.86 C 846.36 107.23 854.07 113.38 855.54 122.73 C 857.54 127.15 861.69 131.55 866.87 131.57 C 871.31 131.97 875.76 133.08 879.59 135.44 C 886.09 139.40 891.13 145.21 896.53 150.47 C 901.56 155.50 906.65 160.81 909.38 167.51 C 910.59 170.37 910.97 173.48 911.86 176.44 C 913.31 179.36 915.66 181.78 918.32 183.65 C 920.87 185.57 924.25 185.28 927.22 186.03 C 944.72 189.23 961.23 197.58 973.99 210.02 C 982.06 217.94 990.25 225.77 997.80 234.20 C 1004.75 242.06 1010.09 251.21 1014.16 260.85 C 1017.11 265.59 1022.06 269.99 1027.98 269.83 C 1034.27 270.52 1040.84 271.25 1046.38 274.56 C 1052.77 278.31 1057.63 284.01 1062.89 289.12 C 1067.39 293.62 1071.42 299.35 1071.39 305.99 C 1071.41 315.00 1071.39 324.00 1071.40 333.01 C 1071.51 339.66 1067.50 345.46 1062.96 349.96 C 1058.52 354.20 1054.54 359.13 1049.06 362.10 C 1043.73 364.77 1038.89 368.49 1034.95 372.97 C 1030.51 378.94 1024.63 384.96 1024.85 392.95 C 1025.51 447.63 1025.87 502.31 1026.55 556.99 C 1026.73 571.00 1026.85 585.01 1026.79 599.02 C 1026.56 605.63 1030.63 611.41 1035.18 615.82 C 1041.41 622.25 1048.39 628.14 1053.17 635.79 C 1056.92 641.79 1057.60 649.04 1057.65 655.95 C 1057.65 686.30 1057.65 716.65 1057.65 747.00 C 1057.55 752.57 1058.26 758.48 1055.76 763.67 C 1052.64 770.49 1046.57 775.20 1041.53 780.53 C 1038.20 784.26 1033.50 786.44 1030.36 790.37 C 1028.10 793.08 1025.64 796.18 1025.82 799.93 C 1026.03 826.62 1025.69 853.31 1025.84 880.00 C 1027.16 918.33 1026.25 956.68 1026.27 995.02 C 1026.38 1001.95 1022.50 1008.04 1017.85 1012.86 C 1011.95 1018.61 1006.61 1025.21 999.35 1029.33 C 995.00 1031.82 989.88 1031.80 985.03 1031.72 C 975.08 1031.63 965.14 1031.85 955.21 1031.61 C 947.48 1031.39 941.46 1025.86 936.29 1020.71 C 931.23 1015.40 925.26 1010.63 922.00 1003.92 C 920.45 1000.86 920.12 997.41 920.15 994.04 C 920.13 984.34 920.19 974.64 920.14 964.94 C 920.15 961.03 916.99 958.09 914.06 955.98 C 911.74 954.15 908.66 954.91 905.96 954.80 C 897.64 954.94 891.25 961.54 883.09 962.46 C 874.05 963.52 866.71 969.27 858.39 972.39 C 849.98 975.96 841.00 977.85 832.05 979.46 C 791.01 987.14 749.96 994.76 708.91 1002.41 C 703.61 1003.39 698.53 1005.25 693.26 1006.36 C 686.91 1007.76 680.30 1007.42 673.99 1009.03 C 667.49 1011.02 660.99 1013.75 654.06 1013.59 C 643.53 1013.80 633.28 1016.50 622.94 1018.25 C 550.14 1031.64 477.34 1045.10 404.52 1058.43 C 377.56 1063.11 350.85 1069.31 323.71 1072.93 C 307.90 1075.15 291.92 1074.75 276.00 1074.76 C 264.01 1074.64 251.94 1075.26 240.04 1073.46 C 228.38 1071.77 216.83 1067.83 207.39 1060.64 C 199.86 1054.90 193.40 1047.94 186.69 1041.31 C 180.53 1035.03 174.43 1028.52 170.21 1020.73 C 161.81 1005.57 158.73 988.12 157.75 971.00 C 157.68 962.65 157.63 954.29 156.74 945.98 C 156.31 931.66 156.67 917.33 156.54 903.00 C 156.36 898.24 157.21 893.22 155.15 888.75 C 151.40 879.43 141.47 874.71 137.10 865.79 C 134.06 860.00 134.97 853.27 134.84 847.00 C 134.96 838.99 134.52 830.97 135.21 822.99 C 135.35 817.66 135.35 812.32 134.85 807.01 C 134.76 798.01 134.86 789.01 134.81 780.01 C 134.65 773.81 135.57 767.60 137.49 761.72 C 142.00 747.91 146.47 734.10 150.99 720.30 C 152.63 715.34 154.39 710.33 154.70 705.07 C 155.26 678.71 153.64 652.36 153.89 626.00 C 153.96 585.33 153.77 544.67 153.80 504.00 C 153.37 471.97 159.65 438.74 177.88 411.85 C 181.62 406.58 184.24 400.46 184.80 393.98 C 185.90 384.57 193.48 378.07 199.74 371.74 C 204.61 366.68 210.60 361.60 218.02 361.61 C 224.59 361.92 231.02 359.89 236.71 356.73 C 242.08 353.66 248.25 352.06 253.09 348.09 C 259.06 343.76 263.21 337.56 268.44 332.45 C 277.02 323.70 285.59 314.92 294.62 306.64 C 310.25 292.66 328.94 282.08 349.06 276.14 C 354.86 274.35 360.91 273.37 366.99 273.36 C 376.34 273.36 385.70 273.35 395.05 273.36 C 398.57 273.34 402.13 274.06 405.20 275.82 C 408.40 277.56 411.21 280.35 415.00 280.71 C 417.66 281.08 420.29 280.00 422.32 278.34 C 428.70 272.73 433.96 265.82 441.04 261.03 C 449.14 255.51 459.40 256.00 468.54 253.46 C 471.34 252.15 473.47 249.68 475.04 247.07 C 477.26 243.75 475.38 239.66 475.72 235.98 C 476.02 218.14 474.86 200.22 476.80 182.44 C 477.59 173.61 483.78 166.74 489.88 160.87 C 495.65 155.19 501.51 148.08 510.16 147.29 C 520.12 147.01 530.09 147.23 540.06 147.17 C 547.10 146.94 553.04 151.50 557.73 156.26 C 562.35 161.02 567.54 165.42 570.86 171.24 C 572.37 173.73 572.75 176.65 573.70 179.35 C 575.51 182.42 578.11 185.15 581.33 186.73 C 584.45 187.39 587.70 187.36 590.78 188.29 C 597.44 190.03 602.77 194.70 607.59 199.40 C 613.07 204.94 618.83 210.23 623.57 216.45 C 627.22 220.18 632.31 224.31 637.88 222.74 C 674.69 216.10 711.45 209.16 748.26 202.55 C 750.36 202.20 752.61 201.75 754.12 200.08 C 756.60 197.69 759.52 194.59 758.66 190.82 C 757.47 181.59 757.94 172.28 757.85 163.00 C 757.94 150.36 757.40 137.62 759.28 125.07 C 760.73 115.64 768.24 109.03 774.61 102.60 C 779.68 97.36 785.68 91.81 793.40 91.49 M 802.69 134.73 C 798.74 139.91 798.95 146.74 798.34 152.92 C 797.91 162.19 797.07 172.15 801.27 180.76 C 804.33 186.85 811.64 188.68 817.93 188.71 C 828.96 189.39 841.24 188.38 850.62 195.34 C 859.66 201.77 862.02 213.64 862.51 224.04 C 862.97 226.06 860.11 225.71 858.94 226.18 C 791.51 237.98 724.24 250.74 656.87 262.91 C 634.70 266.93 612.57 271.21 590.34 274.92 C 590.59 267.11 590.70 259.26 589.61 251.51 C 588.43 243.41 585.17 234.63 577.60 230.48 C 567.90 225.25 556.51 227.27 545.97 226.73 C 541.51 226.62 536.38 225.03 534.43 220.62 C 531.69 214.44 532.79 207.46 533.36 200.95 C 533.77 196.76 533.49 191.86 530.19 188.82 C 528.02 186.55 524.07 186.78 521.89 188.92 C 518.50 191.97 517.26 196.62 516.85 201.01 C 515.89 210.42 515.02 220.01 516.70 229.39 C 517.59 233.96 519.46 238.78 523.58 241.36 C 528.78 244.52 535.10 244.45 540.98 244.61 C 550.71 244.84 561.38 245.31 569.33 251.66 C 576.92 257.66 579.41 267.73 580.09 276.95 C 542.20 283.86 504.29 290.63 466.43 297.67 C 456.78 299.43 451.44 312.05 456.78 320.22 C 459.14 323.85 463.96 324.58 467.91 323.67 C 577.90 303.64 687.87 283.52 797.87 263.58 C 821.56 259.30 845.09 253.83 869.11 251.61 C 886.79 250.44 905.40 250.44 921.74 258.24 C 933.85 263.81 943.47 274.06 949.05 286.09 C 956.53 301.89 958.92 319.65 958.58 337.00 C 959.70 425.33 960.48 513.66 961.40 602.00 C 961.53 606.05 960.72 610.88 964.03 613.97 C 969.48 619.17 979.47 619.21 984.65 613.60 C 987.39 610.76 986.75 606.57 986.81 602.99 C 985.92 522.11 985.20 441.24 984.32 360.37 C 988.60 359.24 992.96 357.30 995.43 353.43 C 1000.25 346.26 999.12 337.17 1001.18 329.14 C 1001.87 326.21 1004.07 323.57 1007.13 322.99 C 1013.14 321.61 1018.94 324.57 1024.90 324.71 C 1027.99 324.80 1031.94 322.63 1031.33 319.05 C 1030.38 314.82 1025.79 313.02 1022.00 312.13 C 1014.49 310.45 1006.72 308.71 999.00 309.79 C 995.15 310.25 991.69 312.79 990.30 316.42 C 987.23 324.17 988.49 333.22 983.99 340.46 C 982.83 332.45 983.76 324.27 982.44 316.25 C 981.00 297.74 975.46 279.36 965.30 263.74 C 955.83 249.21 941.80 237.73 925.69 231.33 C 908.92 224.51 890.43 222.81 872.50 224.37 C 872.51 212.48 873.67 200.26 870.18 188.72 C 868.32 182.44 864.21 176.54 858.03 173.93 C 847.91 169.43 836.59 172.08 825.94 170.84 C 822.01 170.48 817.98 168.44 816.47 164.60 C 813.58 157.73 815.35 150.16 815.68 143.00 C 815.90 138.90 814.67 134.11 810.80 132.03 C 807.88 130.57 804.43 132.25 802.69 134.73 M 850.38 292.58 C 846.78 291.05 842.92 290.30 839.03 290.12 C 825.93 289.44 812.76 289.77 799.77 291.65 C 780.99 294.33 762.37 298.08 743.75 301.72 C 605.86 327.13 467.91 352.30 330.08 378.05 C 325.66 378.78 321.18 380.44 316.67 379.31 C 331.02 359.26 353.25 345.53 377.20 340.21 C 386.62 338.71 392.69 327.52 389.09 318.77 C 387.52 314.89 383.08 312.70 379.02 313.58 C 338.15 322.07 302.30 350.15 282.93 386.96 C 266.52 390.33 251.35 398.40 238.30 408.75 C 238.01 408.32 237.41 407.46 237.11 407.03 C 236.73 403.24 232.11 399.71 228.80 402.79 C 223.33 408.22 224.76 416.81 224.02 423.84 C 218.52 429.66 214.52 436.69 210.67 443.65 C 198.54 467.44 193.46 494.42 193.92 521.00 C 194.03 548.00 193.89 575.00 193.95 602.01 C 194.02 618.65 193.61 635.32 194.81 651.94 C 194.94 673.03 195.17 694.12 195.11 715.21 C 187.28 739.90 179.06 764.46 171.11 789.12 C 169.67 794.05 167.23 798.79 167.00 804.00 C 166.66 807.93 170.85 811.71 174.66 809.75 C 178.84 807.42 179.41 802.13 181.67 798.31 C 184.45 797.29 186.31 794.79 187.13 792.03 C 189.85 783.92 192.40 775.76 195.19 767.67 C 195.52 770.44 196.02 773.20 196.01 776.00 C 195.96 790.35 196.15 804.70 196.22 819.05 C 196.20 822.23 196.59 825.40 197.23 828.51 C 191.91 829.82 186.53 830.83 181.24 832.26 C 176.47 833.73 174.74 839.34 174.89 843.86 C 168.55 844.74 165.32 852.58 167.93 858.06 C 168.78 859.57 170.08 861.31 172.06 861.03 C 177.73 860.74 183.10 858.59 188.73 857.96 C 188.85 884.65 188.75 911.35 188.77 938.04 C 188.83 940.47 188.93 943.32 191.10 944.91 C 192.96 946.79 195.77 945.44 198.04 945.34 C 197.39 954.24 198.63 963.13 200.12 971.88 C 203.38 989.10 210.38 1006.41 223.81 1018.20 C 233.93 1026.59 246.58 1031.71 259.57 1033.47 C 280.41 1036.61 301.52 1033.59 322.12 1030.16 C 347.73 1025.52 373.22 1020.22 398.87 1015.83 C 429.29 1010.33 459.64 1004.42 490.08 999.08 C 540.39 989.52 590.85 980.78 641.12 971.02 C 641.16 971.56 641.25 972.62 641.30 973.15 C 643.74 974.28 646.48 972.58 646.55 969.89 C 653.21 969.43 659.68 967.69 666.23 966.52 C 670.74 968.20 676.31 966.77 680.04 963.89 C 688.21 962.22 696.73 961.79 704.58 958.78 C 709.23 959.02 713.65 957.40 718.17 956.58 C 725.50 955.96 732.63 954.03 739.89 952.86 C 763.80 948.51 787.68 943.98 811.58 939.54 C 829.30 937.05 846.60 930.67 861.01 919.93 C 863.61 922.61 867.95 923.26 871.11 921.16 C 877.08 917.42 879.42 909.92 878.87 903.18 C 886.68 895.70 891.36 885.73 897.06 876.68 C 898.75 877.24 898.92 879.41 898.99 880.95 C 899.04 890.98 898.96 901.03 899.00 911.07 C 898.89 912.43 899.22 913.90 900.46 914.71 C 903.17 915.33 904.79 912.26 904.58 909.95 C 904.59 899.32 904.66 888.69 904.54 878.07 C 904.60 874.35 902.54 871.10 899.76 868.80 C 903.99 859.05 906.91 848.68 908.30 838.15 L 908.34 837.21 C 911.73 823.10 911.15 808.42 911.17 794.00 C 910.86 784.20 911.69 774.37 910.73 764.60 C 911.24 763.41 911.57 762.16 911.96 760.94 C 926.39 745.19 932.78 722.37 928.32 701.44 C 925.98 691.19 920.17 681.09 910.62 676.08 C 909.67 646.33 910.33 616.53 909.64 586.77 C 916.55 574.63 920.19 560.89 921.80 547.09 C 922.59 541.38 916.11 535.78 910.81 539.32 C 908.83 538.29 909.12 535.89 909.02 534.03 C 909.05 517.67 908.80 501.31 908.82 484.95 C 908.82 481.89 908.51 478.83 907.97 475.82 C 915.50 470.94 922.29 464.75 927.32 457.28 C 935.15 445.81 938.38 431.77 938.61 418.03 C 939.56 389.59 942.32 360.81 937.19 332.61 C 934.54 318.96 929.42 304.75 918.29 295.72 C 908.05 287.31 893.97 285.43 881.18 287.07 C 870.90 288.86 860.68 290.92 850.38 292.58 M 967.19 652.34 C 962.06 653.37 960.02 659.19 960.31 663.86 C 955.07 664.90 952.15 669.97 952.27 675.05 C 952.10 703.70 952.32 732.37 952.17 761.03 C 952.25 764.09 952.08 767.43 953.77 770.15 C 955.18 772.73 958.90 772.54 961.07 771.09 C 964.21 768.88 964.74 764.79 965.52 761.33 C 965.85 761.07 966.51 760.57 966.84 760.31 C 971.28 758.56 973.49 753.57 973.26 749.03 C 973.19 737.07 973.34 725.11 973.30 713.15 L 973.97 712.99 C 973.61 716.33 973.62 719.70 973.86 723.06 C 979.27 722.18 984.49 720.11 990.00 719.89 C 994.24 719.71 996.47 724.39 996.74 728.03 C 997.17 736.69 996.64 745.37 996.88 754.04 C 996.98 756.38 997.23 759.23 999.42 760.63 C 1001.49 761.51 1004.18 761.48 1005.92 759.88 C 1009.38 757.25 1008.80 752.23 1011.67 749.17 C 1015.48 747.94 1017.51 743.72 1017.62 739.94 C 1017.74 733.96 1017.59 727.98 1017.65 722.00 C 1017.61 715.69 1018.14 709.14 1015.77 703.14 C 1014.76 700.17 1012.71 697.77 1011.20 695.09 C 1013.05 691.15 1015.13 687.29 1016.18 683.03 C 1018.93 672.85 1018.19 661.03 1011.59 652.43 C 1007.81 647.42 1001.19 644.59 994.98 646.04 C 985.70 648.06 976.44 650.23 967.19 652.34 M 968.30 792.10 C 963.89 793.21 960.02 797.19 960.38 801.97 C 960.42 847.33 960.00 892.69 960.31 938.05 C 960.18 941.44 961.17 944.95 963.52 947.48 C 968.44 952.85 977.81 953.12 982.99 947.98 C 985.66 945.42 986.59 941.58 986.50 937.99 C 986.48 925.66 986.27 913.33 985.86 901.01 C 985.57 869.33 985.74 837.66 985.74 805.99 C 985.61 802.64 986.21 798.86 983.95 796.06 C 980.35 791.45 973.63 790.53 968.30 792.10 M 924.75 809.82 C 920.08 812.78 918.12 818.67 918.42 824.00 C 918.28 827.99 919.91 832.84 924.10 834.14 C 928.05 835.00 931.40 832.12 933.46 829.08 C 935.17 830.12 936.99 830.96 938.97 831.41 C 939.50 830.28 939.97 829.12 940.39 827.95 C 940.13 825.46 936.62 825.19 936.07 822.85 C 935.38 819.02 936.33 814.64 933.67 811.39 C 931.77 808.42 927.58 807.98 924.75 809.82 M 922.55 865.53 C 918.48 870.71 916.90 877.95 918.91 884.28 C 920.01 887.85 923.07 891.14 927.01 891.26 C 930.08 891.52 932.66 889.61 935.11 888.03 C 934.91 892.19 933.66 896.58 930.41 899.40 C 928.74 900.87 926.38 901.24 924.79 902.78 C 923.65 904.55 923.42 907.49 925.36 908.83 C 927.61 909.30 929.79 907.84 931.63 906.69 C 937.87 901.91 940.92 893.75 940.66 886.04 C 940.60 881.37 940.75 876.71 940.59 872.06 C 940.39 867.64 938.19 862.67 933.69 861.23 C 929.51 859.99 925.13 862.29 922.55 865.53 M 969.29 966.29 C 960.26 968.16 957.25 980.47 962.84 987.16 C 967.63 993.06 977.63 993.33 982.85 987.85 C 986.68 983.78 987.37 977.20 984.70 972.33 C 981.90 966.96 974.95 964.59 969.29 966.29 Z" />
<path fill="#ffffff" opacity="1.00" d=" M 973.24 696.02 C 973.44 686.73 972.85 677.39 973.72 668.14 C 973.77 671.42 973.74 674.70 973.76 677.99 C 979.33 677.01 984.89 674.52 990.62 675.38 C 996.50 677.68 996.74 684.93 997.38 690.26 C 989.46 692.64 981.29 694.14 973.24 696.02 Z" />
<path fill="#ffffff" opacity="1.00" d=" M 925.44 815.28 C 928.66 812.50 932.25 816.61 931.54 820.00 C 932.07 823.68 929.67 829.53 925.16 828.32 C 921.17 825.48 921.96 818.32 925.44 815.28 Z" />
<path fill="#ffffff" opacity="1.00" d=" M 927.48 869.45 C 930.76 866.75 935.13 870.21 934.96 873.96 C 935.48 878.45 931.89 884.85 926.69 883.40 C 921.94 880.22 923.19 872.51 927.48 869.45 Z" />
</g>
<g id="#49494aff">
<path fill="#49494a" opacity="1.00" d=" M 802.69 134.73 C 804.43 132.25 807.88 130.57 810.80 132.03 C 814.67 134.11 815.90 138.90 815.68 143.00 C 815.35 150.16 813.58 157.73 816.47 164.60 C 817.98 168.44 822.01 170.48 825.94 170.84 C 836.59 172.08 847.91 169.43 858.03 173.93 C 864.21 176.54 868.32 182.44 870.18 188.72 C 873.67 200.26 872.51 212.48 872.50 224.37 C 890.43 222.81 908.92 224.51 925.69 231.33 C 941.80 237.73 955.83 249.21 965.30 263.74 C 975.46 279.36 981.00 297.74 982.44 316.25 C 983.76 324.27 982.83 332.45 983.99 340.46 C 988.49 333.22 987.23 324.17 990.30 316.42 C 991.69 312.79 995.15 310.25 999.00 309.79 C 1006.72 308.71 1014.49 310.45 1022.00 312.13 C 1025.79 313.02 1030.38 314.82 1031.33 319.05 C 1031.94 322.63 1027.99 324.80 1024.90 324.71 C 1018.94 324.57 1013.14 321.61 1007.13 322.99 C 1004.07 323.57 1001.87 326.21 1001.18 329.14 C 999.12 337.17 1000.25 346.26 995.43 353.43 C 992.96 357.30 988.60 359.24 984.32 360.37 C 985.20 441.24 985.92 522.11 986.81 602.99 C 986.75 606.57 987.39 610.76 984.65 613.60 C 979.47 619.21 969.48 619.17 964.03 613.97 C 960.72 610.88 961.53 606.05 961.40 602.00 C 960.48 513.66 959.70 425.33 958.58 337.00 C 958.92 319.65 956.53 301.89 949.05 286.09 C 943.47 274.06 933.85 263.81 921.74 258.24 C 905.40 250.44 886.79 250.44 869.11 251.61 C 845.09 253.83 821.56 259.30 797.87 263.58 C 687.87 283.52 577.90 303.64 467.91 323.67 C 463.96 324.58 459.14 323.85 456.78 320.22 C 451.44 312.05 456.78 299.43 466.43 297.67 C 504.29 290.63 542.20 283.86 580.09 276.95 C 579.41 267.73 576.92 257.66 569.33 251.66 C 561.38 245.31 550.71 244.84 540.98 244.61 C 535.10 244.45 528.78 244.52 523.58 241.36 C 519.46 238.78 517.59 233.96 516.70 229.39 C 515.02 220.01 515.89 210.42 516.85 201.01 C 517.26 196.62 518.50 191.97 521.89 188.92 C 524.07 186.78 528.02 186.55 530.19 188.82 C 533.49 191.86 533.77 196.76 533.36 200.95 C 532.79 207.46 531.69 214.44 534.43 220.62 C 536.38 225.03 541.51 226.62 545.97 226.73 C 556.51 227.27 567.90 225.25 577.60 230.48 C 585.17 234.63 588.43 243.41 589.61 251.51 C 590.70 259.26 590.59 267.11 590.34 274.92 C 612.57 271.21 634.70 266.93 656.87 262.91 C 724.24 250.74 791.51 237.98 858.94 226.18 C 860.11 225.71 862.97 226.06 862.51 224.04 C 862.02 213.64 859.66 201.77 850.62 195.34 C 841.24 188.38 828.96 189.39 817.93 188.71 C 811.64 188.68 804.33 186.85 801.27 180.76 C 797.07 172.15 797.91 162.19 798.34 152.92 C 798.95 146.74 798.74 139.91 802.69 134.73 Z" />
<path fill="#49494a" opacity="1.00" d=" M 850.38 292.58 C 860.68 290.92 870.90 288.86 881.18 287.07 C 893.97 285.43 908.05 287.31 918.29 295.72 C 929.42 304.75 934.54 318.96 937.19 332.61 C 942.32 360.81 939.56 389.59 938.61 418.03 C 938.38 431.77 935.15 445.81 927.32 457.28 C 922.29 464.75 915.50 470.94 907.97 475.82 C 894.14 484.51 878.30 489.33 862.42 492.65 C 841.68 497.20 820.44 498.96 799.69 503.49 C 785.30 506.59 770.86 510.53 756.02 510.34 C 745.61 510.13 734.78 507.20 726.93 500.07 C 719.95 493.87 715.97 485.05 713.71 476.15 C 709.09 458.99 710.56 440.90 706.13 423.70 C 704.39 416.84 702.33 409.76 697.84 404.16 C 695.46 401.02 691.04 399.39 687.36 401.21 C 680.10 404.62 675.52 411.98 673.34 419.48 C 668.33 436.23 670.45 453.94 668.13 471.07 C 666.15 487.03 661.20 503.19 650.73 515.69 C 642.28 525.97 630.24 532.71 617.62 536.50 C 605.77 540.12 593.47 541.81 581.23 543.51 C 557.13 546.85 533.46 552.66 509.44 556.50 C 496.38 558.69 482.49 561.01 469.71 556.24 C 459.79 552.75 452.15 544.50 448.03 534.98 C 441.38 519.93 440.42 503.21 439.87 486.99 C 439.69 470.66 439.98 454.33 439.85 438.00 C 439.86 422.97 440.88 407.37 447.80 393.73 C 454.69 380.01 466.38 368.73 480.44 362.52 C 490.70 357.85 501.84 355.65 512.90 353.81 C 535.10 350.37 557.14 345.98 579.25 342.03 C 669.63 325.57 760.02 309.16 850.38 292.58 M 866.76 311.76 C 770.58 329.25 674.40 346.77 578.22 364.27 C 558.59 367.88 538.98 371.62 519.22 374.52 C 509.22 376.29 499.07 377.88 489.56 381.57 C 480.29 385.11 472.12 391.90 467.79 400.92 C 461.05 414.53 461.39 430.19 461.43 445.01 C 461.78 465.40 459.93 485.84 461.81 506.19 C 462.59 513.70 464.43 521.59 469.63 527.35 C 474.28 532.49 481.23 534.92 488.02 535.35 C 498.76 536.10 509.43 534.08 519.93 532.10 C 544.84 527.74 569.69 523.03 594.59 518.58 C 608.41 515.83 623.15 512.69 633.84 502.84 C 642.31 495.14 646.27 483.71 647.37 472.56 C 648.74 453.58 648.35 434.21 653.77 415.77 C 657.66 403.80 663.91 391.84 674.58 384.59 C 683.17 378.61 694.77 376.27 704.64 380.36 C 714.25 384.25 720.92 393.26 724.16 402.87 L 724.93 402.89 C 726.03 409.34 728.16 415.58 728.87 422.11 C 731.30 436.87 730.12 452.15 734.36 466.62 C 736.46 474.11 740.93 481.51 748.25 484.85 C 757.69 489.24 768.46 487.34 778.23 485.21 C 805.30 480.05 832.46 475.38 859.54 470.28 C 874.46 467.90 890.47 465.40 902.48 455.44 C 912.39 447.23 916.46 434.19 917.49 421.76 C 918.67 408.51 917.57 395.21 916.88 381.97 C 916.28 369.48 917.14 356.96 916.36 344.48 C 915.71 335.60 914.32 326.32 909.17 318.82 C 905.32 313.15 898.74 309.81 892.03 309.04 C 883.49 307.83 875.12 310.46 866.76 311.76 Z" />
<path fill="#49494a" opacity="1.00" d=" M 282.93 386.96 C 302.30 350.15 338.15 322.07 379.02 313.58 C 383.08 312.70 387.52 314.89 389.09 318.77 C 392.69 327.52 386.62 338.71 377.20 340.21 C 353.25 345.53 331.02 359.26 316.67 379.31 C 301.13 400.43 293.95 426.67 292.44 452.58 C 291.86 466.04 292.57 479.53 291.91 493.00 C 291.44 512.66 291.88 532.33 291.85 551.99 C 292.34 573.68 293.52 595.35 294.12 617.05 C 294.20 620.84 293.60 625.00 290.81 627.82 C 284.58 634.52 271.40 632.68 268.19 623.78 C 266.49 618.03 267.56 611.91 267.24 606.00 C 266.59 588.29 266.62 570.56 266.49 552.83 C 256.67 557.26 247.90 564.67 236.85 565.86 C 226.88 567.09 217.52 562.59 208.99 558.01 C 205.95 556.26 202.32 554.67 200.76 551.30 C 199.72 548.43 199.89 544.42 202.68 542.60 C 206.51 541.09 210.03 544.07 213.18 545.84 C 220.42 550.56 229.26 553.33 237.93 551.90 C 248.04 550.27 257.05 545.09 266.31 541.00 C 265.98 511.38 266.47 481.74 266.09 452.14 C 261.78 446.31 253.79 445.18 247.02 444.80 C 240.89 444.31 233.83 445.46 228.69 441.32 C 224.07 436.83 224.16 429.81 224.02 423.84 C 224.76 416.81 223.33 408.22 228.80 402.79 C 232.11 399.71 236.73 403.24 237.11 407.03 C 237.70 413.41 235.47 420.05 237.81 426.23 C 239.17 429.93 243.34 431.23 246.95 431.26 C 253.95 431.43 261.04 430.93 267.91 432.65 C 270.23 416.70 275.40 401.20 282.93 386.96 Z" />
<path fill="#49494a" opacity="1.00" d=" M 866.37 328.45 C 869.94 327.34 874.45 327.99 876.55 331.42 C 880.52 337.83 876.96 347.52 869.68 349.73 C 866.06 350.99 861.28 350.50 859.09 347.01 C 855.03 340.40 858.82 330.49 866.37 328.45 Z" />
<path fill="#49494a" opacity="1.00" d=" M 830.34 336.21 C 833.54 335.58 837.41 335.55 839.67 338.32 C 844.92 344.76 840.81 355.89 832.78 357.74 C 821.87 360.02 810.85 361.72 799.92 363.90 C 796.24 364.65 791.68 365.24 788.93 362.07 C 784.99 357.30 786.37 349.72 790.60 345.58 C 793.17 342.95 796.93 342.23 800.41 341.62 C 810.40 339.91 820.36 337.99 830.34 336.21 Z" />
<path fill="#49494a" opacity="1.00" d=" M 748.37 351.37 C 752.00 349.90 756.92 350.27 759.29 353.76 C 763.38 360.01 760.13 369.60 753.10 372.14 C 749.47 373.60 744.60 373.30 742.18 369.88 C 738.09 363.60 741.21 353.88 748.37 351.37 Z" />
<path fill="#49494a" opacity="1.00" d=" M 634.32 369.36 C 637.66 368.45 641.90 368.88 643.96 372.01 C 648.29 378.29 644.82 388.17 637.63 390.59 C 634.01 391.99 629.17 391.52 626.90 388.04 C 622.55 381.44 626.58 371.17 634.32 369.36 Z" />
<path fill="#49494a" opacity="1.00" d=" M 587.34 381.16 C 590.92 380.45 595.39 379.84 597.99 383.05 C 603.29 389.64 598.93 401.02 590.63 402.56 C 569.16 406.69 547.61 410.44 526.11 414.38 C 522.11 415.04 518.12 416.25 514.04 415.94 C 509.81 415.43 507.34 410.96 507.50 407.01 C 507.18 400.82 511.79 394.70 518.05 393.86 C 541.13 389.55 564.26 385.46 587.34 381.16 Z" />
<path fill="#49494a" opacity="1.00" d=" M 910.81 539.32 C 916.11 535.78 922.59 541.38 921.80 547.09 C 920.19 560.89 916.55 574.63 909.64 586.77 C 900.89 602.10 887.37 614.09 873.05 624.11 C 860.83 632.69 845.88 636.93 831.01 636.97 C 805.19 638.48 780.07 630.49 756.72 620.25 C 750.88 617.77 749.11 610.77 749.17 605.00 C 749.28 601.09 749.51 596.38 752.81 593.73 C 755.40 592.47 758.06 594.43 760.27 595.67 C 771.41 603.07 783.52 609.30 796.57 612.48 C 809.98 615.99 824.04 615.78 837.73 614.44 C 866.03 611.42 892.03 591.08 900.79 563.86 C 903.09 556.98 903.73 549.55 907.00 542.99 C 907.77 541.34 909.29 540.25 910.81 539.32 Z" />
<path fill="#49494a" opacity="1.00" d=" M 276.47 646.66 C 280.99 645.57 286.29 645.88 289.96 649.03 C 295.12 653.29 295.85 661.59 291.91 666.90 C 286.39 674.27 272.96 673.48 268.94 664.95 C 265.45 658.19 268.87 648.68 276.47 646.66 Z" />
<path fill="#49494a" opacity="1.00" d=" M 968.30 792.10 C 973.63 790.53 980.35 791.45 983.95 796.06 C 986.21 798.86 985.61 802.64 985.74 805.99 C 985.74 837.66 985.57 869.33 985.86 901.01 C 986.27 913.33 986.48 925.66 986.50 937.99 C 986.59 941.58 985.66 945.42 982.99 947.98 C 977.81 953.12 968.44 952.85 963.52 947.48 C 961.17 944.95 960.18 941.44 960.31 938.05 C 960.00 892.69 960.42 847.33 960.38 801.97 C 960.02 797.19 963.89 793.21 968.30 792.10 Z" />
<path fill="#49494a" opacity="1.00" d=" M 969.29 966.29 C 974.95 964.59 981.90 966.96 984.70 972.33 C 987.37 977.20 986.68 983.78 982.85 987.85 C 977.63 993.33 967.63 993.06 962.84 987.16 C 957.25 980.47 960.26 968.16 969.29 966.29 Z" />
</g>
<g id="#d1f4f4ff">
<path fill="#d1f4f4" opacity="1.00" d=" M 799.77 291.65 C 812.76 289.77 825.93 289.44 839.03 290.12 C 842.92 290.30 846.78 291.05 850.38 292.58 C 760.02 309.16 669.63 325.57 579.25 342.03 C 557.14 345.98 535.10 350.37 512.90 353.81 C 501.84 355.65 490.70 357.85 480.44 362.52 C 466.38 368.73 454.69 380.01 447.80 393.73 C 440.88 407.37 439.86 422.97 439.85 438.00 C 439.98 454.33 439.69 470.66 439.87 486.99 C 440.42 503.21 441.38 519.93 448.03 534.98 C 452.15 544.50 459.79 552.75 469.71 556.24 C 482.49 561.01 496.38 558.69 509.44 556.50 C 533.46 552.66 557.13 546.85 581.23 543.51 C 593.47 541.81 605.77 540.12 617.62 536.50 C 630.24 532.71 642.28 525.97 650.73 515.69 C 661.20 503.19 666.15 487.03 668.13 471.07 C 670.45 453.94 668.33 436.23 673.34 419.48 C 675.52 411.98 680.10 404.62 687.36 401.21 C 691.04 399.39 695.46 401.02 697.84 404.16 C 702.33 409.76 704.39 416.84 706.13 423.70 C 710.56 440.90 709.09 458.99 713.71 476.15 C 715.97 485.05 719.95 493.87 726.93 500.07 C 734.78 507.20 745.61 510.13 756.02 510.34 C 770.86 510.53 785.30 506.59 799.69 503.49 C 820.44 498.96 841.68 497.20 862.42 492.65 C 878.30 489.33 894.14 484.51 907.97 475.82 C 908.51 478.83 908.82 481.89 908.82 484.95 C 908.80 501.31 909.05 517.67 909.02 534.03 C 909.12 535.89 908.83 538.29 910.81 539.32 C 909.29 540.25 907.77 541.34 907.00 542.99 C 903.73 549.55 903.09 556.98 900.79 563.86 C 892.03 591.08 866.03 611.42 837.73 614.44 C 824.04 615.78 809.98 615.99 796.57 612.48 C 783.52 609.30 771.41 603.07 760.27 595.67 C 758.06 594.43 755.40 592.47 752.81 593.73 C 749.51 596.38 749.28 601.09 749.17 605.00 C 749.11 610.77 750.88 617.77 756.72 620.25 C 780.07 630.49 805.19 638.48 831.01 636.97 C 845.88 636.93 860.83 632.69 873.05 624.11 C 887.37 614.09 900.89 602.10 909.64 586.77 C 910.33 616.53 909.67 646.33 910.62 676.08 C 901.94 671.40 891.15 672.94 882.93 677.87 C 873.50 683.36 867.06 692.53 861.99 701.96 C 854.46 710.41 850.38 721.36 848.30 732.34 C 846.84 744.10 847.05 756.63 852.51 767.42 C 856.07 774.86 862.28 781.33 870.27 783.89 C 877.08 786.26 884.61 785.03 891.06 782.15 C 899.30 778.58 905.62 771.79 910.73 764.60 C 911.69 774.37 910.86 784.20 911.17 794.00 C 911.15 808.42 911.73 823.10 908.34 837.21 C 908.49 832.14 908.64 827.05 908.37 821.99 C 908.25 818.48 905.81 814.62 901.99 814.59 C 897.38 814.73 894.32 819.14 893.26 823.22 C 892.26 829.26 892.84 835.45 892.97 841.55 C 894.31 841.16 896.22 841.32 896.69 839.63 C 897.67 834.27 896.23 828.71 897.48 823.41 C 898.09 821.00 900.66 820.43 902.72 819.85 C 905.77 825.77 903.37 832.63 904.72 838.94 C 905.90 838.66 907.10 838.40 908.30 838.15 C 906.91 848.68 903.99 859.05 899.76 868.80 C 897.95 868.81 896.07 868.49 894.34 869.13 C 892.16 870.45 892.52 873.22 892.38 875.39 C 893.93 875.82 895.50 876.21 897.06 876.68 C 891.36 885.73 886.68 895.70 878.87 903.18 C 878.76 897.42 878.92 891.67 878.81 885.92 C 878.80 882.13 877.36 878.06 874.07 875.93 C 870.96 873.94 866.83 874.87 864.17 877.17 C 859.90 880.74 857.88 886.45 857.97 891.93 C 857.98 898.29 857.93 904.66 858.00 911.03 C 857.94 914.25 859.07 917.37 861.01 919.93 C 846.60 930.67 829.30 937.05 811.58 939.54 C 787.68 943.98 763.80 948.51 739.89 952.86 C 732.63 954.03 725.50 955.96 718.17 956.58 C 719.12 954.42 720.61 951.51 718.41 949.57 C 714.61 949.05 710.98 951.30 707.16 951.11 C 704.59 950.24 703.45 947.44 703.39 944.94 C 703.12 939.61 703.25 934.26 703.30 928.93 C 703.29 925.42 704.40 921.53 707.52 919.55 C 710.90 917.85 714.91 918.00 718.27 916.26 C 720.04 914.44 719.31 911.82 719.24 909.60 C 712.95 910.05 705.47 910.94 701.74 916.75 C 695.69 924.94 698.26 935.59 697.71 945.02 C 697.31 950.49 699.83 955.92 704.58 958.78 C 696.73 961.79 688.21 962.22 680.04 963.89 C 684.88 958.84 684.56 951.44 684.09 944.97 C 683.88 941.52 681.57 937.61 677.82 937.38 C 675.17 937.43 672.47 937.96 670.10 939.16 C 667.79 940.65 668.59 943.65 668.81 945.92 C 671.96 945.78 675.09 945.23 678.26 945.18 C 678.42 949.08 679.21 953.21 677.94 956.99 C 676.04 959.40 672.34 959.74 669.47 959.54 C 664.84 957.76 665.82 951.93 665.70 947.99 C 666.17 942.22 664.42 935.79 667.55 930.56 C 670.20 926.14 676.06 927.11 680.17 925.10 C 682.37 923.59 682.58 920.10 680.75 918.21 C 674.36 918.71 666.60 920.03 663.44 926.40 C 658.40 934.41 660.58 944.15 660.10 953.06 C 659.78 958.19 661.25 964.03 666.23 966.52 C 659.68 967.69 653.21 969.43 646.55 969.89 C 646.60 960.66 646.71 951.42 646.51 942.20 C 646.81 940.32 644.37 938.24 642.87 939.85 C 640.80 941.11 641.03 943.81 640.96 945.92 C 641.06 954.28 640.81 962.66 641.12 971.02 C 590.85 980.78 540.39 989.52 490.08 999.08 C 459.64 1004.42 429.29 1010.33 398.87 1015.83 C 373.22 1020.22 347.73 1025.52 322.12 1030.16 C 301.52 1033.59 280.41 1036.61 259.57 1033.47 C 246.58 1031.71 233.93 1026.59 223.81 1018.20 C 210.38 1006.41 203.38 989.10 200.12 971.88 C 198.63 963.13 197.39 954.24 198.04 945.34 C 200.06 942.10 201.38 938.49 201.98 934.73 C 206.10 933.06 209.47 929.40 209.43 924.76 C 209.64 900.85 209.40 876.92 209.55 853.00 C 213.00 852.19 216.83 851.96 219.75 849.75 C 222.64 847.33 222.72 843.31 222.97 839.86 C 229.93 838.72 233.34 829.30 229.19 823.82 C 227.46 821.43 224.30 822.37 221.90 822.86 C 213.69 824.81 205.46 826.67 197.23 828.51 C 196.59 825.40 196.20 822.23 196.22 819.05 C 196.15 804.70 195.96 790.35 196.01 776.00 C 196.02 773.20 195.52 770.44 195.19 767.67 C 199.12 755.35 203.16 743.07 207.30 730.82 C 209.88 735.11 211.50 739.86 213.34 744.50 C 209.06 747.16 206.57 751.71 206.64 756.76 C 204.07 757.97 201.02 759.14 199.94 762.03 C 198.46 765.55 198.02 770.28 200.75 773.31 C 203.43 775.36 207.86 774.39 209.56 771.49 C 211.23 768.59 211.66 765.03 213.99 762.51 C 215.42 761.26 216.91 760.07 218.28 758.76 C 223.44 769.66 226.94 781.25 231.62 792.35 C 232.58 795.38 236.33 796.94 239.06 795.18 C 242.89 793.13 243.48 788.44 244.15 784.60 C 246.44 783.16 249.10 781.91 250.38 779.39 C 252.16 776.26 252.11 772.41 250.76 769.13 C 241.13 744.11 231.54 719.06 221.97 694.00 C 220.63 690.74 219.77 687.15 217.47 684.39 C 215.04 682.60 211.45 683.31 209.69 685.71 C 207.50 688.75 206.71 692.51 205.39 695.97 C 203.55 696.80 201.18 697.29 200.44 699.45 C 198.09 704.48 196.90 709.96 195.11 715.21 C 195.17 694.12 194.94 673.03 194.81 651.94 C 193.61 635.32 194.02 618.65 193.95 602.01 C 193.89 575.00 194.03 548.00 193.92 521.00 C 193.46 494.42 198.54 467.44 210.67 443.65 C 214.52 436.69 218.52 429.66 224.02 423.84 C 224.16 429.81 224.07 436.83 228.69 441.32 C 233.83 445.46 240.89 444.31 247.02 444.80 C 253.79 445.18 261.78 446.31 266.09 452.14 C 266.47 481.74 265.98 511.38 266.31 541.00 C 257.05 545.09 248.04 550.27 237.93 551.90 C 229.26 553.33 220.42 550.56 213.18 545.84 C 210.03 544.07 206.51 541.09 202.68 542.60 C 199.89 544.42 199.72 548.43 200.76 551.30 C 202.32 554.67 205.95 556.26 208.99 558.01 C 217.52 562.59 226.88 567.09 236.85 565.86 C 247.90 564.67 256.67 557.26 266.49 552.83 C 266.62 570.56 266.59 588.29 267.24 606.00 C 267.56 611.91 266.49 618.03 268.19 623.78 C 271.40 632.68 284.58 634.52 290.81 627.82 C 293.60 625.00 294.20 620.84 294.12 617.05 C 293.52 595.35 292.34 573.68 291.85 551.99 C 291.88 532.33 291.44 512.66 291.91 493.00 C 292.57 479.53 291.86 466.04 292.44 452.58 C 293.95 426.67 301.13 400.43 316.67 379.31 C 321.18 380.44 325.66 378.78 330.08 378.05 C 467.91 352.30 605.86 327.13 743.75 301.72 C 762.37 298.08 780.99 294.33 799.77 291.65 M 666.10 580.13 C 655.42 582.86 648.33 592.43 644.00 602.00 C 636.25 609.08 633.29 619.96 632.13 630.06 C 631.69 643.04 632.06 656.03 631.94 669.02 C 631.97 679.19 634.71 690.43 643.32 696.77 C 647.75 700.46 653.88 700.81 659.29 699.45 C 664.72 698.12 670.24 697.16 675.63 695.67 C 680.50 694.30 682.46 688.64 681.97 684.03 C 688.65 683.23 691.85 674.78 688.89 669.20 C 687.98 667.47 686.06 666.05 684.04 666.57 C 677.58 667.59 671.33 669.71 664.87 670.67 C 659.17 671.49 655.06 666.09 653.64 661.21 C 653.63 659.52 653.59 657.84 653.79 656.17 C 654.74 655.09 656.31 655.05 657.61 654.63 C 663.80 653.19 670.12 652.19 676.19 650.28 C 680.86 648.80 682.23 643.29 682.07 638.93 C 688.14 638.03 691.21 630.82 689.54 625.36 C 688.89 623.05 686.61 620.85 684.05 621.46 C 677.02 622.79 670.08 624.59 663.09 626.12 C 659.25 626.75 656.48 630.25 655.91 633.96 C 655.35 635.70 654.16 637.07 653.19 638.57 C 652.84 632.72 652.92 626.86 652.94 621.00 C 653.00 617.20 653.14 613.29 654.56 609.71 C 659.95 609.21 665.12 607.54 670.42 606.50 C 673.01 605.89 675.75 605.47 678.05 604.04 C 681.23 601.65 682.19 597.45 681.80 593.66 C 688.46 592.89 691.82 584.63 689.01 578.97 C 688.07 577.18 686.15 575.54 684.00 576.12 C 677.99 577.25 672.05 578.75 666.10 580.13 M 545.07 609.12 C 542.86 611.94 542.23 615.60 540.98 618.89 C 537.93 619.68 535.78 622.07 534.96 625.06 C 530.86 637.30 526.84 649.58 522.78 661.84 C 517.11 680.62 510.36 699.05 504.68 717.83 C 503.55 721.98 500.68 726.57 503.08 730.81 C 504.05 733.20 506.97 734.82 509.41 733.54 C 513.85 731.81 515.01 726.75 515.84 722.58 C 518.46 721.04 521.37 719.33 522.20 716.16 C 529.17 695.32 535.89 674.38 542.86 653.54 C 544.96 658.35 546.79 663.28 548.40 668.28 C 543.94 670.78 541.72 675.73 542.11 680.73 C 534.48 681.04 531.16 692.64 536.89 697.21 C 543.02 700.42 548.43 692.08 546.98 686.55 C 549.29 685.57 551.80 684.67 553.32 682.54 C 556.87 687.59 558.24 693.72 560.61 699.35 C 563.04 705.28 564.82 711.49 567.72 717.21 C 569.04 720.00 572.94 719.68 575.13 718.16 C 578.74 715.65 578.54 710.73 580.62 707.19 C 586.37 705.43 588.45 697.97 586.16 692.81 C 575.91 666.07 565.64 639.33 555.42 612.57 C 554.75 610.99 554.12 609.34 552.99 608.04 C 550.65 606.02 546.88 606.72 545.07 609.12 M 425.31 635.34 C 415.90 638.66 410.16 647.48 406.34 656.20 C 401.45 659.46 399.66 665.42 397.45 670.56 C 392.73 682.13 394.26 694.83 394.02 707.00 C 394.26 717.80 392.92 728.97 396.58 739.37 C 398.87 746.18 404.80 751.34 411.52 753.59 C 417.31 755.42 423.28 753.31 428.96 752.05 C 437.03 750.45 443.62 743.76 445.96 736.00 C 450.45 731.56 454.04 726.08 455.84 720.00 C 457.68 713.83 457.04 707.33 457.16 701.00 C 457.21 694.80 457.45 688.23 454.37 682.63 C 451.76 677.38 446.05 673.25 440.00 674.16 C 435.42 674.97 430.84 675.93 426.41 677.34 C 421.98 679.29 421.18 684.57 420.68 688.83 C 419.01 689.40 417.35 690.00 415.68 690.56 C 415.57 682.92 415.73 675.27 415.57 667.63 C 415.66 667.19 415.83 666.30 415.92 665.86 C 423.05 661.30 432.01 662.02 439.62 658.68 C 443.41 656.63 444.32 651.89 444.00 647.93 C 450.97 647.10 454.23 637.95 450.59 632.40 C 449.47 630.59 447.28 629.89 445.29 630.54 C 438.62 632.09 431.85 633.30 425.31 635.34 M 276.47 646.66 C 268.87 648.68 265.45 658.19 268.94 664.95 C 272.96 673.48 286.39 674.27 291.91 666.90 C 295.85 661.59 295.12 653.29 289.96 649.03 C 286.29 645.88 280.99 645.57 276.47 646.66 M 310.48 661.53 C 306.20 663.37 304.72 668.52 304.82 672.83 C 302.78 673.64 300.43 674.23 299.10 676.13 C 296.90 678.90 296.78 682.60 296.73 685.98 C 296.84 708.66 296.73 731.34 296.77 754.02 C 296.78 761.38 299.02 769.22 305.05 773.92 C 309.58 778.32 316.44 777.73 322.06 776.21 C 327.09 774.78 332.43 774.37 337.26 772.28 C 341.04 769.89 341.39 764.92 342.90 761.09 C 347.75 760.13 350.10 754.61 349.67 750.09 C 349.47 747.44 347.91 744.22 344.97 743.93 C 337.87 744.53 331.16 747.51 324.05 747.99 C 319.77 747.64 317.72 742.83 317.78 739.04 C 317.69 717.70 317.76 696.35 317.76 675.01 C 317.68 671.88 318.04 668.69 317.35 665.61 C 316.67 662.67 313.48 660.24 310.48 661.53 M 780.57 695.37 C 778.16 695.96 775.61 696.25 773.42 697.47 C 770.02 699.77 768.81 704.08 768.83 708.00 C 762.81 709.06 759.40 716.08 761.38 721.63 C 762.23 723.81 764.21 726.21 766.83 725.73 C 772.20 724.94 777.41 723.31 782.73 722.23 C 782.57 748.83 782.75 775.42 782.62 802.02 C 782.73 804.76 782.55 808.31 785.32 809.89 C 787.70 810.89 790.76 810.49 792.47 808.42 C 794.98 806.11 795.15 802.52 795.64 799.37 C 796.38 799.03 797.13 798.70 797.89 798.39 C 801.58 796.36 803.54 792.12 803.44 788.01 C 803.42 761.11 803.48 734.21 803.45 707.31 L 804.16 707.15 C 803.71 710.48 803.70 713.86 803.94 717.22 C 807.11 716.56 810.62 716.36 813.31 714.36 C 816.31 711.87 817.02 707.82 817.19 704.14 C 823.54 703.17 826.37 695.24 824.14 689.77 C 823.19 687.42 820.55 686.01 818.10 686.87 C 805.57 689.60 793.10 692.62 780.57 695.37 M 697.42 714.26 C 693.56 716.98 693.12 722.12 691.42 726.18 C 687.15 725.94 685.92 730.63 684.75 733.82 C 679.25 752.38 672.48 770.54 666.94 789.08 C 662.58 802.34 658.14 815.56 653.78 828.82 C 652.76 831.91 652.27 835.67 654.53 838.37 C 656.47 841.41 661.18 840.73 663.14 838.06 C 665.18 835.12 666.15 831.60 667.70 828.41 C 670.37 827.33 672.29 824.97 673.12 822.26 C 679.90 801.81 686.51 781.29 693.32 760.85 C 696.18 765.03 697.27 770.05 699.47 774.56 C 695.05 777.09 692.49 781.82 692.79 786.92 C 686.09 787.80 682.75 796.47 686.07 801.95 C 688.35 805.74 694.21 804.69 696.06 801.04 C 697.40 798.17 697.89 794.94 699.64 792.26 C 701.63 791.82 703.07 790.23 704.30 788.71 C 709.61 799.83 713.16 811.71 717.96 823.04 C 719.03 825.72 722.69 826.76 725.08 825.18 C 728.77 823.05 730.07 818.55 729.99 814.54 C 732.21 813.34 734.76 812.33 736.07 810.02 C 738.34 806.57 738.26 802.09 736.56 798.43 C 726.11 771.47 715.92 744.41 705.46 717.46 C 704.62 714.04 700.37 712.12 697.42 714.26 M 620.12 733.08 C 617.54 735.60 616.83 739.33 616.87 742.81 C 613.14 743.65 609.77 746.32 609.23 750.29 C 607.84 761.90 609.84 773.71 608.21 785.31 C 601.80 773.54 595.51 761.72 589.19 749.91 C 587.76 747.35 586.62 744.58 584.70 742.35 C 582.89 740.14 579.41 740.77 577.56 742.58 C 574.61 745.08 573.79 749.08 573.86 752.77 C 568.48 753.33 565.39 758.92 565.79 763.95 C 565.81 793.32 565.79 822.69 565.79 852.06 C 565.57 855.63 567.58 860.81 571.97 860.09 C 577.14 859.14 579.23 853.28 578.96 848.58 C 583.30 847.39 586.67 843.56 586.72 838.97 C 586.94 827.91 586.68 816.84 586.84 805.78 C 590.81 810.88 593.11 816.99 596.41 822.50 C 600.54 830.37 604.79 838.18 608.95 846.04 C 610.22 848.57 612.70 851.19 615.83 850.05 C 620.56 848.24 621.37 842.61 622.77 838.37 C 627.57 836.90 629.87 831.74 629.80 827.05 C 629.92 798.01 629.79 768.98 629.87 739.94 C 629.85 737.31 629.77 734.27 627.62 732.40 C 625.54 730.32 621.97 731.08 620.12 733.08 M 530.32 762.83 C 528.36 763.54 526.01 763.88 524.70 765.69 C 522.30 768.90 522.12 773.10 522.02 776.96 C 522.06 804.32 522.06 831.68 522.02 859.05 C 522.15 861.82 522.10 864.83 523.60 867.29 C 525.45 870.33 530.32 869.94 532.42 867.35 C 534.90 865.00 535.10 861.41 535.64 858.25 C 536.40 857.97 537.17 857.70 537.95 857.45 C 540.66 855.00 543.34 851.95 543.21 848.05 C 543.30 818.02 543.26 787.98 543.23 757.95 C 543.48 754.59 540.93 750.55 537.18 751.20 C 532.03 752.20 530.08 758.17 530.32 762.83 M 489.98 762.95 C 481.49 774.21 473.59 785.93 464.98 797.09 C 456.56 790.24 449.02 782.34 440.82 775.23 C 438.79 773.23 435.38 773.57 433.43 775.49 C 430.53 778.04 429.84 782.08 429.88 785.76 C 424.93 786.19 421.60 791.20 421.84 795.94 C 421.78 825.30 421.88 854.68 421.78 884.05 C 421.81 886.97 422.03 890.50 424.72 892.32 C 427.51 894.11 431.14 892.21 432.79 889.72 C 434.61 887.39 434.91 884.37 434.98 881.54 C 437.00 880.45 439.43 879.71 440.74 877.67 C 443.47 874.03 442.77 869.24 442.86 864.99 C 442.92 849.63 442.67 834.25 443.00 818.89 C 446.33 821.95 449.27 825.45 452.95 828.12 C 455.12 829.92 458.43 829.23 460.21 827.22 C 463.32 823.92 465.73 820.02 467.83 816.03 C 471.34 811.30 474.68 806.45 478.20 801.72 C 479.02 807.11 478.75 812.57 478.74 818.00 C 478.74 833.66 478.78 849.33 478.72 865.00 C 478.75 868.56 478.42 872.20 479.23 875.72 C 479.89 878.44 482.76 880.90 485.66 879.79 C 490.42 878.38 491.82 872.93 491.98 868.54 C 496.52 867.11 499.87 862.89 499.71 858.04 C 499.81 828.68 499.69 799.31 499.77 769.95 C 499.77 767.09 499.71 763.69 497.26 761.75 C 495.06 759.91 491.56 760.65 489.98 762.95 M 373.68 787.77 C 365.33 789.79 356.90 791.51 348.56 793.56 C 343.63 794.74 341.76 800.35 341.91 804.90 C 339.89 805.76 337.50 806.34 336.22 808.30 C 333.04 812.51 333.89 818.07 333.80 823.00 C 333.84 850.02 333.85 877.03 333.79 904.04 C 333.85 906.77 333.94 909.88 336.03 911.93 C 337.74 914.01 341.13 913.72 342.97 911.95 C 346.39 909.35 346.42 904.65 348.63 901.24 C 352.76 899.83 354.85 895.20 354.90 891.09 C 355.08 882.10 354.76 873.10 355.06 864.12 C 360.49 863.71 365.61 861.60 371.03 861.16 C 374.39 860.75 377.30 863.93 377.83 867.04 C 379.11 877.33 377.40 887.78 378.76 898.05 C 379.08 902.44 385.10 903.81 387.94 900.92 C 390.84 898.60 391.15 894.71 391.64 891.31 C 392.39 890.99 393.14 890.67 393.89 890.37 C 397.51 888.31 399.50 884.13 399.30 880.03 C 399.25 871.01 399.44 861.99 399.20 852.99 C 399.07 846.81 396.43 841.05 392.77 836.18 C 398.41 826.49 401.00 814.69 398.17 803.68 C 396.38 797.20 392.54 790.63 386.04 788.00 C 382.13 786.22 377.71 786.75 373.68 787.77 M 287.42 807.50 C 276.52 810.32 269.46 820.24 265.09 830.00 C 260.67 833.32 258.39 838.53 256.51 843.56 C 254.65 848.49 253.61 853.73 253.65 859.02 C 253.66 872.34 253.70 885.66 253.64 898.98 C 253.55 908.62 257.31 918.92 265.36 924.69 C 270.49 928.42 277.28 927.61 283.11 926.28 C 287.95 925.05 292.93 924.31 297.68 922.75 C 302.12 921.19 304.03 915.87 302.79 911.56 C 306.84 911.04 310.27 908.01 311.04 903.96 C 311.95 900.33 311.12 894.93 306.92 893.88 C 302.09 894.12 297.46 895.80 292.74 896.74 C 288.94 897.52 284.62 899.17 280.99 896.98 C 276.30 894.04 274.44 888.29 274.47 883.00 C 274.42 872.00 274.28 861.00 274.29 849.99 C 274.34 845.83 274.37 841.57 275.71 837.59 C 281.32 836.19 286.94 834.86 292.61 833.72 C 295.80 833.02 299.44 832.28 301.38 829.35 C 303.41 827.04 303.23 823.87 303.11 821.02 C 308.43 820.43 311.79 815.06 311.34 809.99 C 311.37 806.69 308.82 802.53 305.03 803.55 C 299.13 804.72 293.27 806.13 287.42 807.50 M 851.35 815.07 C 851.30 826.03 851.32 837.00 851.34 847.96 C 851.40 848.93 851.45 851.23 852.96 850.85 C 855.93 850.75 855.42 847.08 855.50 845.02 C 855.84 840.51 854.30 835.27 857.30 831.40 C 858.71 829.20 862.47 828.79 863.66 831.44 C 865.70 836.65 862.89 842.80 865.25 847.87 C 868.55 848.48 868.77 844.33 868.62 842.06 C 868.25 836.56 869.97 829.78 865.49 825.53 C 862.49 822.61 858.12 824.27 855.34 826.59 C 855.43 821.68 855.83 816.71 855.11 811.85 C 852.91 810.67 851.09 812.97 851.35 815.07 M 878.90 818.28 C 882.36 818.94 884.47 813.63 881.03 812.32 C 878.28 813.03 878.48 816.08 878.90 818.28 M 834.52 821.49 C 827.03 827.35 824.14 838.39 827.60 847.20 C 829.32 851.90 834.64 855.41 839.64 853.74 C 841.68 852.83 841.11 850.33 841.05 848.56 C 837.95 848.56 834.20 848.66 832.36 845.64 C 827.78 838.45 831.37 827.40 839.51 824.52 C 841.95 823.77 841.09 820.94 840.70 819.13 C 838.49 819.45 836.26 820.03 834.52 821.49 M 878.59 822.97 C 878.60 830.19 878.34 837.43 878.81 844.65 C 880.29 844.38 882.43 844.68 882.57 842.61 C 883.13 836.75 882.63 830.83 882.82 824.95 C 882.60 823.09 883.34 820.68 881.65 819.36 C 879.63 818.90 878.39 821.22 878.59 822.97 M 804.02 842.10 C 802.06 843.00 802.84 845.59 802.79 847.30 C 806.59 846.93 810.37 846.18 814.03 845.05 C 816.53 844.57 815.88 841.51 816.17 839.68 C 812.03 839.83 807.91 840.73 804.02 842.10 M 775.47 853.21 C 775.02 857.78 775.18 863.70 779.72 866.27 C 782.61 868.01 785.76 866.14 788.36 864.78 C 788.49 869.03 789.01 875.37 783.87 876.91 C 779.78 877.55 779.84 872.46 778.80 869.84 C 776.76 869.02 775.20 871.23 775.36 873.08 C 775.05 877.48 778.00 882.91 782.99 882.58 C 788.89 881.76 792.29 875.41 792.54 869.93 C 792.65 863.31 792.66 856.68 792.53 850.06 C 792.56 845.93 789.62 841.06 785.01 841.42 C 779.36 842.15 776.07 848.01 775.47 853.21 M 737.29 845.26 C 734.91 846.20 735.57 849.05 735.93 851.00 C 737.08 850.56 738.82 850.67 739.29 849.23 C 740.14 847.71 739.58 844.44 737.29 845.26 M 749.92 856.96 C 749.43 862.56 749.64 868.21 749.88 873.82 C 750.68 873.83 752.30 873.83 753.10 873.84 C 754.32 870.00 753.78 865.93 753.85 861.99 C 753.88 859.21 753.55 855.90 755.87 853.87 C 757.38 852.14 760.48 852.85 760.92 855.18 C 761.66 860.33 760.64 865.60 761.45 870.76 C 762.87 872.51 765.18 870.83 765.26 868.96 C 765.54 864.30 765.44 859.62 765.31 854.97 C 765.26 851.42 762.90 847.36 759.01 847.26 C 753.92 847.31 750.76 852.48 749.92 856.96 M 282.80 853.98 C 277.73 855.89 277.06 861.94 276.53 866.59 C 276.18 866.29 275.47 865.71 275.11 865.41 C 274.38 871.23 274.58 877.11 274.96 882.96 C 282.52 881.20 290.17 879.75 297.65 877.70 C 302.53 876.16 302.96 870.32 303.97 866.11 C 309.73 865.13 312.31 858.27 311.04 853.11 C 310.49 850.42 307.86 848.05 305.00 848.89 C 297.58 850.46 290.14 852.08 282.80 853.98 M 722.31 849.05 C 720.57 850.40 720.89 854.95 723.79 853.96 C 726.71 852.73 725.45 846.43 722.31 849.05 M 737.20 852.14 C 735.03 853.22 735.57 855.96 735.45 857.95 C 735.65 864.10 735.16 870.28 735.70 876.42 C 736.80 878.56 739.64 876.65 739.54 874.77 C 739.77 868.21 739.59 861.63 739.63 855.07 C 739.68 853.57 739.20 851.17 737.20 852.14 M 721.47 857.42 C 720.92 866.60 721.56 875.84 721.19 885.05 C 721.30 887.87 718.74 889.35 716.74 890.76 C 715.16 891.73 716.02 893.91 715.78 895.43 C 721.73 895.87 725.36 889.24 725.41 884.01 C 725.35 874.49 725.70 864.95 725.19 855.44 C 723.71 855.67 721.61 855.39 721.47 857.42 M 690.02 871.94 C 689.91 876.89 689.66 881.89 690.20 886.82 C 691.07 888.59 693.60 887.55 693.86 885.88 C 694.64 880.74 693.57 875.48 694.42 870.36 C 694.86 867.40 699.27 864.70 701.01 868.21 C 702.15 873.74 700.91 879.50 701.83 885.10 C 702.63 884.98 704.23 884.76 705.02 884.65 C 706.14 879.53 705.51 874.24 705.61 869.06 C 705.72 865.28 703.20 860.81 699.00 860.91 C 693.58 861.25 690.44 867.06 690.02 871.94 M 643.75 866.95 C 643.64 873.34 643.79 879.74 643.72 886.15 C 640.58 880.61 637.66 874.95 634.65 869.35 C 633.89 868.31 633.51 866.58 632.04 866.41 C 629.52 867.03 629.70 869.93 629.70 871.97 C 629.87 881.77 629.45 891.58 629.95 901.37 C 631.36 901.18 633.31 901.49 633.61 899.61 C 634.34 892.83 633.49 885.95 634.04 879.14 C 637.92 885.09 640.60 891.74 644.42 897.72 C 645.94 899.37 648.08 896.62 647.84 894.98 C 648.05 885.97 647.84 876.95 647.94 867.94 C 647.76 866.34 648.36 864.20 646.66 863.28 C 644.68 863.03 643.55 865.22 643.75 866.95 M 659.93 873.97 C 657.73 877.81 657.59 882.45 658.18 886.74 C 658.76 890.07 661.23 893.80 664.99 893.72 C 668.56 893.77 671.09 890.94 673.14 888.38 C 674.36 889.24 675.58 890.17 677.01 890.70 C 679.11 890.61 680.04 888.25 679.69 886.44 C 678.43 885.02 676.39 884.31 675.57 882.56 C 674.82 879.30 675.61 875.77 674.18 872.67 C 673.10 870.26 670.83 868.01 668.01 868.19 C 664.44 868.28 661.53 870.95 659.93 873.97 M 593.40 875.44 C 592.22 876.18 591.89 877.60 591.95 878.92 C 591.80 885.63 592.06 892.35 591.88 899.07 C 591.83 902.01 590.06 905.41 586.92 905.90 C 584.77 906.20 583.12 903.97 583.08 902.01 C 582.67 894.43 583.45 886.80 582.73 879.25 C 581.70 876.81 578.69 879.02 578.88 881.00 C 578.62 888.00 578.80 895.02 578.79 902.04 C 578.64 906.27 581.17 911.58 586.02 911.53 C 592.07 911.08 595.71 904.62 596.01 899.09 C 596.13 892.04 596.11 885.00 596.03 877.96 C 596.33 876.43 595.04 874.39 593.40 875.44 M 558.62 883.60 C 554.30 886.49 552.39 891.96 552.55 897.01 C 552.61 901.34 552.39 905.68 552.70 910.01 C 553.04 913.44 555.26 917.43 559.05 917.74 C 561.98 917.57 564.93 916.94 567.64 915.81 C 569.00 914.66 568.56 912.72 568.77 911.19 C 566.08 910.81 563.46 911.54 560.83 911.96 C 558.49 912.66 556.89 909.99 556.82 907.99 C 556.51 903.99 556.67 899.98 556.69 895.98 C 556.66 893.29 557.39 890.30 559.74 888.70 C 562.17 887.55 564.94 887.44 567.44 886.46 C 569.34 885.21 568.70 882.82 568.08 881.08 C 564.89 881.73 561.52 882.01 558.62 883.60 M 822.92 889.94 C 821.70 891.70 821.53 894.37 823.33 895.84 C 825.78 896.86 827.00 893.84 828.68 892.67 C 830.56 890.58 834.41 890.45 835.81 893.16 C 837.62 896.75 836.46 901.10 834.51 904.40 C 830.71 910.94 826.89 917.48 823.08 924.01 C 821.36 926.21 821.42 929.00 822.84 931.34 C 828.95 930.20 835.00 928.72 841.06 927.32 C 844.55 926.92 845.77 921.48 842.97 919.54 C 838.89 919.73 834.99 921.18 831.00 921.95 C 833.55 917.24 836.38 912.68 839.01 908.02 C 842.05 902.55 843.38 895.79 841.37 889.74 C 840.20 886.25 836.96 883.15 833.10 883.35 C 828.83 883.55 825.21 886.52 822.92 889.94 M 608.46 886.56 C 605.70 887.01 605.96 890.30 606.75 892.29 C 610.46 891.59 614.21 890.95 617.82 889.82 C 619.94 889.21 619.41 886.51 619.80 884.87 C 615.95 884.13 612.17 885.73 608.46 886.56 M 536.49 888.59 C 530.62 891.31 528.46 899.31 531.02 905.01 C 532.07 907.78 535.28 908.17 537.53 909.56 C 539.35 912.20 538.19 916.94 534.76 917.57 C 532.93 917.99 530.83 918.60 531.08 920.94 C 530.84 924.00 534.72 923.67 536.58 922.65 C 542.21 919.50 544.06 911.46 541.16 905.89 C 539.81 902.62 534.33 903.76 534.17 899.81 C 534.00 898.49 534.26 897.12 534.92 895.97 C 536.16 893.05 541.18 894.66 541.44 890.98 C 541.95 888.05 538.46 887.51 536.49 888.59 M 559.09 897.97 C 557.11 898.89 557.84 901.48 557.86 903.20 C 561.05 902.88 564.30 902.44 567.31 901.27 C 569.35 900.20 568.67 897.59 568.16 895.82 C 565.12 896.45 561.99 896.84 559.09 897.97 M 759.62 900.48 C 755.67 905.38 752.32 910.73 748.38 915.66 C 744.55 912.26 741.05 908.47 736.97 905.38 C 734.40 904.93 732.94 907.81 733.11 910.00 C 733.03 922.67 733.10 935.36 733.07 948.04 C 733.08 949.47 733.11 951.04 734.18 952.19 C 736.79 953.31 738.93 950.35 738.70 947.95 C 738.83 937.56 738.58 927.17 738.81 916.79 C 741.93 919.30 744.51 922.51 747.99 924.57 C 752.51 921.87 754.38 916.35 758.00 912.63 C 758.41 923.33 757.80 934.07 758.30 944.77 C 759.14 948.59 764.12 945.85 763.71 942.83 C 763.86 929.29 763.88 915.74 763.70 902.21 C 763.93 900.01 760.93 898.43 759.62 900.48 M 643.35 930.32 C 640.64 931.50 639.98 935.92 642.46 937.69 C 647.08 938.87 648.44 929.12 643.35 930.32 M 709.79 931.05 C 708.16 931.54 706.06 931.66 705.21 933.38 C 704.03 935.02 704.78 937.05 705.03 938.86 C 708.87 939.14 712.59 938.00 716.27 937.07 C 719.58 936.66 720.98 931.15 717.99 929.55 C 715.19 929.55 712.50 930.50 709.79 931.05 Z" />
<path fill="#d1f4f4" opacity="1.00" d=" M 238.30 408.75 C 251.35 398.40 266.52 390.33 282.93 386.96 C 275.40 401.20 270.23 416.70 267.91 432.65 C 261.04 430.93 253.95 431.43 246.95 431.26 C 243.34 431.23 239.17 429.93 237.81 426.23 C 235.47 420.05 237.70 413.41 237.11 407.03 C 237.41 407.46 238.01 408.32 238.30 408.75 Z" />
<path fill="#d1f4f4" opacity="1.00" d=" M 430.36 703.71 C 432.68 703.21 435.30 704.83 435.62 707.25 C 436.40 712.48 435.91 717.79 436.15 723.06 C 432.53 723.85 428.90 725.08 425.16 724.89 C 420.02 724.06 416.36 719.12 415.57 714.20 C 415.54 711.57 415.70 708.95 415.85 706.34 C 420.75 705.79 425.49 704.42 430.36 703.71 Z" />
<path fill="#d1f4f4" opacity="1.00" d=" M 873.76 707.85 C 879.54 704.61 886.13 701.68 892.91 703.16 C 900.34 704.74 905.20 711.75 907.23 718.67 C 910.11 727.67 908.38 737.23 906.27 746.19 C 900.58 754.17 888.54 758.70 879.66 753.28 C 871.56 748.23 868.39 738.10 868.43 728.99 C 868.55 721.73 869.66 714.01 873.76 707.85 Z" />
<path fill="#d1f4f4" opacity="1.00" d=" M 355.07 819.14 C 360.57 818.35 365.95 816.11 371.55 816.50 C 377.99 818.24 378.24 825.94 378.57 831.38 C 370.94 834.04 362.85 835.19 355.00 837.11 C 354.92 831.12 354.84 825.13 355.07 819.14 Z" />
<path fill="#d1f4f4" opacity="1.00" d=" M 783.39 847.32 C 785.81 846.06 788.25 848.63 788.30 851.00 C 788.74 854.55 788.34 859.08 784.80 860.97 C 782.59 862.22 779.96 860.26 779.73 857.95 C 779.21 854.19 779.41 849.13 783.39 847.32 Z" />
<path fill="#d1f4f4" opacity="1.00" d=" M 665.43 874.37 C 667.35 873.10 669.98 874.22 670.58 876.39 C 671.59 880.22 671.25 885.28 667.55 887.60 C 665.39 888.98 662.69 887.11 662.32 884.81 C 661.68 881.17 661.95 876.52 665.43 874.37 Z" />
<path fill="#d1f4f4" opacity="1.00" d=" M 866.52 883.46 C 867.87 882.21 870.12 882.02 871.53 883.32 C 873.45 884.96 873.15 887.69 873.22 889.97 C 873.12 895.99 873.34 902.02 873.12 908.04 C 872.95 911.00 871.08 914.35 867.92 914.82 C 865.33 915.09 863.67 912.31 863.69 910.03 C 863.53 903.68 863.68 897.32 863.62 890.98 C 863.51 888.22 864.25 885.22 866.52 883.46 Z" />
</g>
<g id="#87ccf8ff">
<path fill="#87ccf8" opacity="1.00" d=" M 866.76 311.76 C 875.12 310.46 883.49 307.83 892.03 309.04 C 898.74 309.81 905.32 313.15 909.17 318.82 C 914.32 326.32 915.71 335.60 916.36 344.48 C 917.14 356.96 916.28 369.48 916.88 381.97 C 917.57 395.21 918.67 408.51 917.49 421.76 C 916.46 434.19 912.39 447.23 902.48 455.44 C 890.47 465.40 874.46 467.90 859.54 470.28 C 842.78 445.90 818.34 427.22 791.15 415.84 C 770.21 407.19 747.55 403.00 724.93 402.89 L 724.16 402.87 C 720.92 393.26 714.25 384.25 704.64 380.36 C 694.77 376.27 683.17 378.61 674.58 384.59 C 663.91 391.84 657.66 403.80 653.77 415.77 C 596.97 436.60 549.14 479.37 519.93 532.10 C 509.43 534.08 498.76 536.10 488.02 535.35 C 481.23 534.92 474.28 532.49 469.63 527.35 C 464.43 521.59 462.59 513.70 461.81 506.19 C 459.93 485.84 461.78 465.40 461.43 445.01 C 461.39 430.19 461.05 414.53 467.79 400.92 C 472.12 391.90 480.29 385.11 489.56 381.57 C 499.07 377.88 509.22 376.29 519.22 374.52 C 538.98 371.62 558.59 367.88 578.22 364.27 C 674.40 346.77 770.58 329.25 866.76 311.76 M 866.37 328.45 C 858.82 330.49 855.03 340.40 859.09 347.01 C 861.28 350.50 866.06 350.99 869.68 349.73 C 876.96 347.52 880.52 337.83 876.55 331.42 C 874.45 327.99 869.94 327.34 866.37 328.45 M 830.34 336.21 C 820.36 337.99 810.40 339.91 800.41 341.62 C 796.93 342.23 793.17 342.95 790.60 345.58 C 786.37 349.72 784.99 357.30 788.93 362.07 C 791.68 365.24 796.24 364.65 799.92 363.90 C 810.85 361.72 821.87 360.02 832.78 357.74 C 840.81 355.89 844.92 344.76 839.67 338.32 C 837.41 335.55 833.54 335.58 830.34 336.21 M 748.37 351.37 C 741.21 353.88 738.09 363.60 742.18 369.88 C 744.60 373.30 749.47 373.60 753.10 372.14 C 760.13 369.60 763.38 360.01 759.29 353.76 C 756.92 350.27 752.00 349.90 748.37 351.37 M 634.32 369.36 C 626.58 371.17 622.55 381.44 626.90 388.04 C 629.17 391.52 634.01 391.99 637.63 390.59 C 644.82 388.17 648.29 378.29 643.96 372.01 C 641.90 368.88 637.66 368.45 634.32 369.36 M 587.34 381.16 C 564.26 385.46 541.13 389.55 518.05 393.86 C 511.79 394.70 507.18 400.82 507.50 407.01 C 507.34 410.96 509.81 415.43 514.04 415.94 C 518.12 416.25 522.11 415.04 526.11 414.38 C 547.61 410.44 569.16 406.69 590.63 402.56 C 598.93 401.02 603.29 389.64 597.99 383.05 C 595.39 379.84 590.92 380.45 587.34 381.16 Z" />
</g>
<g id="#4ba3e4ff">
<path fill="#4ba3e4" opacity="1.00" d=" M 724.93 402.89 C 747.55 403.00 770.21 407.19 791.15 415.84 C 818.34 427.22 842.78 445.90 859.54 470.28 C 832.46 475.38 805.30 480.05 778.23 485.21 C 768.46 487.34 757.69 489.24 748.25 484.85 C 740.93 481.51 736.46 474.11 734.36 466.62 C 730.12 452.15 731.30 436.87 728.87 422.11 C 728.16 415.58 726.03 409.34 724.93 402.89 Z" />
<path fill="#4ba3e4" opacity="1.00" d=" M 519.93 532.10 C 549.14 479.37 596.97 436.60 653.77 415.77 C 648.35 434.21 648.74 453.58 647.37 472.56 C 646.27 483.71 642.31 495.14 633.84 502.84 C 623.15 512.69 608.41 515.83 594.59 518.58 C 569.69 523.03 544.84 527.74 519.93 532.10 Z" />
</g>
<g id="#094d61ff">
<path fill="#094d61" opacity="1.00" d=" M 666.10 580.13 C 672.05 578.75 677.99 577.25 684.00 576.12 C 686.15 575.54 688.07 577.18 689.01 578.97 C 691.82 584.63 688.46 592.89 681.80 593.66 C 676.37 595.05 670.80 595.85 665.46 597.52 C 659.95 599.31 656.49 604.52 654.56 609.71 C 653.14 613.29 653.00 617.20 652.94 621.00 C 652.92 626.86 652.84 632.72 653.19 638.57 C 653.29 646.11 652.61 653.71 653.64 661.21 C 655.06 666.09 659.17 671.49 664.87 670.67 C 671.33 669.71 677.58 667.59 684.04 666.57 C 686.06 666.05 687.98 667.47 688.89 669.20 C 691.85 674.78 688.65 683.23 681.97 684.03 C 675.31 685.39 668.77 687.55 661.98 688.15 C 653.80 688.56 646.96 682.33 643.72 675.29 C 638.51 664.96 640.58 653.10 640.16 642.00 C 640.58 628.64 638.40 614.62 644.00 602.00 C 648.33 592.43 655.42 582.86 666.10 580.13 Z" />
<path fill="#094d61" opacity="1.00" d=" M 545.07 609.12 C 546.88 606.72 550.65 606.02 552.99 608.04 C 554.12 609.34 554.75 610.99 555.42 612.57 C 565.64 639.33 575.91 666.07 586.16 692.81 C 588.45 697.97 586.37 705.43 580.62 707.19 C 578.19 707.24 575.72 706.46 575.03 703.88 C 566.04 681.31 557.86 658.40 548.66 635.91 C 546.67 641.76 544.87 647.68 542.86 653.54 C 535.89 674.38 529.17 695.32 522.20 716.16 C 521.37 719.33 518.46 721.04 515.84 722.58 C 513.96 721.41 511.54 720.52 510.75 718.27 C 509.53 714.84 510.82 711.24 511.86 707.96 C 521.67 678.31 531.25 648.57 540.98 618.89 C 542.23 615.60 542.86 611.94 545.07 609.12 Z" />
<path fill="#094d61" opacity="1.00" d=" M 663.09 626.12 C 670.08 624.59 677.02 622.79 684.05 621.46 C 686.61 620.85 688.89 623.05 689.54 625.36 C 691.21 630.82 688.14 638.03 682.07 638.93 C 675.03 640.37 668.11 642.50 660.99 643.46 C 656.24 643.48 655.18 637.66 655.91 633.96 C 656.48 630.25 659.25 626.75 663.09 626.12 Z" />
<path fill="#094d61" opacity="1.00" d=" M 425.31 635.34 C 431.85 633.30 438.62 632.09 445.29 630.54 C 447.28 629.89 449.47 630.59 450.59 632.40 C 454.23 637.95 450.97 647.10 444.00 647.93 C 438.59 649.30 433.05 650.14 427.70 651.77 C 421.54 653.89 417.99 660.05 415.92 665.86 C 415.83 666.30 415.66 667.19 415.57 667.63 C 414.73 676.73 415.28 685.89 415.30 695.01 C 415.53 701.40 414.70 707.83 415.57 714.20 C 416.36 719.12 420.02 724.06 425.16 724.89 C 428.90 725.08 432.53 723.85 436.15 723.06 C 439.81 722.30 443.28 719.72 443.82 715.82 C 444.65 710.23 444.22 704.55 444.23 698.93 C 444.23 696.02 443.42 692.02 439.94 691.57 C 434.92 691.57 430.23 694.20 425.20 693.92 C 422.93 693.11 422.00 690.62 420.68 688.83 C 421.18 684.57 421.98 679.29 426.41 677.34 C 430.84 675.93 435.42 674.97 440.00 674.16 C 446.05 673.25 451.76 677.38 454.37 682.63 C 457.45 688.23 457.21 694.80 457.16 701.00 C 457.04 707.33 457.68 713.83 455.84 720.00 C 454.04 726.08 450.45 731.56 445.96 736.00 C 440.73 739.86 434.09 740.67 427.91 741.99 C 420.87 743.54 413.85 739.88 409.07 734.93 C 403.71 729.06 402.33 720.73 402.29 713.05 C 402.30 700.35 402.29 687.64 402.29 674.94 C 402.18 668.47 403.95 662.16 406.34 656.20 C 410.16 647.48 415.90 638.66 425.31 635.34 Z" />
<path fill="#094d61" opacity="1.00" d=" M 967.19 652.34 C 976.44 650.23 985.70 648.06 994.98 646.04 C 1001.19 644.59 1007.81 647.42 1011.59 652.43 C 1018.19 661.03 1018.93 672.85 1016.18 683.03 C 1015.13 687.29 1013.05 691.15 1011.20 695.09 C 1012.71 697.77 1014.76 700.17 1015.77 703.14 C 1018.14 709.14 1017.61 715.69 1017.65 722.00 C 1017.59 727.98 1017.74 733.96 1017.62 739.94 C 1017.51 743.72 1015.48 747.94 1011.67 749.17 C 1008.68 749.73 1005.51 748.03 1005.13 744.84 C 1004.14 735.00 1005.36 725.05 1004.59 715.20 C 1004.31 711.41 1001.19 707.15 997.00 707.83 C 989.25 709.17 981.64 711.29 973.97 712.99 L 973.30 713.15 C 973.34 725.11 973.19 737.07 973.26 749.03 C 973.49 753.57 971.28 758.56 966.84 760.31 C 962.74 760.59 960.09 756.84 960.39 753.02 C 960.27 723.31 960.43 693.58 960.31 663.86 C 960.02 659.19 962.06 653.37 967.19 652.34 M 973.71 667.60 L 973.72 668.14 C 972.85 677.39 973.44 686.73 973.24 696.02 C 981.29 694.14 989.46 692.64 997.38 690.26 C 1003.64 685.46 1006.42 676.61 1003.86 669.13 C 1002.64 665.52 999.04 662.21 994.99 663.13 C 987.85 664.36 980.90 666.61 973.71 667.60 Z" />
<path fill="#094d61" opacity="1.00" d=" M 310.48 661.53 C 313.48 660.24 316.67 662.67 317.35 665.61 C 318.04 668.69 317.68 671.88 317.76 675.01 C 317.76 696.35 317.69 717.70 317.78 739.04 C 317.72 742.83 319.77 747.64 324.05 747.99 C 331.16 747.51 337.87 744.53 344.97 743.93 C 347.91 744.22 349.47 747.44 349.67 750.09 C 350.10 754.61 347.75 760.13 342.90 761.09 C 336.95 762.57 330.99 764.10 324.96 765.20 C 319.52 766.27 313.92 763.71 310.49 759.52 C 306.15 754.45 304.76 747.55 304.79 741.04 C 304.83 718.30 304.77 695.57 304.82 672.83 C 304.72 668.52 306.20 663.37 310.48 661.53 Z" />
<path fill="#094d61" opacity="1.00" d=" M 542.11 680.73 C 541.72 675.73 543.94 670.78 548.40 668.28 C 550.34 668.88 552.96 668.89 554.02 670.96 C 556.15 674.55 555.19 679.05 553.32 682.54 C 551.80 684.67 549.29 685.57 546.98 686.55 C 544.82 685.11 542.89 683.27 542.11 680.73 Z" />
<path fill="#094d61" opacity="1.00" d=" M 882.93 677.87 C 891.15 672.94 901.94 671.40 910.62 676.08 C 920.17 681.09 925.98 691.19 928.32 701.44 C 932.78 722.37 926.39 745.19 911.96 760.94 C 905.82 767.24 897.76 771.95 888.92 772.93 C 879.92 774.10 870.81 769.72 865.23 762.74 C 858.09 753.88 855.24 742.23 855.48 731.01 C 855.39 720.97 858.04 711.12 861.99 701.96 C 867.06 692.53 873.50 683.36 882.93 677.87 M 873.76 707.85 C 869.66 714.01 868.55 721.73 868.43 728.99 C 868.39 738.10 871.56 748.23 879.66 753.28 C 888.54 758.70 900.58 754.17 906.27 746.19 C 914.02 737.89 917.39 726.13 916.76 714.92 C 916.37 707.77 914.04 700.31 908.62 695.36 C 904.61 691.39 898.56 689.71 893.08 691.01 C 884.36 692.93 877.32 699.85 873.76 707.85 Z" />
<path fill="#094d61" opacity="1.00" d=" M 209.69 685.71 C 211.45 683.31 215.04 682.60 217.47 684.39 C 219.77 687.15 220.63 690.74 221.97 694.00 C 231.54 719.06 241.13 744.11 250.76 769.13 C 252.11 772.41 252.16 776.26 250.38 779.39 C 249.10 781.91 246.44 783.16 244.15 784.60 C 242.25 783.28 240.11 781.97 239.34 779.66 C 230.61 757.36 222.46 734.81 213.39 712.65 C 211.22 718.66 209.38 724.77 207.30 730.82 C 203.16 743.07 199.12 755.35 195.19 767.67 C 192.40 775.76 189.85 783.92 187.13 792.03 C 186.31 794.79 184.45 797.29 181.67 798.31 C 179.59 798.30 177.13 798.00 176.08 795.92 C 173.97 792.42 175.42 788.23 176.57 784.68 C 186.33 755.16 195.89 725.58 205.39 695.97 C 206.71 692.51 207.50 688.75 209.69 685.71 Z" />
<path fill="#094d61" opacity="1.00" d=" M 780.57 695.37 C 793.10 692.62 805.57 689.60 818.10 686.87 C 820.55 686.01 823.19 687.42 824.14 689.77 C 826.37 695.24 823.54 703.17 817.19 704.14 C 812.86 705.22 808.49 706.11 804.16 707.15 L 803.45 707.31 C 803.48 734.21 803.42 761.11 803.44 788.01 C 803.54 792.12 801.58 796.36 797.89 798.39 C 796.14 798.34 794.04 798.84 792.75 797.35 C 790.43 795.25 790.55 791.88 790.49 789.03 C 790.59 762.75 790.47 736.46 790.56 710.18 C 785.08 711.30 779.73 713.23 774.15 713.67 C 771.03 713.78 769.68 710.43 768.83 708.00 C 768.81 704.08 770.02 699.77 773.42 697.47 C 775.61 696.25 778.16 695.96 780.57 695.37 Z" />
<path fill="#094d61" opacity="1.00" d=" M 697.42 714.26 C 700.37 712.12 704.62 714.04 705.46 717.46 C 715.92 744.41 726.11 771.47 736.56 798.43 C 738.26 802.09 738.34 806.57 736.07 810.02 C 734.76 812.33 732.21 813.34 729.99 814.54 C 728.16 813.21 726.14 811.87 725.38 809.64 C 716.64 787.35 708.56 764.79 699.42 742.67 C 697.27 748.69 695.40 754.80 693.32 760.85 C 686.51 781.29 679.90 801.81 673.12 822.26 C 672.29 824.97 670.37 827.33 667.70 828.41 C 663.45 829.15 660.41 824.94 660.95 821.03 C 661.68 815.95 663.84 811.22 665.31 806.34 C 674.01 779.62 682.80 752.92 691.42 726.18 C 693.12 722.12 693.56 716.98 697.42 714.26 Z" />
<path fill="#094d61" opacity="1.00" d=" M 620.12 733.08 C 621.97 731.08 625.54 730.32 627.62 732.40 C 629.77 734.27 629.85 737.31 629.87 739.94 C 629.79 768.98 629.92 798.01 629.80 827.05 C 629.87 831.74 627.57 836.90 622.77 838.37 C 620.68 838.10 618.65 837.27 617.74 835.24 C 607.33 816.46 597.73 797.23 587.06 778.59 C 586.58 787.65 586.95 796.72 586.84 805.78 C 586.68 816.84 586.94 827.91 586.72 838.97 C 586.67 843.56 583.30 847.39 578.96 848.58 C 577.16 847.25 574.68 846.15 574.28 843.70 C 573.58 840.51 573.83 837.22 573.80 834.00 C 573.89 806.92 573.77 779.85 573.86 752.77 C 573.79 749.08 574.61 745.08 577.56 742.58 C 579.41 740.77 582.89 740.14 584.70 742.35 C 586.62 744.58 587.76 747.35 589.19 749.91 C 595.51 761.72 601.80 773.54 608.21 785.31 C 611.13 790.55 613.87 795.90 616.80 801.15 C 616.91 781.70 616.76 762.25 616.87 742.81 C 616.83 739.33 617.54 735.60 620.12 733.08 Z" />
<path fill="#094d61" opacity="1.00" d=" M 213.34 744.50 C 215.33 745.35 217.97 745.75 218.95 747.97 C 220.58 751.40 219.76 755.42 218.28 758.76 C 216.91 760.07 215.42 761.26 213.99 762.51 C 212.48 762.28 210.92 762.23 209.48 761.69 C 207.91 760.50 207.36 758.49 206.64 756.76 C 206.57 751.71 209.06 747.16 213.34 744.50 Z" />
<path fill="#094d61" opacity="1.00" d=" M 530.32 762.83 C 530.08 758.17 532.03 752.20 537.18 751.20 C 540.93 750.55 543.48 754.59 543.23 757.95 C 543.26 787.98 543.30 818.02 543.21 848.05 C 543.34 851.95 540.66 855.00 537.95 857.45 C 533.77 858.29 530.03 855.26 530.39 850.94 C 530.25 821.57 530.41 792.20 530.32 762.83 Z" />
<path fill="#094d61" opacity="1.00" d=" M 489.98 762.95 C 491.56 760.65 495.06 759.91 497.26 761.75 C 499.71 763.69 499.77 767.09 499.77 769.95 C 499.69 799.31 499.81 828.68 499.71 858.04 C 499.87 862.89 496.52 867.11 491.98 868.54 C 489.15 866.99 486.53 864.56 486.82 861.03 C 486.59 837.33 486.80 813.61 486.72 789.90 C 483.84 793.81 481.02 797.76 478.20 801.72 C 474.68 806.45 471.34 811.30 467.83 816.03 C 466.30 816.56 464.75 817.13 463.12 817.19 C 460.75 816.36 458.98 814.47 457.15 812.86 C 452.56 808.46 447.82 804.21 443.10 799.96 C 443.11 806.27 443.25 812.58 443.00 818.89 C 442.67 834.25 442.92 849.63 442.86 864.99 C 442.77 869.24 443.47 874.03 440.74 877.67 C 439.43 879.71 437.00 880.45 434.98 881.54 C 433.54 880.48 431.90 879.58 430.85 878.11 C 429.80 875.91 429.89 873.41 429.82 871.05 C 429.93 842.62 429.79 814.19 429.88 785.76 C 429.84 782.08 430.53 778.04 433.43 775.49 C 435.38 773.57 438.79 773.23 440.82 775.23 C 449.02 782.34 456.56 790.24 464.98 797.09 C 473.59 785.93 481.49 774.21 489.98 762.95 Z" />
<path fill="#094d61" opacity="1.00" d=" M 699.47 774.56 C 701.44 775.37 704.01 775.78 705.00 777.95 C 706.61 781.37 705.86 785.41 704.30 788.71 C 703.07 790.23 701.63 791.82 699.64 792.26 C 695.96 793.28 693.50 790.15 692.79 786.92 C 692.49 781.82 695.05 777.09 699.47 774.56 Z" />
<path fill="#094d61" opacity="1.00" d=" M 373.68 787.77 C 377.71 786.75 382.13 786.22 386.04 788.00 C 392.54 790.63 396.38 797.20 398.17 803.68 C 401.00 814.69 398.41 826.49 392.77 836.18 C 396.43 841.05 399.07 846.81 399.20 852.99 C 399.44 861.99 399.25 871.01 399.30 880.03 C 399.50 884.13 397.51 888.31 393.89 890.37 C 392.14 890.32 390.06 890.78 388.67 889.45 C 386.80 887.87 386.42 885.30 386.38 883.02 C 386.18 874.33 386.68 865.63 386.24 856.95 C 386.17 852.84 382.84 848.18 378.28 849.19 C 370.48 850.38 362.91 852.71 355.16 854.17 C 355.15 857.48 355.14 860.80 355.06 864.12 C 354.76 873.10 355.08 882.10 354.90 891.09 C 354.85 895.20 352.76 899.83 348.63 901.24 C 343.81 902.36 341.53 897.04 341.86 893.07 C 341.88 863.68 341.80 834.29 341.91 804.90 C 341.76 800.35 343.63 794.74 348.56 793.56 C 356.90 791.51 365.33 789.79 373.68 787.77 M 355.16 809.11 C 355.14 812.45 355.15 815.79 355.07 819.14 C 354.84 825.13 354.92 831.12 355.00 837.11 C 362.85 835.19 370.94 834.04 378.57 831.38 C 385.24 827.00 387.96 817.85 385.48 810.40 C 384.22 806.65 380.43 803.27 376.26 804.38 C 369.19 805.78 362.22 807.67 355.16 809.11 Z" />
<path fill="#094d61" opacity="1.00" d=" M 287.42 807.50 C 293.27 806.13 299.13 804.72 305.03 803.55 C 308.82 802.53 311.37 806.69 311.34 809.99 C 311.79 815.06 308.43 820.43 303.11 821.02 C 297.72 822.43 292.17 823.22 286.85 824.89 C 281.18 826.79 277.67 832.23 275.71 837.59 C 274.37 841.57 274.34 845.83 274.29 849.99 C 274.28 861.00 274.42 872.00 274.47 883.00 C 274.44 888.29 276.30 894.04 280.99 896.98 C 284.62 899.17 288.94 897.52 292.74 896.74 C 297.46 895.80 302.09 894.12 306.92 893.88 C 311.12 894.93 311.95 900.33 311.04 903.96 C 310.27 908.01 306.84 911.04 302.79 911.56 C 296.20 912.88 289.73 915.06 282.99 915.48 C 274.69 915.78 268.00 909.23 264.84 902.09 C 259.93 891.75 261.94 880.03 261.53 869.00 C 261.92 855.98 259.89 842.36 265.09 830.00 C 269.46 820.24 276.52 810.32 287.42 807.50 Z" />
<path fill="#094d61" opacity="1.00" d=" M 221.90 822.86 C 224.30 822.37 227.46 821.43 229.19 823.82 C 233.34 829.30 229.93 838.72 222.97 839.86 C 218.51 840.83 214.04 841.75 209.61 842.88 C 209.59 846.25 209.57 849.62 209.55 853.00 C 209.40 876.92 209.64 900.85 209.43 924.76 C 209.47 929.40 206.10 933.06 201.98 934.73 C 198.85 933.39 196.41 930.64 196.71 927.05 C 196.56 899.99 196.70 872.92 196.64 845.85 C 191.34 846.73 186.19 848.39 180.87 849.12 C 177.63 849.72 175.96 846.31 174.89 843.86 C 174.74 839.34 176.47 833.73 181.24 832.26 C 186.53 830.83 191.91 829.82 197.23 828.51 C 205.46 826.67 213.69 824.81 221.90 822.86 Z" />
<path fill="#094d61" opacity="1.00" d=" M 282.80 853.98 C 290.14 852.08 297.58 850.46 305.00 848.89 C 307.86 848.05 310.49 850.42 311.04 853.11 C 312.31 858.27 309.73 865.13 303.97 866.11 C 296.96 867.67 290.02 869.69 282.92 870.77 C 279.95 871.31 278.54 868.11 276.53 866.59 C 277.06 861.94 277.73 855.89 282.80 853.98 Z" />
</g>
<g id="#d6d6d6ff">
<path fill="#d6d6d6" opacity="1.00" d=" M 665.46 597.52 C 670.80 595.85 676.37 595.05 681.80 593.66 C 682.19 597.45 681.23 601.65 678.05 604.04 C 675.75 605.47 673.01 605.89 670.42 606.50 C 665.12 607.54 659.95 609.21 654.56 609.71 C 656.49 604.52 659.95 599.31 665.46 597.52 Z" />
<path fill="#d6d6d6" opacity="1.00" d=" M 632.13 630.06 C 633.29 619.96 636.25 609.08 644.00 602.00 C 638.40 614.62 640.58 628.64 640.16 642.00 C 640.58 653.10 638.51 664.96 643.72 675.29 C 646.96 682.33 653.80 688.56 661.98 688.15 C 668.77 687.55 675.31 685.39 681.97 684.03 C 682.46 688.64 680.50 694.30 675.63 695.67 C 670.24 697.16 664.72 698.12 659.29 699.45 C 653.88 700.81 647.75 700.46 643.32 696.77 C 634.71 690.43 631.97 679.19 631.94 669.02 C 632.06 656.03 631.69 643.04 632.13 630.06 Z" />
<path fill="#d6d6d6" opacity="1.00" d=" M 534.96 625.06 C 535.78 622.07 537.93 619.68 540.98 618.89 C 531.25 648.57 521.67 678.31 511.86 707.96 C 510.82 711.24 509.53 714.84 510.75 718.27 C 511.54 720.52 513.96 721.41 515.84 722.58 C 515.01 726.75 513.85 731.81 509.41 733.54 C 506.97 734.82 504.05 733.20 503.08 730.81 C 500.68 726.57 503.55 721.98 504.68 717.83 C 510.36 699.05 517.11 680.62 522.78 661.84 C 526.84 649.58 530.86 637.30 534.96 625.06 Z" />
<path fill="#d6d6d6" opacity="1.00" d=" M 653.19 638.57 C 654.16 637.07 655.35 635.70 655.91 633.96 C 655.18 637.66 656.24 643.48 660.99 643.46 C 668.11 642.50 675.03 640.37 682.07 638.93 C 682.23 643.29 680.86 648.80 676.19 650.28 C 670.12 652.19 663.80 653.19 657.61 654.63 C 656.31 655.05 654.74 655.09 653.79 656.17 C 653.59 657.84 653.63 659.52 653.64 661.21 C 652.61 653.71 653.29 646.11 653.19 638.57 Z" />
<path fill="#d6d6d6" opacity="1.00" d=" M 548.66 635.91 C 557.86 658.40 566.04 681.31 575.03 703.88 C 575.72 706.46 578.19 707.24 580.62 707.19 C 578.54 710.73 578.74 715.65 575.13 718.16 C 572.94 719.68 569.04 720.00 567.72 717.21 C 564.82 711.49 563.04 705.28 560.61 699.35 C 558.24 693.72 556.87 687.59 553.32 682.54 C 555.19 679.05 556.15 674.55 554.02 670.96 C 552.96 668.89 550.34 668.88 548.40 668.28 C 546.79 663.28 544.96 658.35 542.86 653.54 C 544.87 647.68 546.67 641.76 548.66 635.91 Z" />
<path fill="#d6d6d6" opacity="1.00" d=" M 427.70 651.77 C 433.05 650.14 438.59 649.30 444.00 647.93 C 444.32 651.89 443.41 656.63 439.62 658.68 C 432.01 662.02 423.05 661.30 415.92 665.86 C 417.99 660.05 421.54 653.89 427.70 651.77 Z" />
<path fill="#d6d6d6" opacity="1.00" d=" M 397.45 670.56 C 399.66 665.42 401.45 659.46 406.34 656.20 C 403.95 662.16 402.18 668.47 402.29 674.94 C 402.29 687.64 402.30 700.35 402.29 713.05 C 402.33 720.73 403.71 729.06 409.07 734.93 C 413.85 739.88 420.87 743.54 427.91 741.99 C 434.09 740.67 440.73 739.86 445.96 736.00 C 443.62 743.76 437.03 750.45 428.96 752.05 C 423.28 753.31 417.31 755.42 411.52 753.59 C 404.80 751.34 398.87 746.18 396.58 739.37 C 392.92 728.97 394.26 717.80 394.02 707.00 C 394.26 694.83 392.73 682.13 397.45 670.56 Z" />
<path fill="#d6d6d6" opacity="1.00" d=" M 973.71 667.60 C 980.90 666.61 987.85 664.36 994.99 663.13 C 999.04 662.21 1002.64 665.52 1003.86 669.13 C 1006.42 676.61 1003.64 685.46 997.38 690.26 C 996.74 684.93 996.50 677.68 990.62 675.38 C 984.89 674.52 979.33 677.01 973.76 677.99 C 973.74 674.70 973.77 671.42 973.72 668.14 L 973.71 667.60 Z" />
<path fill="#d6d6d6" opacity="1.00" d=" M 952.27 675.05 C 952.15 669.97 955.07 664.90 960.31 663.86 C 960.43 693.58 960.27 723.31 960.39 753.02 C 960.09 756.84 962.74 760.59 966.84 760.31 C 966.51 760.57 965.85 761.07 965.52 761.33 C 964.74 764.79 964.21 768.88 961.07 771.09 C 958.90 772.54 955.18 772.73 953.77 770.15 C 952.08 767.43 952.25 764.09 952.17 761.03 C 952.32 732.37 952.10 703.70 952.27 675.05 Z" />
<path fill="#d6d6d6" opacity="1.00" d=" M 415.30 695.01 C 415.28 685.89 414.73 676.73 415.57 667.63 C 415.73 675.27 415.57 682.92 415.68 690.56 C 417.35 690.00 419.01 689.40 420.68 688.83 C 422.00 690.62 422.93 693.11 425.20 693.92 C 430.23 694.20 434.92 691.57 439.94 691.57 C 443.42 692.02 444.23 696.02 444.23 698.93 C 444.22 704.55 444.65 710.23 443.82 715.82 C 443.28 719.72 439.81 722.30 436.15 723.06 C 435.91 717.79 436.40 712.48 435.62 707.25 C 435.30 704.83 432.68 703.21 430.36 703.71 C 425.49 704.42 420.75 705.79 415.85 706.34 C 415.70 708.95 415.54 711.57 415.57 714.20 C 414.70 707.83 415.53 701.40 415.30 695.01 Z" />
<path fill="#d6d6d6" opacity="1.00" d=" M 299.10 676.13 C 300.43 674.23 302.78 673.64 304.82 672.83 C 304.77 695.57 304.83 718.30 304.79 741.04 C 304.76 747.55 306.15 754.45 310.49 759.52 C 313.92 763.71 319.52 766.27 324.96 765.20 C 330.99 764.10 336.95 762.57 342.90 761.09 C 341.39 764.92 341.04 769.89 337.26 772.28 C 332.43 774.37 327.09 774.78 322.06 776.21 C 316.44 777.73 309.58 778.32 305.05 773.92 C 299.02 769.22 296.78 761.38 296.77 754.02 C 296.73 731.34 296.84 708.66 296.73 685.98 C 296.78 682.60 296.90 678.90 299.10 676.13 Z" />
<path fill="#d6d6d6" opacity="1.00" d=" M 536.89 697.21 C 531.16 692.64 534.48 681.04 542.11 680.73 C 542.89 683.27 544.82 685.11 546.98 686.55 C 548.43 692.08 543.02 700.42 536.89 697.21 Z" />
<path fill="#d6d6d6" opacity="1.00" d=" M 873.76 707.85 C 877.32 699.85 884.36 692.93 893.08 691.01 C 898.56 689.71 904.61 691.39 908.62 695.36 C 914.04 700.31 916.37 707.77 916.76 714.92 C 917.39 726.13 914.02 737.89 906.27 746.19 C 908.38 737.23 910.11 727.67 907.23 718.67 C 905.20 711.75 900.34 704.74 892.91 703.16 C 886.13 701.68 879.54 704.61 873.76 707.85 Z" />
<path fill="#d6d6d6" opacity="1.00" d=" M 200.44 699.45 C 201.18 697.29 203.55 696.80 205.39 695.97 C 195.89 725.58 186.33 755.16 176.57 784.68 C 175.42 788.23 173.97 792.42 176.08 795.92 C 177.13 798.00 179.59 798.30 181.67 798.31 C 179.41 802.13 178.84 807.42 174.66 809.75 C 170.85 811.71 166.66 807.93 167.00 804.00 C 167.23 798.79 169.67 794.05 171.11 789.12 C 179.06 764.46 187.28 739.90 195.11 715.21 C 196.90 709.96 198.09 704.48 200.44 699.45 Z" />
<path fill="#d6d6d6" opacity="1.00" d=" M 848.30 732.34 C 850.38 721.36 854.46 710.41 861.99 701.96 C 858.04 711.12 855.39 720.97 855.48 731.01 C 855.24 742.23 858.09 753.88 865.23 762.74 C 870.81 769.72 879.92 774.10 888.92 772.93 C 897.76 771.95 905.82 767.24 911.96 760.94 C 911.57 762.16 911.24 763.41 910.73 764.60 C 905.62 771.79 899.30 778.58 891.06 782.15 C 884.61 785.03 877.08 786.26 870.27 783.89 C 862.28 781.33 856.07 774.86 852.51 767.42 C 847.05 756.63 846.84 744.10 848.30 732.34 Z" />
<path fill="#d6d6d6" opacity="1.00" d=" M 804.16 707.15 C 808.49 706.11 812.86 705.22 817.19 704.14 C 817.02 707.82 816.31 711.87 813.31 714.36 C 810.62 716.36 807.11 716.56 803.94 717.22 C 803.70 713.86 803.71 710.48 804.16 707.15 Z" />
<path fill="#d6d6d6" opacity="1.00" d=" M 761.38 721.63 C 759.40 716.08 762.81 709.06 768.83 708.00 C 769.68 710.43 771.03 713.78 774.15 713.67 C 779.73 713.23 785.08 711.30 790.56 710.18 C 790.47 736.46 790.59 762.75 790.49 789.03 C 790.55 791.88 790.43 795.25 792.75 797.35 C 794.04 798.84 796.14 798.34 797.89 798.39 C 797.13 798.70 796.38 799.03 795.64 799.37 C 795.15 802.52 794.98 806.11 792.47 808.42 C 790.76 810.49 787.70 810.89 785.32 809.89 C 782.55 808.31 782.73 804.76 782.62 802.02 C 782.75 775.42 782.57 748.83 782.73 722.23 C 777.41 723.31 772.20 724.94 766.83 725.73 C 764.21 726.21 762.23 723.81 761.38 721.63 Z" />
<path fill="#d6d6d6" opacity="1.00" d=" M 973.97 712.99 C 981.64 711.29 989.25 709.17 997.00 707.83 C 1001.19 707.15 1004.31 711.41 1004.59 715.20 C 1005.36 725.05 1004.14 735.00 1005.13 744.84 C 1005.51 748.03 1008.68 749.73 1011.67 749.17 C 1008.80 752.23 1009.38 757.25 1005.92 759.88 C 1004.18 761.48 1001.49 761.51 999.42 760.63 C 997.23 759.23 996.98 756.38 996.88 754.04 C 996.64 745.37 997.17 736.69 996.74 728.03 C 996.47 724.39 994.24 719.71 990.00 719.89 C 984.49 720.11 979.27 722.18 973.86 723.06 C 973.62 719.70 973.61 716.33 973.97 712.99 Z" />
<path fill="#d6d6d6" opacity="1.00" d=" M 213.39 712.65 C 222.46 734.81 230.61 757.36 239.34 779.66 C 240.11 781.97 242.25 783.28 244.15 784.60 C 243.48 788.44 242.89 793.13 239.06 795.18 C 236.33 796.94 232.58 795.38 231.62 792.35 C 226.94 781.25 223.44 769.66 218.28 758.76 C 219.76 755.42 220.58 751.40 218.95 747.97 C 217.97 745.75 215.33 745.35 213.34 744.50 C 211.50 739.86 209.88 735.11 207.30 730.82 C 209.38 724.77 211.22 718.66 213.39 712.65 Z" />
<path fill="#d6d6d6" opacity="1.00" d=" M 684.75 733.82 C 685.92 730.63 687.15 725.94 691.42 726.18 C 682.80 752.92 674.01 779.62 665.31 806.34 C 663.84 811.22 661.68 815.95 660.95 821.03 C 660.41 824.94 663.45 829.15 667.70 828.41 C 666.15 831.60 665.18 835.12 663.14 838.06 C 661.18 840.73 656.47 841.41 654.53 838.37 C 652.27 835.67 652.76 831.91 653.78 828.82 C 658.14 815.56 662.58 802.34 666.94 789.08 C 672.48 770.54 679.25 752.38 684.75 733.82 Z" />
<path fill="#d6d6d6" opacity="1.00" d=" M 609.23 750.29 C 609.77 746.32 613.14 743.65 616.87 742.81 C 616.76 762.25 616.91 781.70 616.80 801.15 C 613.87 795.90 611.13 790.55 608.21 785.31 C 609.84 773.71 607.84 761.90 609.23 750.29 Z" />
<path fill="#d6d6d6" opacity="1.00" d=" M 699.42 742.67 C 708.56 764.79 716.64 787.35 725.38 809.64 C 726.14 811.87 728.16 813.21 729.99 814.54 C 730.07 818.55 728.77 823.05 725.08 825.18 C 722.69 826.76 719.03 825.72 717.96 823.04 C 713.16 811.71 709.61 799.83 704.30 788.71 C 705.86 785.41 706.61 781.37 705.00 777.95 C 704.01 775.78 701.44 775.37 699.47 774.56 C 697.27 770.05 696.18 765.03 693.32 760.85 C 695.40 754.80 697.27 748.69 699.42 742.67 Z" />
<path fill="#d6d6d6" opacity="1.00" d=" M 565.79 763.95 C 565.39 758.92 568.48 753.33 573.86 752.77 C 573.77 779.85 573.89 806.92 573.80 834.00 C 573.83 837.22 573.58 840.51 574.28 843.70 C 574.68 846.15 577.16 847.25 578.96 848.58 C 579.23 853.28 577.14 859.14 571.97 860.09 C 567.58 860.81 565.57 855.63 565.79 852.06 C 565.79 822.69 565.81 793.32 565.79 763.95 Z" />
<path fill="#d6d6d6" opacity="1.00" d=" M 199.94 762.03 C 201.02 759.14 204.07 757.97 206.64 756.76 C 207.36 758.49 207.91 760.50 209.48 761.69 C 210.92 762.23 212.48 762.28 213.99 762.51 C 211.66 765.03 211.23 768.59 209.56 771.49 C 207.86 774.39 203.43 775.36 200.75 773.31 C 198.02 770.28 198.46 765.55 199.94 762.03 Z" />
<path fill="#d6d6d6" opacity="1.00" d=" M 524.70 765.69 C 526.01 763.88 528.36 763.54 530.32 762.83 C 530.41 792.20 530.25 821.57 530.39 850.94 C 530.03 855.26 533.77 858.29 537.95 857.45 C 537.17 857.70 536.40 857.97 535.64 858.25 C 535.10 861.41 534.90 865.00 532.42 867.35 C 530.32 869.94 525.45 870.33 523.60 867.29 C 522.10 864.83 522.15 861.82 522.02 859.05 C 522.06 831.68 522.06 804.32 522.02 776.96 C 522.12 773.10 522.30 768.90 524.70 765.69 Z" />
<path fill="#d6d6d6" opacity="1.00" d=" M 587.06 778.59 C 597.73 797.23 607.33 816.46 617.74 835.24 C 618.65 837.27 620.68 838.10 622.77 838.37 C 621.37 842.61 620.56 848.24 615.83 850.05 C 612.70 851.19 610.22 848.57 608.95 846.04 C 604.79 838.18 600.54 830.37 596.41 822.50 C 593.11 816.99 590.81 810.88 586.84 805.78 C 586.95 796.72 586.58 787.65 587.06 778.59 Z" />
<path fill="#d6d6d6" opacity="1.00" d=" M 421.84 795.94 C 421.60 791.20 424.93 786.19 429.88 785.76 C 429.79 814.19 429.93 842.62 429.82 871.05 C 429.89 873.41 429.80 875.91 430.85 878.11 C 431.90 879.58 433.54 880.48 434.98 881.54 C 434.91 884.37 434.61 887.39 432.79 889.72 C 431.14 892.21 427.51 894.11 424.72 892.32 C 422.03 890.50 421.81 886.97 421.78 884.05 C 421.88 854.68 421.78 825.30 421.84 795.94 Z" />
<path fill="#d6d6d6" opacity="1.00" d=" M 686.07 801.95 C 682.75 796.47 686.09 787.80 692.79 786.92 C 693.50 790.15 695.96 793.28 699.64 792.26 C 697.89 794.94 697.40 798.17 696.06 801.04 C 694.21 804.69 688.35 805.74 686.07 801.95 Z" />
<path fill="#d6d6d6" opacity="1.00" d=" M 478.20 801.72 C 481.02 797.76 483.84 793.81 486.72 789.90 C 486.80 813.61 486.59 837.33 486.82 861.03 C 486.53 864.56 489.15 866.99 491.98 868.54 C 491.82 872.93 490.42 878.38 485.66 879.79 C 482.76 880.90 479.89 878.44 479.23 875.72 C 478.42 872.20 478.75 868.56 478.72 865.00 C 478.78 849.33 478.74 833.66 478.74 818.00 C 478.75 812.57 479.02 807.11 478.20 801.72 Z" />
<path fill="#d6d6d6" opacity="1.00" d=" M 443.10 799.96 C 447.82 804.21 452.56 808.46 457.15 812.86 C 458.98 814.47 460.75 816.36 463.12 817.19 C 464.75 817.13 466.30 816.56 467.83 816.03 C 465.73 820.02 463.32 823.92 460.21 827.22 C 458.43 829.23 455.12 829.92 452.95 828.12 C 449.27 825.45 446.33 821.95 443.00 818.89 C 443.25 812.58 443.11 806.27 443.10 799.96 Z" />
<path fill="#d6d6d6" opacity="1.00" d=" M 355.16 809.11 C 362.22 807.67 369.19 805.78 376.26 804.38 C 380.43 803.27 384.22 806.65 385.48 810.40 C 387.96 817.85 385.24 827.00 378.57 831.38 C 378.24 825.94 377.99 818.24 371.55 816.50 C 365.95 816.11 360.57 818.35 355.07 819.14 C 355.15 815.79 355.14 812.45 355.16 809.11 Z" />
<path fill="#d6d6d6" opacity="1.00" d=" M 336.22 808.30 C 337.50 806.34 339.89 805.76 341.91 804.90 C 341.80 834.29 341.88 863.68 341.86 893.07 C 341.53 897.04 343.81 902.36 348.63 901.24 C 346.42 904.65 346.39 909.35 342.97 911.95 C 341.13 913.72 337.74 914.01 336.03 911.93 C 333.94 909.88 333.85 906.77 333.79 904.04 C 333.85 877.03 333.84 850.02 333.80 823.00 C 333.89 818.07 333.04 812.51 336.22 808.30 Z" />
<path fill="#d6d6d6" opacity="1.00" d=" M 286.85 824.89 C 292.17 823.22 297.72 822.43 303.11 821.02 C 303.23 823.87 303.41 827.04 301.38 829.35 C 299.44 832.28 295.80 833.02 292.61 833.72 C 286.94 834.86 281.32 836.19 275.71 837.59 C 277.67 832.23 281.18 826.79 286.85 824.89 Z" />
<path fill="#d6d6d6" opacity="1.00" d=" M 256.51 843.56 C 258.39 838.53 260.67 833.32 265.09 830.00 C 259.89 842.36 261.92 855.98 261.53 869.00 C 261.94 880.03 259.93 891.75 264.84 902.09 C 268.00 909.23 274.69 915.78 282.99 915.48 C 289.73 915.06 296.20 912.88 302.79 911.56 C 304.03 915.87 302.12 921.19 297.68 922.75 C 292.93 924.31 287.95 925.05 283.11 926.28 C 277.28 927.61 270.49 928.42 265.36 924.69 C 257.31 918.92 253.55 908.62 253.64 898.98 C 253.70 885.66 253.66 872.34 253.65 859.02 C 253.61 853.73 254.65 848.49 256.51 843.56 Z" />
<path fill="#d6d6d6" opacity="1.00" d=" M 209.61 842.88 C 214.04 841.75 218.51 840.83 222.97 839.86 C 222.72 843.31 222.64 847.33 219.75 849.75 C 216.83 851.96 213.00 852.19 209.55 853.00 C 209.57 849.62 209.59 846.25 209.61 842.88 Z" />
<path fill="#d6d6d6" opacity="1.00" d=" M 167.93 858.06 C 165.32 852.58 168.55 844.74 174.89 843.86 C 175.96 846.31 177.63 849.72 180.87 849.12 C 186.19 848.39 191.34 846.73 196.64 845.85 C 196.70 872.92 196.56 899.99 196.71 927.05 C 196.41 930.64 198.85 933.39 201.98 934.73 C 201.38 938.49 200.06 942.10 198.04 945.34 C 195.77 945.44 192.96 946.79 191.10 944.91 C 188.93 943.32 188.83 940.47 188.77 938.04 C 188.75 911.35 188.85 884.65 188.73 857.96 C 183.10 858.59 177.73 860.74 172.06 861.03 C 170.08 861.31 168.78 859.57 167.93 858.06 Z" />
<path fill="#d6d6d6" opacity="1.00" d=" M 355.16 854.17 C 362.91 852.71 370.48 850.38 378.28 849.19 C 382.84 848.18 386.17 852.84 386.24 856.95 C 386.68 865.63 386.18 874.33 386.38 883.02 C 386.42 885.30 386.80 887.87 388.67 889.45 C 390.06 890.78 392.14 890.32 393.89 890.37 C 393.14 890.67 392.39 890.99 391.64 891.31 C 391.15 894.71 390.84 898.60 387.94 900.92 C 385.10 903.81 379.08 902.44 378.76 898.05 C 377.40 887.78 379.11 877.33 377.83 867.04 C 377.30 863.93 374.39 860.75 371.03 861.16 C 365.61 861.60 360.49 863.71 355.06 864.12 C 355.14 860.80 355.15 857.48 355.16 854.17 Z" />
<path fill="#d6d6d6" opacity="1.00" d=" M 275.11 865.41 C 275.47 865.71 276.18 866.29 276.53 866.59 C 278.54 868.11 279.95 871.31 282.92 870.77 C 290.02 869.69 296.96 867.67 303.97 866.11 C 302.96 870.32 302.53 876.16 297.65 877.70 C 290.17 879.75 282.52 881.20 274.96 882.96 C 274.58 877.11 274.38 871.23 275.11 865.41 Z" />
</g>
<g id="#030303ff">
<path fill="#030303" opacity="1.00" d=" M 924.75 809.82 C 927.58 807.98 931.77 808.42 933.67 811.39 C 936.33 814.64 935.38 819.02 936.07 822.85 C 936.62 825.19 940.13 825.46 940.39 827.95 C 939.97 829.12 939.50 830.28 938.97 831.41 C 936.99 830.96 935.17 830.12 933.46 829.08 C 931.40 832.12 928.05 835.00 924.10 834.14 C 919.91 832.84 918.28 827.99 918.42 824.00 C 918.12 818.67 920.08 812.78 924.75 809.82 M 925.44 815.28 C 921.96 818.32 921.17 825.48 925.16 828.32 C 929.67 829.53 932.07 823.68 931.54 820.00 C 932.25 816.61 928.66 812.50 925.44 815.28 Z" />
<path fill="#030303" opacity="1.00" d=" M 851.35 815.07 C 851.09 812.97 852.91 810.67 855.11 811.85 C 855.83 816.71 855.43 821.68 855.34 826.59 C 858.12 824.27 862.49 822.61 865.49 825.53 C 869.97 829.78 868.25 836.56 868.62 842.06 C 868.77 844.33 868.55 848.48 865.25 847.87 C 862.89 842.80 865.70 836.65 863.66 831.44 C 862.47 828.79 858.71 829.20 857.30 831.40 C 854.30 835.27 855.84 840.51 855.50 845.02 C 855.42 847.08 855.93 850.75 852.96 850.85 C 851.45 851.23 851.40 848.93 851.34 847.96 C 851.32 837.00 851.30 826.03 851.35 815.07 Z" />
<path fill="#030303" opacity="1.00" d=" M 878.90 818.28 C 878.48 816.08 878.28 813.03 881.03 812.32 C 884.47 813.63 882.36 818.94 878.90 818.28 Z" />
<path fill="#030303" opacity="1.00" d=" M 893.26 823.22 C 894.32 819.14 897.38 814.73 901.99 814.59 C 905.81 814.62 908.25 818.48 908.37 821.99 C 908.64 827.05 908.49 832.14 908.34 837.21 L 908.30 838.15 C 907.10 838.40 905.90 838.66 904.72 838.94 C 903.37 832.63 905.77 825.77 902.72 819.85 C 900.66 820.43 898.09 821.00 897.48 823.41 C 896.23 828.71 897.67 834.27 896.69 839.63 C 896.22 841.32 894.31 841.16 892.97 841.55 C 892.84 835.45 892.26 829.26 893.26 823.22 Z" />
<path fill="#030303" opacity="1.00" d=" M 834.52 821.49 C 836.26 820.03 838.49 819.45 840.70 819.13 C 841.09 820.94 841.95 823.77 839.51 824.52 C 831.37 827.40 827.78 838.45 832.36 845.64 C 834.20 848.66 837.95 848.56 841.05 848.56 C 841.11 850.33 841.68 852.83 839.64 853.74 C 834.64 855.41 829.32 851.90 827.60 847.20 C 824.14 838.39 827.03 827.35 834.52 821.49 Z" />
<path fill="#030303" opacity="1.00" d=" M 878.59 822.97 C 878.39 821.22 879.63 818.90 881.65 819.36 C 883.34 820.68 882.60 823.09 882.82 824.95 C 882.63 830.83 883.13 836.75 882.57 842.61 C 882.43 844.68 880.29 844.38 878.81 844.65 C 878.34 837.43 878.60 830.19 878.59 822.97 Z" />
<path fill="#030303" opacity="1.00" d=" M 804.02 842.10 C 807.91 840.73 812.03 839.83 816.17 839.68 C 815.88 841.51 816.53 844.57 814.03 845.05 C 810.37 846.18 806.59 846.93 802.79 847.30 C 802.84 845.59 802.06 843.00 804.02 842.10 Z" />
<path fill="#030303" opacity="1.00" d=" M 775.47 853.21 C 776.07 848.01 779.36 842.15 785.01 841.42 C 789.62 841.06 792.56 845.93 792.53 850.06 C 792.66 856.68 792.65 863.31 792.54 869.93 C 792.29 875.41 788.89 881.76 782.99 882.58 C 778.00 882.91 775.05 877.48 775.36 873.08 C 775.20 871.23 776.76 869.02 778.80 869.84 C 779.84 872.46 779.78 877.55 783.87 876.91 C 789.01 875.37 788.49 869.03 788.36 864.78 C 785.76 866.14 782.61 868.01 779.72 866.27 C 775.18 863.70 775.02 857.78 775.47 853.21 M 783.39 847.32 C 779.41 849.13 779.21 854.19 779.73 857.95 C 779.96 860.26 782.59 862.22 784.80 860.97 C 788.34 859.08 788.74 854.55 788.30 851.00 C 788.25 848.63 785.81 846.06 783.39 847.32 Z" />
<path fill="#030303" opacity="1.00" d=" M 737.29 845.26 C 739.58 844.44 740.14 847.71 739.29 849.23 C 738.82 850.67 737.08 850.56 735.93 851.00 C 735.57 849.05 734.91 846.20 737.29 845.26 Z" />
<path fill="#030303" opacity="1.00" d=" M 749.92 856.96 C 750.76 852.48 753.92 847.31 759.01 847.26 C 762.90 847.36 765.26 851.42 765.31 854.97 C 765.44 859.62 765.54 864.30 765.26 868.96 C 765.18 870.83 762.87 872.51 761.45 870.76 C 760.64 865.60 761.66 860.33 760.92 855.18 C 760.48 852.85 757.38 852.14 755.87 853.87 C 753.55 855.90 753.88 859.21 753.85 861.99 C 753.78 865.93 754.32 870.00 753.10 873.84 C 752.30 873.83 750.68 873.83 749.88 873.82 C 749.64 868.21 749.43 862.56 749.92 856.96 Z" />
<path fill="#030303" opacity="1.00" d=" M 722.31 849.05 C 725.45 846.43 726.71 852.73 723.79 853.96 C 720.89 854.95 720.57 850.40 722.31 849.05 Z" />
<path fill="#030303" opacity="1.00" d=" M 737.20 852.14 C 739.20 851.17 739.68 853.57 739.63 855.07 C 739.59 861.63 739.77 868.21 739.54 874.77 C 739.64 876.65 736.80 878.56 735.70 876.42 C 735.16 870.28 735.65 864.10 735.45 857.95 C 735.57 855.96 735.03 853.22 737.20 852.14 Z" />
<path fill="#030303" opacity="1.00" d=" M 721.47 857.42 C 721.61 855.39 723.71 855.67 725.19 855.44 C 725.70 864.95 725.35 874.49 725.41 884.01 C 725.36 889.24 721.73 895.87 715.78 895.43 C 716.02 893.91 715.16 891.73 716.74 890.76 C 718.74 889.35 721.30 887.87 721.19 885.05 C 721.56 875.84 720.92 866.60 721.47 857.42 Z" />
<path fill="#030303" opacity="1.00" d=" M 690.02 871.94 C 690.44 867.06 693.58 861.25 699.00 860.91 C 703.20 860.81 705.72 865.28 705.61 869.06 C 705.51 874.24 706.14 879.53 705.02 884.65 C 704.23 884.76 702.63 884.98 701.83 885.10 C 700.91 879.50 702.15 873.74 701.01 868.21 C 699.27 864.70 694.86 867.40 694.42 870.36 C 693.57 875.48 694.64 880.74 693.86 885.88 C 693.60 887.55 691.07 888.59 690.20 886.82 C 689.66 881.89 689.91 876.89 690.02 871.94 Z" />
<path fill="#030303" opacity="1.00" d=" M 922.55 865.53 C 925.13 862.29 929.51 859.99 933.69 861.23 C 938.19 862.67 940.39 867.64 940.59 872.06 C 940.75 876.71 940.60 881.37 940.66 886.04 C 940.92 893.75 937.87 901.91 931.63 906.69 C 929.79 907.84 927.61 909.30 925.36 908.83 C 923.42 907.49 923.65 904.55 924.79 902.78 C 926.38 901.24 928.74 900.87 930.41 899.40 C 933.66 896.58 934.91 892.19 935.11 888.03 C 932.66 889.61 930.08 891.52 927.01 891.26 C 923.07 891.14 920.01 887.85 918.91 884.28 C 916.90 877.95 918.48 870.71 922.55 865.53 M 927.48 869.45 C 923.19 872.51 921.94 880.22 926.69 883.40 C 931.89 884.85 935.48 878.45 934.96 873.96 C 935.13 870.21 930.76 866.75 927.48 869.45 Z" />
<path fill="#030303" opacity="1.00" d=" M 643.75 866.95 C 643.55 865.22 644.68 863.03 646.66 863.28 C 648.36 864.20 647.76 866.34 647.94 867.94 C 647.84 876.95 648.05 885.97 647.84 894.98 C 648.08 896.62 645.94 899.37 644.42 897.72 C 640.60 891.74 637.92 885.09 634.04 879.14 C 633.49 885.95 634.34 892.83 633.61 899.61 C 633.31 901.49 631.36 901.18 629.95 901.37 C 629.45 891.58 629.87 881.77 629.70 871.97 C 629.70 869.93 629.52 867.03 632.04 866.41 C 633.51 866.58 633.89 868.31 634.65 869.35 C 637.66 874.95 640.58 880.61 643.72 886.15 C 643.79 879.74 643.64 873.34 643.75 866.95 Z" />
<path fill="#030303" opacity="1.00" d=" M 659.93 873.97 C 661.53 870.95 664.44 868.28 668.01 868.19 C 670.83 868.01 673.10 870.26 674.18 872.67 C 675.61 875.77 674.82 879.30 675.57 882.56 C 676.39 884.31 678.43 885.02 679.69 886.44 C 680.04 888.25 679.11 890.61 677.01 890.70 C 675.58 890.17 674.36 889.24 673.14 888.38 C 671.09 890.94 668.56 893.77 664.99 893.72 C 661.23 893.80 658.76 890.07 658.18 886.74 C 657.59 882.45 657.73 877.81 659.93 873.97 M 665.43 874.37 C 661.95 876.52 661.68 881.17 662.32 884.81 C 662.69 887.11 665.39 888.98 667.55 887.60 C 671.25 885.28 671.59 880.22 670.58 876.39 C 669.98 874.22 667.35 873.10 665.43 874.37 Z" />
<path fill="#030303" opacity="1.00" d=" M 894.34 869.13 C 896.07 868.49 897.95 868.81 899.76 868.80 C 902.54 871.10 904.60 874.35 904.54 878.07 C 904.66 888.69 904.59 899.32 904.58 909.95 C 904.79 912.26 903.17 915.33 900.46 914.71 C 899.22 913.90 898.89 912.43 899.00 911.07 C 898.96 901.03 899.04 890.98 898.99 880.95 C 898.92 879.41 898.75 877.24 897.06 876.68 C 895.50 876.21 893.93 875.82 892.38 875.39 C 892.52 873.22 892.16 870.45 894.34 869.13 Z" />
<path fill="#030303" opacity="1.00" d=" M 593.40 875.44 C 595.04 874.39 596.33 876.43 596.03 877.96 C 596.11 885.00 596.13 892.04 596.01 899.09 C 595.71 904.62 592.07 911.08 586.02 911.53 C 581.17 911.58 578.64 906.27 578.79 902.04 C 578.80 895.02 578.62 888.00 578.88 881.00 C 578.69 879.02 581.70 876.81 582.73 879.25 C 583.45 886.80 582.67 894.43 583.08 902.01 C 583.12 903.97 584.77 906.20 586.92 905.90 C 590.06 905.41 591.83 902.01 591.88 899.07 C 592.06 892.35 591.80 885.63 591.95 878.92 C 591.89 877.60 592.22 876.18 593.40 875.44 Z" />
<path fill="#030303" opacity="1.00" d=" M 864.17 877.17 C 866.83 874.87 870.96 873.94 874.07 875.93 C 877.36 878.06 878.80 882.13 878.81 885.92 C 878.92 891.67 878.76 897.42 878.87 903.18 C 879.42 909.92 877.08 917.42 871.11 921.16 C 867.95 923.26 863.61 922.61 861.01 919.93 C 859.07 917.37 857.94 914.25 858.00 911.03 C 857.93 904.66 857.98 898.29 857.97 891.93 C 857.88 886.45 859.90 880.74 864.17 877.17 M 866.52 883.46 C 864.25 885.22 863.51 888.22 863.62 890.98 C 863.68 897.32 863.53 903.68 863.69 910.03 C 863.67 912.31 865.33 915.09 867.92 914.82 C 871.08 914.35 872.95 911.00 873.12 908.04 C 873.34 902.02 873.12 895.99 873.22 889.97 C 873.15 887.69 873.45 884.96 871.53 883.32 C 870.12 882.02 867.87 882.21 866.52 883.46 Z" />
<path fill="#030303" opacity="1.00" d=" M 558.62 883.60 C 561.52 882.01 564.89 881.73 568.08 881.08 C 568.70 882.82 569.34 885.21 567.44 886.46 C 564.94 887.44 562.17 887.55 559.74 888.70 C 557.39 890.30 556.66 893.29 556.69 895.98 C 556.67 899.98 556.51 903.99 556.82 907.99 C 556.89 909.99 558.49 912.66 560.83 911.96 C 563.46 911.54 566.08 910.81 568.77 911.19 C 568.56 912.72 569.00 914.66 567.64 915.81 C 564.93 916.94 561.98 917.57 559.05 917.74 C 555.26 917.43 553.04 913.44 552.70 910.01 C 552.39 905.68 552.61 901.34 552.55 897.01 C 552.39 891.96 554.30 886.49 558.62 883.60 Z" />
<path fill="#030303" opacity="1.00" d=" M 822.92 889.94 C 825.21 886.52 828.83 883.55 833.10 883.35 C 836.96 883.15 840.20 886.25 841.37 889.74 C 843.38 895.79 842.05 902.55 839.01 908.02 C 836.38 912.68 833.55 917.24 831.00 921.95 C 834.99 921.18 838.89 919.73 842.97 919.54 C 845.77 921.48 844.55 926.92 841.06 927.32 C 835.00 928.72 828.95 930.20 822.84 931.34 C 821.42 929.00 821.36 926.21 823.08 924.01 C 826.89 917.48 830.71 910.94 834.51 904.40 C 836.46 901.10 837.62 896.75 835.81 893.16 C 834.41 890.45 830.56 890.58 828.68 892.67 C 827.00 893.84 825.78 896.86 823.33 895.84 C 821.53 894.37 821.70 891.70 822.92 889.94 Z" />
<path fill="#030303" opacity="1.00" d=" M 608.46 886.56 C 612.17 885.73 615.95 884.13 619.80 884.87 C 619.41 886.51 619.94 889.21 617.82 889.82 C 614.21 890.95 610.46 891.59 606.75 892.29 C 605.96 890.30 605.70 887.01 608.46 886.56 Z" />
<path fill="#030303" opacity="1.00" d=" M 536.49 888.59 C 538.46 887.51 541.95 888.05 541.44 890.98 C 541.18 894.66 536.16 893.05 534.92 895.97 C 534.26 897.12 534.00 898.49 534.17 899.81 C 534.33 903.76 539.81 902.62 541.16 905.89 C 544.06 911.46 542.21 919.50 536.58 922.65 C 534.72 923.67 530.84 924.00 531.08 920.94 C 530.83 918.60 532.93 917.99 534.76 917.57 C 538.19 916.94 539.35 912.20 537.53 909.56 C 535.28 908.17 532.07 907.78 531.02 905.01 C 528.46 899.31 530.62 891.31 536.49 888.59 Z" />
<path fill="#030303" opacity="1.00" d=" M 559.09 897.97 C 561.99 896.84 565.12 896.45 568.16 895.82 C 568.67 897.59 569.35 900.20 567.31 901.27 C 564.30 902.44 561.05 902.88 557.86 903.20 C 557.84 901.48 557.11 898.89 559.09 897.97 Z" />
<path fill="#030303" opacity="1.00" d=" M 759.62 900.48 C 760.93 898.43 763.93 900.01 763.70 902.21 C 763.88 915.74 763.86 929.29 763.71 942.83 C 764.12 945.85 759.14 948.59 758.30 944.77 C 757.80 934.07 758.41 923.33 758.00 912.63 C 754.38 916.35 752.51 921.87 747.99 924.57 C 744.51 922.51 741.93 919.30 738.81 916.79 C 738.58 927.17 738.83 937.56 738.70 947.95 C 738.93 950.35 736.79 953.31 734.18 952.19 C 733.11 951.04 733.08 949.47 733.07 948.04 C 733.10 935.36 733.03 922.67 733.11 910.00 C 732.94 907.81 734.40 904.93 736.97 905.38 C 741.05 908.47 744.55 912.26 748.38 915.66 C 752.32 910.73 755.67 905.38 759.62 900.48 Z" />
<path fill="#030303" opacity="1.00" d=" M 701.74 916.75 C 705.47 910.94 712.95 910.05 719.24 909.60 C 719.31 911.82 720.04 914.44 718.27 916.26 C 714.91 918.00 710.90 917.85 707.52 919.55 C 704.40 921.53 703.29 925.42 703.30 928.93 C 703.25 934.26 703.12 939.61 703.39 944.94 C 703.45 947.44 704.59 950.24 707.16 951.11 C 710.98 951.30 714.61 949.05 718.41 949.57 C 720.61 951.51 719.12 954.42 718.17 956.58 C 713.65 957.40 709.23 959.02 704.58 958.78 C 699.83 955.92 697.31 950.49 697.71 945.02 C 698.26 935.59 695.69 924.94 701.74 916.75 Z" />
<path fill="#030303" opacity="1.00" d=" M 663.44 926.40 C 666.60 920.03 674.36 918.71 680.75 918.21 C 682.58 920.10 682.37 923.59 680.17 925.10 C 676.06 927.11 670.20 926.14 667.55 930.56 C 664.42 935.79 666.17 942.22 665.70 947.99 C 665.82 951.93 664.84 957.76 669.47 959.54 C 672.34 959.74 676.04 959.40 677.94 956.99 C 679.21 953.21 678.42 949.08 678.26 945.18 C 675.09 945.23 671.96 945.78 668.81 945.92 C 668.59 943.65 667.79 940.65 670.10 939.16 C 672.47 937.96 675.17 937.43 677.82 937.38 C 681.57 937.61 683.88 941.52 684.09 944.97 C 684.56 951.44 684.88 958.84 680.04 963.89 C 676.31 966.77 670.74 968.20 666.23 966.52 C 661.25 964.03 659.78 958.19 660.10 953.06 C 660.58 944.15 658.40 934.41 663.44 926.40 Z" />
<path fill="#030303" opacity="1.00" d=" M 643.35 930.32 C 648.44 929.12 647.08 938.87 642.46 937.69 C 639.98 935.92 640.64 931.50 643.35 930.32 Z" />
<path fill="#030303" opacity="1.00" d=" M 709.79 931.05 C 712.50 930.50 715.19 929.55 717.99 929.55 C 720.98 931.15 719.58 936.66 716.27 937.07 C 712.59 938.00 708.87 939.14 705.03 938.86 C 704.78 937.05 704.03 935.02 705.21 933.38 C 706.06 931.66 708.16 931.54 709.79 931.05 Z" />
<path fill="#030303" opacity="1.00" d=" M 642.87 939.85 C 644.37 938.24 646.81 940.32 646.51 942.20 C 646.71 951.42 646.60 960.66 646.55 969.89 C 646.48 972.58 643.74 974.28 641.30 973.15 C 641.25 972.62 641.16 971.56 641.12 971.02 C 640.81 962.66 641.06 954.28 640.96 945.92 C 641.03 943.81 640.80 941.11 642.87 939.85 Z" />
</g>
</svg>
