<?xml version="1.0" encoding="UTF-8" ?>
<!DOCTYPE svg PUBLIC "-//W3C//DTD SVG 1.1//EN" "http://www.w3.org/Graphics/SVG/1.1/DTD/svg11.dtd">
<svg width="1250pt" height="1250pt" viewBox="0 0 1250 1250" version="1.1" xmlns="http://www.w3.org/2000/svg">
<g id="#49494aff">
<path fill="#49494a" opacity="1.00" d=" M 880.38 41.39 C 882.80 39.22 886.68 38.64 889.41 40.59 C 893.69 43.49 894.79 49.17 894.61 54.01 C 894.10 62.29 892.36 70.85 894.91 78.97 C 896.09 82.98 899.20 86.43 903.27 87.61 C 909.97 89.68 917.09 88.61 924.00 88.86 C 933.75 88.98 944.46 89.22 952.58 95.40 C 960.50 101.41 963.61 111.52 964.93 120.98 C 966.38 132.42 965.71 143.96 965.59 155.45 C 996.36 152.70 1029.08 158.10 1054.56 176.46 C 1077.48 192.55 1092.33 218.10 1098.93 244.98 C 1101.92 255.71 1102.70 266.86 1103.80 277.90 C 1104.44 285.67 1103.96 293.50 1104.78 301.26 C 1110.78 291.66 1108.84 279.54 1113.39 269.42 C 1115.75 264.24 1121.58 262.02 1126.95 261.86 C 1136.50 261.48 1145.97 263.53 1155.17 265.91 C 1159.32 267.13 1164.18 270.14 1164.25 274.98 C 1163.74 279.77 1158.11 281.38 1154.03 280.81 C 1146.66 279.90 1138.88 276.43 1131.60 279.56 C 1126.00 282.48 1125.76 289.57 1125.02 295.07 C 1123.96 304.26 1123.14 315.07 1115.15 321.15 C 1112.43 323.68 1108.18 323.75 1105.53 326.06 C 1105.36 353.71 1106.22 381.35 1106.27 409.00 C 1106.67 464.01 1107.62 519.00 1107.78 574.00 C 1108.59 594.00 1108.32 614.02 1108.51 634.03 C 1108.81 638.58 1106.09 643.04 1102.03 645.03 C 1095.24 648.54 1086.01 648.04 1080.32 642.68 C 1077.34 640.00 1076.62 635.83 1076.73 632.01 C 1076.35 574.67 1075.39 517.34 1075.23 459.99 C 1074.37 433.01 1074.71 406.00 1074.28 379.01 C 1073.59 347.00 1073.57 314.98 1073.12 282.97 C 1072.00 265.23 1068.64 247.34 1060.68 231.32 C 1054.52 218.62 1044.73 207.59 1032.44 200.55 C 1017.23 191.72 999.35 188.96 981.99 188.71 C 964.98 188.61 948.02 190.60 931.28 193.47 C 907.86 197.44 884.61 202.35 861.22 206.49 C 727.29 230.77 593.40 255.28 459.48 279.64 C 454.57 280.82 448.73 279.57 445.88 275.08 C 440.42 266.50 444.19 253.79 453.02 248.98 C 456.94 246.74 461.58 246.56 465.91 245.64 C 510.61 237.28 555.42 229.49 600.12 221.11 C 599.30 209.77 596.23 197.48 587.08 189.94 C 578.80 182.86 567.48 181.42 557.00 180.95 C 548.21 180.26 538.82 181.53 530.69 177.38 C 525.15 174.63 522.30 168.66 521.11 162.87 C 518.97 152.35 519.64 141.53 520.59 130.92 C 521.21 124.23 521.74 116.77 526.77 111.74 C 529.48 108.58 534.87 108.11 537.87 111.10 C 541.30 114.41 542.08 119.49 541.83 124.05 C 541.36 131.44 539.97 138.94 541.55 146.30 C 542.37 150.17 544.25 154.21 547.96 156.06 C 554.43 159.46 561.97 158.35 569.00 158.52 C 579.10 158.42 590.07 158.41 598.82 164.21 C 606.69 169.54 610.24 178.99 611.80 187.99 C 613.39 198.12 613.23 208.41 613.00 218.63 C 656.67 211.20 700.16 202.71 743.78 194.98 C 789.37 186.46 835.01 178.26 880.62 169.83 C 904.82 165.62 928.94 160.98 953.18 157.03 C 952.85 146.54 951.35 135.50 945.45 126.56 C 940.17 118.58 930.99 114.05 921.75 112.55 C 910.27 110.30 898.29 112.44 886.95 109.28 C 880.21 107.53 875.61 101.35 874.21 94.75 C 871.35 82.53 872.52 69.83 873.70 57.47 C 874.23 51.65 875.69 45.31 880.38 41.39 Z" />
<path fill="#49494a" opacity="1.00" d=" M 976.64 233.77 C 992.91 231.87 1010.89 234.24 1023.67 245.33 C 1037.86 257.38 1043.92 276.02 1047.04 293.79 C 1052.66 327.93 1049.43 362.64 1048.32 397.00 C 1047.95 411.58 1045.34 426.40 1038.44 439.40 C 1032.14 451.73 1022.06 461.79 1010.59 469.40 C 989.27 482.98 964.27 488.91 939.72 493.48 C 917.66 497.37 895.34 499.78 873.45 504.62 C 855.82 508.42 838.14 513.29 819.95 512.85 C 804.93 512.78 789.16 507.50 779.36 495.64 C 768.75 482.94 765.52 466.05 763.52 450.08 C 761.42 429.39 760.84 407.97 752.38 388.62 C 749.93 383.45 746.75 377.62 740.91 375.82 C 735.18 374.48 730.02 378.41 726.28 382.28 C 717.84 390.68 715.20 402.88 713.57 414.24 C 711.98 427.04 711.92 439.95 711.31 452.81 C 709.82 472.23 705.95 491.99 695.93 508.95 C 687.34 523.76 673.58 535.36 657.74 541.76 C 640.30 548.94 621.49 551.62 602.94 554.17 C 566.20 559.21 530.22 568.74 493.39 573.31 C 478.10 574.96 461.31 573.04 449.10 562.87 C 436.11 552.01 430.62 535.03 427.82 518.89 C 423.51 493.15 425.04 466.97 424.84 441.00 C 425.01 420.03 423.59 398.45 430.24 378.23 C 437.00 357.45 452.36 339.63 471.94 329.91 C 486.00 322.70 501.67 319.60 517.14 317.09 C 541.90 313.27 566.49 308.45 591.14 303.97 C 687.53 286.50 783.87 268.82 880.26 251.34 C 900.29 247.63 920.36 244.08 940.38 240.26 C 952.51 238.37 964.55 235.93 976.64 233.77 M 968.01 262.96 C 830.09 288.05 692.17 313.16 554.26 338.29 C 533.28 342.22 511.80 343.94 491.36 350.35 C 477.87 354.48 465.55 363.61 459.53 376.59 C 451.12 394.08 451.73 414.06 451.75 433.00 C 451.99 455.77 450.59 478.56 451.69 501.32 C 452.49 512.73 454.03 525.17 461.96 534.06 C 469.15 542.20 480.59 544.56 491.00 544.45 C 502.42 544.19 513.77 542.41 524.94 540.10 C 556.08 534.67 587.13 528.77 618.25 523.22 C 634.73 520.01 652.01 516.22 665.30 505.30 C 672.67 499.25 677.99 490.93 680.87 481.87 C 684.09 472.25 684.62 462.03 685.11 451.98 C 685.75 432.85 686.93 413.55 692.05 395.02 C 697.55 378.06 707.05 360.84 723.61 352.58 C 735.30 346.43 750.35 346.01 761.59 353.42 C 770.88 359.32 776.69 369.06 780.75 379.03 C 785.37 393.53 787.25 408.72 788.23 423.85 C 789.42 438.78 789.74 454.51 796.95 468.05 C 800.86 475.75 808.27 481.51 816.74 483.31 C 828.99 486.24 841.38 482.67 853.42 480.40 C 886.61 474.39 919.75 468.11 953.01 462.44 C 964.19 460.37 975.51 458.37 986.15 454.18 C 998.12 449.70 1008.87 441.22 1014.65 429.66 C 1021.58 415.91 1022.46 400.12 1022.51 385.00 C 1022.22 367.32 1020.45 349.69 1020.82 332.00 C 1020.75 315.83 1021.66 299.16 1016.46 283.59 C 1013.71 275.05 1007.81 267.14 999.30 263.74 C 989.37 259.52 978.26 260.72 968.01 262.96 Z" />
<path fill="#49494a" opacity="1.00" d=" M 293.39 289.36 C 310.21 278.92 328.80 271.24 348.16 267.07 C 353.13 265.80 358.92 268.09 361.07 272.89 C 364.88 280.99 361.56 291.32 354.62 296.66 C 350.66 299.82 345.47 300.33 340.77 301.72 C 312.33 309.17 286.45 326.58 269.67 350.82 C 250.99 376.91 242.45 409.04 240.52 440.75 C 240.00 454.83 240.42 468.92 240.19 483.01 C 239.43 501.32 239.64 519.66 239.68 537.99 C 240.05 550.88 239.46 563.78 240.18 576.66 C 240.75 599.79 242.21 622.88 242.54 646.01 C 242.66 650.33 242.36 655.04 239.54 658.56 C 232.91 667.41 217.42 666.82 211.57 657.39 C 208.36 652.54 209.31 646.48 209.14 640.99 C 208.32 615.98 208.40 590.95 208.01 565.94 C 195.58 571.88 184.20 581.28 169.99 582.44 C 157.42 583.57 145.78 577.68 135.08 571.87 C 131.41 569.80 127.04 567.66 125.69 563.34 C 124.61 559.66 125.24 554.56 129.19 552.88 C 133.58 551.79 137.42 554.92 140.96 557.01 C 150.04 562.98 161.11 566.61 172.04 564.95 C 184.81 563.09 195.98 556.26 207.76 551.47 C 207.79 514.98 207.66 478.48 207.84 441.99 C 208.20 438.96 205.14 437.36 203.05 435.88 C 194.13 430.33 183.18 431.18 173.13 430.59 C 167.85 430.33 161.81 429.04 158.77 424.25 C 155.13 418.43 155.23 411.28 154.91 404.65 C 155.21 399.12 155.52 393.56 156.31 388.07 C 156.79 384.62 158.10 381.14 160.70 378.72 C 162.90 376.53 167.00 376.53 169.01 379.00 C 170.81 381.13 171.32 383.97 172.27 386.53 C 170.85 393.43 169.85 400.90 172.24 407.70 C 173.93 412.46 179.35 414.05 183.93 414.11 C 192.59 414.32 201.37 413.62 209.85 415.82 C 212.76 395.98 219.25 376.77 228.39 358.96 C 243.61 330.69 265.99 306.19 293.39 289.36 Z" />
<path fill="#49494a" opacity="1.00" d=" M 958.36 285.46 C 962.50 284.24 967.68 284.98 970.31 288.72 C 974.33 294.39 973.09 302.58 968.72 307.70 C 965.32 311.83 959.53 313.72 954.33 312.62 C 949.99 311.61 947.21 307.30 946.90 303.04 C 945.91 295.46 950.77 287.31 958.36 285.46 Z" />
<path fill="#49494a" opacity="1.00" d=" M 913.34 295.17 C 917.56 294.17 922.70 294.84 925.29 298.70 C 929.64 305.44 927.26 315.24 920.89 319.88 C 918.60 321.62 915.76 322.35 912.99 322.87 C 899.49 325.22 886.04 327.83 872.56 330.30 C 868.46 331.21 863.55 330.75 860.86 327.14 C 856.43 321.40 858.03 312.78 862.62 307.62 C 865.11 304.78 868.75 303.30 872.40 302.64 C 886.04 300.14 899.69 297.65 913.34 295.17 Z" />
<path fill="#49494a" opacity="1.00" d=" M 812.40 313.57 C 816.48 312.59 821.41 313.37 823.96 317.01 C 829.54 325.08 824.88 337.77 815.47 340.48 C 810.90 342.16 804.91 341.16 802.30 336.71 C 797.35 328.12 802.60 315.66 812.40 313.57 Z" />
<path fill="#49494a" opacity="1.00" d=" M 669.35 336.37 C 673.43 335.56 678.16 336.84 680.37 340.60 C 685.07 348.51 680.89 360.11 672.18 363.15 C 667.50 365.11 661.05 364.42 658.32 359.69 C 653.06 350.84 659.01 337.76 669.35 336.37 Z" />
<path fill="#49494a" opacity="1.00" d=" M 609.40 351.39 C 613.75 350.42 619.12 349.89 622.38 353.64 C 627.62 359.80 625.62 369.72 619.89 374.90 C 616.08 378.47 610.60 378.70 605.74 379.68 C 581.19 384.16 556.64 388.66 532.08 393.10 C 527.73 393.81 523.43 395.01 519.00 395.08 C 515.35 395.11 511.95 392.75 510.52 389.43 C 506.56 380.57 512.45 368.83 522.21 367.33 C 551.28 362.06 580.34 356.75 609.40 351.39 Z" />
<path fill="#49494a" opacity="1.00" d=" M 1011.10 549.90 C 1014.23 548.99 1017.45 547.27 1020.80 548.12 C 1024.90 549.88 1027.79 554.49 1027.26 558.99 C 1025.25 576.55 1020.26 593.80 1011.81 609.36 C 1005.32 619.71 997.43 629.15 988.48 637.45 C 974.74 649.71 959.87 661.73 941.90 666.98 C 927.43 671.61 912.03 671.65 897.00 671.14 C 870.65 669.78 845.48 660.79 821.41 650.58 C 814.30 648.00 811.82 639.89 811.49 633.03 C 811.43 627.91 811.57 622.10 815.00 617.98 C 818.09 614.90 822.42 617.84 825.39 619.63 C 845.42 633.08 868.58 643.04 892.97 643.89 C 913.81 644.97 935.57 643.16 954.37 633.38 C 975.34 622.50 992.81 603.95 1000.47 581.41 C 1004.25 570.98 1004.61 559.26 1011.10 549.90 Z" />
<path fill="#49494a" opacity="1.00" d=" M 220.38 683.44 C 228.54 680.51 239.16 684.28 242.05 692.86 C 243.47 698.10 243.36 704.37 239.79 708.78 C 233.04 717.52 217.41 716.91 211.73 707.27 C 206.63 698.88 210.51 686.11 220.38 683.44 Z" />
<path fill="#49494a" opacity="1.00" d=" M 1087.39 864.60 C 1095.65 862.68 1107.33 867.07 1107.05 876.95 C 1107.73 930.29 1106.43 983.67 1108.17 1037.00 C 1107.86 1043.86 1109.49 1051.45 1105.61 1057.62 C 1100.78 1065.24 1089.48 1066.60 1082.22 1061.76 C 1077.98 1059.02 1075.36 1054.05 1075.41 1049.02 C 1075.25 1026.68 1075.12 1004.34 1075.27 982.00 C 1075.52 946.99 1075.28 911.98 1075.48 876.98 C 1075.19 870.40 1081.38 865.56 1087.39 864.60 Z" />
<path fill="#49494a" opacity="1.00" d=" M 1087.41 1082.66 C 1093.81 1081.38 1101.23 1083.40 1105.02 1089.00 C 1109.58 1095.69 1108.58 1105.96 1102.10 1111.10 C 1093.98 1118.01 1079.30 1114.71 1075.87 1104.29 C 1074.62 1098.99 1074.65 1092.68 1078.30 1088.28 C 1080.56 1085.43 1083.86 1083.43 1087.41 1082.66 Z" />
</g>
<g id="#d1f4f4ff">
<path fill="#d1f4f4" opacity="1.00" d=" M 836.84 245.93 C 860.99 241.45 885.33 236.86 909.99 237.20 C 920.19 237.11 930.44 237.87 940.38 240.26 C 920.36 244.08 900.29 247.63 880.26 251.34 C 783.87 268.82 687.53 286.50 591.14 303.97 C 566.49 308.45 541.90 313.27 517.14 317.09 C 501.67 319.60 486.00 322.70 471.94 329.91 C 452.36 339.63 437.00 357.45 430.24 378.23 C 423.59 398.45 425.01 420.03 424.84 441.00 C 425.04 466.97 423.51 493.15 427.82 518.89 C 430.62 535.03 436.11 552.01 449.10 562.87 C 461.31 573.04 478.10 574.96 493.39 573.31 C 530.22 568.74 566.20 559.21 602.94 554.17 C 621.49 551.62 640.30 548.94 657.74 541.76 C 673.58 535.36 687.34 523.76 695.93 508.95 C 705.95 491.99 709.82 472.23 711.31 452.81 C 711.92 439.95 711.98 427.04 713.57 414.24 C 715.20 402.88 717.84 390.68 726.28 382.28 C 730.02 378.41 735.18 374.48 740.91 375.82 C 746.75 377.62 749.93 383.45 752.38 388.62 C 760.84 407.97 761.42 429.39 763.52 450.08 C 765.52 466.05 768.75 482.94 779.36 495.64 C 789.16 507.50 804.93 512.78 819.95 512.85 C 838.14 513.29 855.82 508.42 873.45 504.62 C 895.34 499.78 917.66 497.37 939.72 493.48 C 964.27 488.91 989.27 482.98 1010.59 469.40 C 1010.68 495.97 1011.53 522.52 1011.44 549.09 L 1011.10 549.90 C 1004.61 559.26 1004.25 570.98 1000.47 581.41 C 992.81 603.95 975.34 622.50 954.37 633.38 C 935.57 643.16 913.81 644.97 892.97 643.89 C 868.58 643.04 845.42 633.08 825.39 619.63 C 822.42 617.84 818.09 614.90 815.00 617.98 C 811.57 622.10 811.43 627.91 811.49 633.03 C 811.82 639.89 814.30 648.00 821.41 650.58 C 845.48 660.79 870.65 669.78 897.00 671.14 C 912.03 671.65 927.43 671.61 941.90 666.98 C 959.87 661.73 974.74 649.71 988.48 637.45 C 997.43 629.15 1005.32 619.71 1011.81 609.36 C 1012.74 618.86 1012.09 628.46 1012.38 638.00 C 1012.41 665.35 1012.84 692.69 1013.28 720.02 C 1003.68 715.02 991.94 715.79 982.35 720.39 C 968.50 726.93 959.09 739.82 952.21 753.08 C 946.26 759.41 942.42 767.34 939.47 775.43 C 934.63 788.87 933.31 803.52 935.48 817.63 C 937.20 828.07 941.57 838.32 949.09 845.91 C 954.52 851.65 962.01 855.59 969.97 856.07 C 980.76 856.84 991.49 852.60 999.68 845.70 C 1005.25 841.10 1009.75 835.42 1014.15 829.74 C 1014.02 846.49 1014.16 863.24 1014.24 879.99 C 1014.36 907.60 1010.13 935.41 999.95 961.16 C 997.17 961.06 993.42 959.93 991.57 962.72 C 989.95 964.73 990.64 967.38 990.93 969.71 C 992.54 970.06 994.20 970.38 995.84 970.77 C 989.72 982.77 982.76 994.51 973.64 1004.50 C 973.46 997.33 973.62 990.15 973.56 982.98 C 973.56 978.85 972.49 974.50 969.53 971.48 C 967.19 968.94 963.41 967.88 960.10 968.89 C 955.01 970.29 951.41 974.78 949.41 979.47 C 946.34 986.58 947.75 994.49 947.44 1002.00 C 947.74 1009.71 945.91 1018.51 951.27 1025.00 C 935.28 1036.54 916.70 1044.74 897.22 1047.99 C 854.04 1056.02 810.88 1064.18 767.68 1072.09 C 770.10 1071.25 773.40 1070.74 774.14 1067.82 C 774.89 1065.69 774.66 1062.10 771.92 1061.67 C 767.59 1061.93 763.52 1063.96 759.16 1063.91 C 756.14 1063.07 754.52 1059.88 754.31 1056.95 C 753.83 1051.30 754.21 1045.62 754.07 1039.97 C 754.04 1035.28 754.00 1030.01 757.31 1026.29 C 760.56 1022.42 766.13 1022.91 770.53 1021.36 C 774.64 1020.65 775.87 1014.59 772.80 1011.99 C 768.08 1012.19 763.41 1013.46 758.97 1015.01 C 751.60 1018.74 747.72 1027.24 747.19 1035.19 C 747.03 1042.45 747.16 1049.72 747.13 1057.00 C 747.07 1062.64 748.97 1068.88 753.92 1072.11 C 756.36 1073.82 759.46 1073.60 762.29 1073.36 C 749.80 1075.15 737.51 1078.05 725.05 1079.94 C 728.38 1076.09 730.46 1071.16 730.31 1066.02 C 730.18 1060.13 731.41 1052.92 726.53 1048.51 C 723.09 1045.33 718.18 1047.14 714.26 1048.17 C 710.43 1048.99 708.99 1054.90 712.10 1057.29 C 715.52 1057.79 718.94 1056.20 722.41 1056.28 C 723.33 1060.72 723.54 1065.35 722.90 1069.85 C 722.25 1073.50 717.92 1073.83 714.99 1074.43 C 710.97 1075.67 707.47 1071.72 707.33 1067.95 C 706.92 1060.95 707.23 1053.92 707.16 1046.92 C 707.02 1042.54 708.58 1037.84 712.29 1035.26 C 716.30 1033.06 721.14 1033.30 725.27 1031.41 C 728.02 1029.56 728.66 1023.68 724.93 1022.66 C 718.57 1023.82 711.13 1024.38 706.64 1029.64 C 702.07 1035.30 699.70 1042.68 700.11 1049.95 C 700.34 1057.41 699.71 1064.91 700.47 1072.34 C 700.93 1077.00 703.84 1081.03 707.90 1083.27 C 699.65 1084.69 691.46 1086.55 683.15 1087.63 C 683.38 1076.41 683.22 1065.18 683.25 1053.95 C 683.33 1052.00 682.64 1048.80 680.08 1049.20 C 676.98 1049.59 676.03 1053.25 676.17 1055.92 C 676.23 1067.00 676.08 1078.08 676.25 1089.16 C 650.41 1093.55 624.70 1098.65 598.92 1103.34 C 553.72 1111.45 508.61 1120.07 463.42 1128.22 C 440.92 1132.28 418.45 1136.55 395.97 1140.70 C 370.42 1145.44 344.80 1149.84 319.30 1154.85 C 298.61 1158.87 277.92 1162.95 257.05 1165.95 C 231.76 1169.01 205.33 1170.63 180.79 1162.40 C 166.69 1157.72 153.91 1148.95 144.82 1137.16 C 132.74 1121.35 126.50 1101.73 124.02 1082.19 C 123.88 1074.09 121.83 1066.05 122.75 1057.96 C 123.98 1052.96 126.93 1048.50 127.33 1043.26 C 133.11 1041.61 137.05 1036.07 136.85 1030.08 C 136.92 1000.41 136.83 970.74 136.90 941.07 C 140.88 940.21 145.16 939.86 148.70 937.68 C 152.75 934.70 153.37 929.32 153.90 924.70 C 162.60 923.38 166.61 911.33 161.41 904.65 C 159.44 902.08 155.99 902.75 153.27 903.39 C 142.37 905.94 131.44 908.39 120.52 910.92 C 120.64 884.83 119.92 858.74 119.77 832.65 C 124.23 817.60 129.46 802.78 134.28 787.84 C 137.50 793.59 139.23 799.99 142.07 805.92 C 138.12 807.99 134.69 811.34 133.89 815.91 C 133.49 817.43 133.12 818.96 132.74 820.50 C 129.78 822.51 126.28 824.37 124.90 827.89 C 123.45 831.72 123.15 836.29 124.99 840.04 C 126.97 843.66 132.35 843.83 135.22 841.20 C 138.93 838.14 139.49 833.07 140.10 828.62 C 143.30 827.50 146.25 825.67 148.16 822.80 C 153.77 836.65 158.82 850.72 164.35 864.61 C 165.44 867.82 168.74 870.96 172.33 869.38 C 177.92 867.21 179.58 860.86 180.12 855.49 C 182.53 854.23 185.26 853.20 186.90 850.91 C 189.97 846.84 190.52 841.19 188.49 836.54 C 176.46 805.25 164.48 773.93 152.48 742.62 C 151.06 739.05 149.98 735.32 148.02 732.00 C 146.20 728.76 141.37 728.36 138.66 730.68 C 134.62 733.90 133.94 739.37 132.19 743.93 C 129.46 745.48 126.46 747.18 125.27 750.28 C 123.09 755.60 121.77 761.25 119.27 766.45 C 118.96 747.83 118.73 729.21 118.55 710.59 C 118.19 700.06 118.89 689.52 117.94 679.01 C 116.95 651.35 117.52 623.67 117.36 596.00 C 117.38 571.00 117.45 546.00 117.37 521.00 C 117.42 495.96 121.65 470.83 130.43 447.34 C 136.37 432.02 144.16 417.17 154.91 404.65 C 155.23 411.28 155.13 418.43 158.77 424.25 C 161.81 429.04 167.85 430.33 173.13 430.59 C 183.18 431.18 194.13 430.33 203.05 435.88 C 205.14 437.36 208.20 438.96 207.84 441.99 C 207.66 478.48 207.79 514.98 207.76 551.47 C 195.98 556.26 184.81 563.09 172.04 564.95 C 161.11 566.61 150.04 562.98 140.96 557.01 C 137.42 554.92 133.58 551.79 129.19 552.88 C 125.24 554.56 124.61 559.66 125.69 563.34 C 127.04 567.66 131.41 569.80 135.08 571.87 C 145.78 577.68 157.42 583.57 169.99 582.44 C 184.20 581.28 195.58 571.88 208.01 565.94 C 208.40 590.95 208.32 615.98 209.14 640.99 C 209.31 646.48 208.36 652.54 211.57 657.39 C 217.42 666.82 232.91 667.41 239.54 658.56 C 242.36 655.04 242.66 650.33 242.54 646.01 C 242.21 622.88 240.75 599.79 240.18 576.66 C 239.46 563.78 240.05 550.88 239.68 537.99 C 239.64 519.66 239.43 501.32 240.19 483.01 C 240.42 468.92 240.00 454.83 240.52 440.75 C 242.45 409.04 250.99 376.91 269.67 350.82 C 321.62 341.29 373.52 331.53 425.44 321.87 C 514.99 305.57 604.45 288.85 694.00 272.54 C 741.58 263.51 789.32 255.27 836.84 245.93 M 706.41 600.50 C 693.86 604.29 685.43 615.62 680.23 627.09 C 675.54 631.11 672.78 636.77 670.29 642.30 C 666.56 650.66 665.08 659.88 665.14 669.00 C 665.17 682.33 665.18 695.66 665.13 709.00 C 665.02 716.84 665.77 724.86 668.86 732.15 C 671.96 739.41 677.49 746.19 685.07 748.96 C 692.39 751.55 700.04 748.86 707.26 747.28 C 712.01 746.05 717.01 745.55 721.54 743.57 C 726.40 741.03 727.57 735.08 727.17 730.07 C 736.30 729.29 740.54 716.71 735.03 709.98 C 732.52 706.89 728.34 708.45 725.12 709.16 C 718.40 710.56 711.79 712.67 704.96 713.43 C 697.09 713.50 692.29 705.24 691.54 698.25 C 691.73 696.91 691.93 695.59 692.14 694.27 C 700.37 692.52 708.55 690.58 716.77 688.78 C 719.89 688.08 723.32 687.00 724.98 684.01 C 727.15 681.04 727.26 677.24 727.06 673.72 C 735.40 672.94 739.53 662.69 736.47 655.57 C 735.39 653.13 732.77 651.14 730.00 651.80 C 722.51 653.20 715.15 655.22 707.69 656.76 C 705.10 657.40 702.35 657.74 700.02 659.12 C 697.39 660.96 695.72 663.92 694.84 666.95 C 694.22 669.20 694.80 672.64 691.94 673.37 C 691.25 663.50 691.88 653.59 691.58 643.71 C 691.83 641.74 692.22 639.78 692.84 637.90 C 700.78 635.47 708.94 633.86 717.03 632.05 C 719.96 631.42 723.06 630.33 724.72 627.64 C 727.13 624.63 727.27 620.66 727.23 616.99 C 735.89 616.20 739.97 605.01 735.88 598.01 C 734.53 595.68 731.69 594.43 729.09 595.26 C 721.52 596.95 713.93 598.60 706.41 600.50 M 557.36 635.38 C 553.54 638.83 553.00 644.30 551.19 648.86 C 547.16 649.51 544.66 652.88 543.61 656.60 C 530.64 696.33 517.77 736.09 504.69 775.78 C 503.35 779.98 501.86 784.84 504.05 789.02 C 505.96 792.70 511.54 793.22 514.37 790.35 C 517.96 786.91 518.76 781.73 520.73 777.36 C 524.22 776.33 526.79 773.37 527.87 769.96 C 536.39 744.23 544.75 718.44 553.27 692.70 C 557.25 697.92 558.22 704.62 561.21 710.36 C 556.58 712.37 553.01 716.82 552.95 721.99 C 551.95 726.88 545.66 727.49 544.10 732.10 C 542.33 736.57 541.92 742.70 545.75 746.23 C 549.04 748.36 553.72 747.04 555.84 743.81 C 558.88 740.58 558.04 735.61 560.70 732.18 C 563.67 731.81 565.81 729.35 567.28 726.93 C 572.51 740.32 577.65 753.74 582.75 767.18 C 583.80 769.61 584.83 772.45 587.36 773.73 C 590.69 774.84 594.27 772.93 596.17 770.18 C 598.52 767.16 598.97 763.24 598.88 759.54 C 606.74 758.35 610.79 748.97 608.04 741.96 C 595.69 709.62 583.25 677.32 570.91 644.99 C 569.62 641.76 568.65 638.32 566.62 635.46 C 564.29 632.83 559.81 632.98 557.36 635.38 M 427.27 664.09 C 418.04 666.70 407.86 667.13 399.74 672.74 C 391.99 677.79 387.23 686.04 383.44 694.24 C 379.39 697.11 377.20 701.71 375.00 706.01 C 371.08 714.47 367.92 723.55 367.97 732.98 C 367.94 748.32 368.01 763.66 367.94 779.00 C 367.76 787.07 368.72 795.36 372.33 802.68 C 375.57 809.55 382.21 814.28 389.20 816.83 C 396.98 819.46 404.94 816.03 412.58 814.53 C 422.42 812.36 429.44 803.81 432.66 794.67 C 439.70 787.90 444.78 778.80 446.02 769.05 C 446.86 760.73 446.27 752.35 446.44 744.02 C 446.61 734.48 442.97 723.62 433.89 719.15 C 428.09 716.09 421.57 718.29 415.64 719.66 C 412.55 720.49 409.14 720.67 406.44 722.53 C 402.48 725.59 401.00 730.86 401.33 735.70 C 398.72 736.42 396.24 737.54 393.99 739.05 C 394.02 731.35 393.98 723.65 393.99 715.95 C 393.99 712.45 394.39 708.93 395.56 705.62 C 402.81 703.75 410.07 701.91 417.42 700.43 C 420.81 699.57 424.81 699.07 427.05 696.05 C 429.68 692.94 430.10 688.76 430.01 684.85 C 439.14 683.95 443.20 671.17 437.47 664.59 C 434.78 661.61 430.57 663.49 427.27 664.09 M 220.38 683.44 C 210.51 686.11 206.63 698.88 211.73 707.27 C 217.41 716.91 233.04 717.52 239.79 708.78 C 243.36 704.37 243.47 698.10 242.05 692.86 C 239.16 684.28 228.54 680.51 220.38 683.44 M 259.11 705.10 C 256.51 708.38 255.95 712.67 256.06 716.73 C 249.31 716.58 245.94 724.11 246.08 729.95 C 246.05 756.63 246.11 783.32 246.06 810.00 C 246.00 816.67 245.83 823.53 248.05 829.93 C 250.29 836.86 255.12 843.51 262.35 845.72 C 268.86 848.11 275.60 845.38 282.01 844.04 C 287.00 842.70 292.34 842.34 297.00 839.97 C 301.27 837.13 302.23 831.58 302.05 826.81 C 310.29 826.00 314.24 815.75 311.08 808.78 C 310.01 806.52 307.67 804.35 304.99 804.94 C 296.91 806.23 289.08 808.90 280.98 810.02 C 275.29 810.29 272.16 804.00 272.24 799.04 C 272.12 769.68 272.23 740.32 272.18 710.96 C 272.27 707.53 271.07 703.65 267.80 702.04 C 264.62 700.51 260.97 702.43 259.11 705.10 M 897.46 733.58 C 880.10 737.55 862.74 741.49 845.39 745.46 C 838.83 746.57 835.68 753.91 836.19 759.95 C 829.93 761.37 825.66 767.56 826.21 773.90 C 826.33 777.59 828.69 782.36 833.01 781.98 C 839.78 781.38 846.21 778.81 852.96 777.94 C 853.22 782.95 853.21 787.98 853.16 793.00 C 853.14 821.02 853.20 849.03 853.13 877.05 C 853.21 880.24 853.32 883.84 855.66 886.30 C 858.18 889.33 863.17 888.31 865.43 885.44 C 868.92 882.25 868.55 877.13 870.58 873.15 C 876.52 872.17 879.42 865.48 879.31 860.03 C 879.31 826.40 879.30 792.78 879.36 759.16 L 880.07 758.97 C 879.50 763.04 879.49 767.17 879.86 771.27 C 884.31 770.58 889.59 770.47 892.75 766.77 C 895.57 763.59 895.94 759.20 896.25 755.17 C 904.41 754.20 908.13 743.85 905.03 736.96 C 903.78 734.06 900.45 732.52 897.46 733.58 M 746.18 768.24 C 742.27 771.30 741.62 776.57 740.01 780.96 C 736.84 782.70 733.58 784.89 732.50 788.55 C 718.94 829.73 705.58 870.99 692.12 912.20 C 690.92 915.87 690.72 920.39 693.57 923.39 C 696.55 926.95 702.45 925.26 704.58 921.61 C 706.57 917.99 707.35 913.81 709.61 910.32 C 715.04 908.68 716.55 902.68 718.03 897.91 C 725.99 873.52 734.07 849.16 742.03 824.77 C 744.73 830.93 746.89 837.30 749.41 843.54 C 743.54 846.14 740.51 852.53 741.18 858.77 C 733.14 859.42 729.46 869.23 731.92 876.06 C 733.15 879.89 738.09 881.89 741.52 879.61 C 746.14 876.91 747.08 871.21 747.53 866.34 C 748.33 866.01 749.15 865.69 749.97 865.39 C 752.19 864.42 754.02 862.72 755.36 860.72 C 759.29 867.60 761.35 875.32 764.40 882.60 C 767.39 889.71 769.51 897.20 772.87 904.15 C 774.65 908.11 780.32 907.90 783.00 905.03 C 786.91 901.82 786.40 896.33 788.61 892.18 C 795.74 890.82 798.85 881.69 796.54 875.40 C 783.86 842.13 771.04 808.90 758.35 775.62 C 757.33 773.11 756.51 770.42 754.73 768.34 C 752.41 766.20 748.56 766.19 746.18 768.24 M 650.28 791.27 C 646.87 794.46 645.94 799.32 646.14 803.80 C 639.99 804.14 636.27 810.30 636.19 815.97 C 635.94 823.64 636.23 831.32 636.12 839.00 C 635.95 844.82 636.88 850.79 635.13 856.46 C 625.93 839.44 616.86 822.35 607.65 805.33 C 606.32 802.63 603.40 800.30 600.26 801.40 C 594.40 803.29 591.96 810.13 592.38 815.82 C 586.16 816.92 582.17 822.99 582.39 829.09 C 582.27 865.74 582.43 902.39 582.31 939.05 C 582.38 942.39 582.64 946.29 585.36 948.65 C 588.10 950.86 592.28 950.07 594.53 947.54 C 597.80 944.43 598.41 939.74 598.81 935.48 C 604.68 934.37 608.52 928.70 608.48 922.91 C 608.57 909.19 608.44 895.47 608.53 881.75 C 611.91 886.14 614.19 891.21 616.90 896.02 C 623.41 908.51 630.31 920.80 636.74 933.33 C 637.99 935.86 640.53 938.45 643.63 937.63 C 649.78 936.14 652.53 929.20 651.98 923.40 C 654.54 922.35 657.40 921.44 659.07 919.05 C 662.92 914.27 662.24 907.74 662.33 902.01 C 662.30 867.67 662.31 833.33 662.32 798.99 C 662.33 795.99 661.96 792.59 659.53 790.53 C 656.95 787.97 652.58 788.76 650.28 791.27 M 541.66 816.65 C 538.58 819.88 537.77 824.51 537.96 828.82 C 535.47 829.36 532.77 830.00 531.22 832.22 C 527.30 836.50 528.00 842.65 527.97 848.00 C 528.03 882.68 528.00 917.37 527.98 952.06 C 527.86 955.67 528.87 959.91 532.46 961.56 C 536.29 962.82 540.16 960.24 542.01 956.98 C 543.95 954.19 544.02 950.70 543.93 947.45 C 549.71 946.31 554.04 940.96 554.01 935.08 C 554.08 897.70 554.01 860.31 554.04 822.92 C 554.13 820.04 553.32 816.92 550.90 815.14 C 548.09 812.86 543.85 814.09 541.66 816.65 M 487.12 829.09 C 476.73 843.23 466.62 857.59 456.14 871.67 C 446.21 862.66 436.43 853.48 426.54 844.43 C 424.40 842.22 420.88 841.57 418.25 843.28 C 413.75 846.12 412.11 851.77 412.44 856.84 C 406.72 857.87 402.38 863.14 402.69 868.99 C 402.55 906.32 402.72 943.66 402.60 981.00 C 402.61 984.45 403.03 988.73 406.42 990.58 C 409.46 991.70 413.11 990.67 415.15 988.17 C 417.90 984.97 418.42 980.61 418.82 976.58 C 424.72 975.41 428.59 969.76 428.53 963.92 C 428.63 942.23 428.51 920.53 428.59 898.84 C 433.07 902.14 436.57 906.56 441.00 909.92 C 443.89 912.20 448.38 911.40 450.55 908.51 C 454.06 904.26 457.43 899.81 459.79 894.81 C 464.17 889.22 468.18 883.34 472.35 877.58 C 474.48 881.01 473.54 885.18 473.67 889.00 C 473.61 912.00 473.69 935.00 473.63 958.00 C 473.66 961.93 473.38 965.92 474.19 969.81 C 475.16 973.07 478.89 975.97 482.36 974.43 C 488.03 972.40 489.70 965.82 489.92 960.43 C 492.49 959.39 495.37 958.46 496.93 955.98 C 499.98 951.98 499.76 946.74 499.71 942.00 C 499.67 906.65 499.69 871.29 499.70 835.94 C 499.76 832.63 499.04 828.83 496.10 826.86 C 493.12 824.87 488.99 826.19 487.12 829.09 M 313.52 866.24 C 311.00 866.86 308.18 867.31 306.35 869.35 C 303.13 872.61 302.28 877.37 302.44 881.79 C 300.31 882.33 297.81 882.48 296.30 884.29 C 292.83 887.93 292.44 893.24 292.35 898.01 C 292.36 931.00 292.37 964.00 292.35 997.00 C 292.41 1001.66 291.92 1006.41 292.95 1011.01 C 293.75 1014.54 297.53 1018.16 301.32 1016.36 C 306.75 1014.05 308.73 1007.87 308.85 1002.41 C 314.42 1000.88 318.41 995.68 318.56 989.93 C 318.74 978.32 318.55 966.71 318.64 955.10 C 325.58 954.49 332.13 951.83 339.04 951.13 C 344.28 950.86 347.67 956.31 347.87 961.03 C 348.42 972.35 347.76 983.71 348.10 995.05 C 348.08 998.11 349.65 1001.20 352.39 1002.69 C 355.25 1003.80 358.51 1002.74 360.40 1000.39 C 363.98 997.20 363.27 991.96 365.63 988.10 C 371.08 987.19 374.07 981.16 374.09 976.06 C 374.19 965.71 374.09 955.35 374.13 945.00 C 374.20 937.58 372.70 929.86 368.26 923.77 C 367.39 922.24 365.23 920.56 366.75 918.75 C 371.24 910.56 374.14 901.39 374.13 892.00 C 374.36 882.79 371.82 873.27 365.87 866.11 C 361.15 860.42 353.35 857.30 346.04 858.90 C 335.17 861.22 324.38 863.89 313.52 866.24 M 233.44 884.61 C 220.84 888.29 212.32 899.58 207.10 911.05 C 197.89 920.22 193.42 933.26 192.18 945.98 C 191.74 958.31 192.12 970.66 192.00 983.00 C 192.19 993.15 190.99 1003.66 194.53 1013.42 C 197.41 1021.84 203.09 1030.13 211.81 1033.18 C 219.85 1035.77 228.13 1032.74 236.02 1031.03 C 240.22 1029.93 244.70 1029.59 248.63 1027.63 C 253.15 1024.79 254.32 1019.14 254.24 1014.17 C 262.52 1013.31 266.36 1002.87 263.01 995.96 C 261.86 993.44 259.08 991.65 256.29 992.45 C 249.26 993.83 242.32 995.68 235.32 997.19 C 232.44 997.81 229.24 997.95 226.61 996.43 C 222.23 993.88 219.55 989.13 218.54 984.28 C 218.98 982.35 217.63 978.98 220.18 978.27 C 229.02 975.90 238.15 974.61 246.92 971.95 C 252.61 970.04 254.49 963.30 253.98 957.88 C 262.69 956.99 266.81 945.48 262.48 938.51 C 261.01 936.08 257.95 935.50 255.37 936.23 C 246.89 938.11 238.43 940.08 229.96 942.03 C 223.49 943.43 220.65 950.93 221.34 956.93 C 220.48 956.96 218.75 957.02 217.89 957.04 C 218.38 945.34 216.50 933.29 219.67 921.86 C 226.97 920.09 234.26 918.25 241.62 916.73 C 245.06 915.92 249.08 915.38 251.23 912.21 C 253.84 909.20 254.32 905.11 253.73 901.29 C 262.46 900.57 266.76 889.45 262.68 882.32 C 261.44 880.08 258.81 878.70 256.27 879.40 C 248.64 881.00 241.03 882.79 233.44 884.61 M 939.11 896.96 C 939.27 910.23 938.90 923.52 939.29 936.78 C 939.69 939.96 944.07 938.50 944.18 935.89 C 944.71 930.35 944.00 924.75 944.51 919.21 C 944.94 916.12 946.84 912.71 950.12 912.04 C 952.63 911.43 954.81 913.73 955.20 916.05 C 956.13 922.31 954.44 928.81 956.23 934.96 C 958.24 935.04 960.40 934.05 960.57 931.80 C 960.99 926.53 960.77 921.23 960.68 915.95 C 960.57 911.27 957.99 905.82 952.93 905.01 C 949.67 904.35 946.89 906.42 944.30 908.04 C 944.31 901.90 944.59 895.76 944.07 889.64 C 943.31 889.64 941.80 889.65 941.04 889.65 C 938.62 891.29 939.19 894.45 939.11 896.96 M 973.29 897.01 C 977.66 900.26 980.98 891.10 975.98 890.53 C 973.13 891.36 973.12 894.60 973.29 897.01 M 1000.44 893.49 C 996.59 894.53 993.97 897.94 992.44 901.45 C 990.09 906.64 991.23 912.48 990.96 918.00 C 991.17 920.77 990.35 923.85 991.74 926.41 C 993.61 927.63 995.81 925.89 996.03 923.93 C 996.66 918.03 995.92 912.08 996.37 906.18 C 996.72 903.61 998.40 900.79 1001.14 900.31 C 1003.31 899.93 1005.04 902.01 1005.18 904.04 C 1005.67 909.88 1004.98 915.77 1005.48 921.61 C 1006.02 925.30 1011.16 922.92 1010.59 919.99 C 1010.59 913.99 1010.77 907.97 1010.46 901.99 C 1010.27 897.05 1005.67 891.90 1000.44 893.49 M 918.56 901.54 C 910.73 907.31 906.96 917.51 907.80 927.04 C 908.20 931.90 910.04 936.96 913.96 940.08 C 916.96 942.49 921.37 943.56 924.98 941.95 C 927.09 940.51 926.53 937.76 926.24 935.64 C 923.40 935.41 920.20 936.10 917.74 934.29 C 914.20 931.78 912.87 927.15 912.98 922.99 C 913.03 915.92 916.95 908.33 923.96 905.97 C 927.07 905.13 926.83 901.48 926.00 899.06 C 923.32 899.10 920.68 899.89 918.56 901.54 M 975.33 899.36 C 973.27 900.38 973.11 902.91 973.17 904.93 C 973.23 912.61 973.10 920.30 973.22 927.98 C 973.20 929.08 973.70 930.95 975.12 930.83 C 977.63 931.10 978.58 928.04 978.49 926.04 C 978.49 918.03 978.63 910.00 978.42 902.00 C 978.58 900.33 977.07 898.33 975.33 899.36 M 889.36 925.17 C 886.60 925.82 883.82 926.35 881.10 927.13 C 878.46 927.63 877.46 931.09 878.71 933.27 C 879.67 934.64 881.43 933.89 882.77 933.70 C 886.01 932.92 889.30 932.30 892.52 931.39 C 895.36 930.74 896.16 926.23 893.94 924.48 C 892.38 924.46 890.86 924.84 889.36 925.17 M 846.83 933.79 C 844.04 938.61 843.73 944.41 844.46 949.82 C 845.08 953.88 847.88 958.14 852.25 958.68 C 855.29 959.12 857.92 957.24 860.40 955.77 C 860.30 960.04 861.28 964.90 858.49 968.57 C 857.09 970.68 853.88 972.18 851.67 970.37 C 848.78 968.44 850.47 964.03 847.86 962.02 C 845.22 961.77 843.90 964.80 844.19 967.03 C 844.18 971.82 846.89 977.35 852.04 978.16 C 857.15 978.85 861.35 974.75 863.50 970.55 C 866.61 964.86 865.61 958.20 865.77 952.00 C 865.63 946.51 866.11 941.00 865.46 935.54 C 864.91 931.27 861.60 926.82 856.98 926.75 C 852.52 926.72 848.88 930.10 846.83 933.79 M 795.46 932.39 C 794.05 933.94 793.93 936.40 795.13 938.13 C 798.11 939.86 800.45 935.48 799.35 932.98 C 799.16 931.07 796.38 930.97 795.46 932.39 M 818.67 935.67 C 814.25 938.89 811.97 944.54 812.07 949.93 C 812.12 955.69 811.85 961.47 812.35 967.22 C 814.35 967.99 816.82 967.28 817.14 964.88 C 817.74 959.01 817.03 953.08 817.45 947.19 C 817.75 944.57 819.42 941.76 822.14 941.14 C 824.42 940.66 826.20 942.92 826.32 945.01 C 826.63 949.68 826.35 954.37 826.41 959.05 C 826.47 960.69 826.22 962.54 827.33 963.95 C 829.43 965.38 831.67 962.91 831.67 960.81 C 831.93 955.86 831.72 950.89 831.77 945.94 C 831.82 942.10 830.95 937.74 827.62 935.40 C 824.99 933.39 821.23 933.79 818.67 935.67 M 778.29 935.95 C 776.01 937.45 775.63 942.48 779.03 942.72 C 782.95 942.00 782.69 933.79 778.29 935.95 M 796.30 940.17 C 793.47 942.19 794.52 946.04 794.31 948.99 C 794.58 956.54 793.79 964.15 794.81 971.66 C 796.30 971.41 798.30 971.83 798.97 970.04 C 799.87 968.18 799.46 966.02 799.58 964.04 C 799.41 956.15 799.85 948.25 799.30 940.38 C 798.30 940.23 797.30 940.16 796.30 940.17 M 776.59 948.95 C 776.55 958.98 776.60 969.02 776.60 979.06 C 776.54 980.92 776.53 982.91 775.54 984.57 C 774.30 986.77 771.60 987.38 770.00 989.22 C 769.34 990.81 769.82 992.56 769.89 994.23 C 776.59 994.93 780.90 987.64 781.67 981.82 C 782.03 970.87 781.69 959.89 781.84 948.92 C 781.75 947.27 782.12 944.51 779.85 944.25 C 777.42 944.06 776.41 946.94 776.59 948.95 M 739.37 958.33 C 736.46 963.77 737.62 970.11 737.38 976.01 C 737.54 978.73 736.85 981.70 738.15 984.24 C 740.09 985.60 742.37 983.64 742.53 981.60 C 742.95 976.07 742.44 970.51 742.73 964.97 C 742.83 962.16 744.41 959.11 747.23 958.24 C 749.55 957.59 751.56 959.82 751.68 962.01 C 752.24 968.40 751.33 974.85 752.26 981.22 C 754.17 981.53 756.42 981.06 756.83 978.84 C 757.26 972.88 756.97 966.88 756.99 960.91 C 756.98 956.65 754.43 951.89 749.92 951.16 C 745.18 950.54 741.27 954.36 739.37 958.33 M 679.65 958.95 C 679.57 966.75 679.74 974.55 679.59 982.36 C 674.99 974.82 671.34 966.74 666.81 959.17 C 665.61 956.65 662.25 959.06 662.26 961.16 C 661.93 972.78 662.26 984.42 662.11 996.05 C 662.19 997.78 661.87 999.71 662.83 1001.29 C 665.04 1002.92 667.47 1000.26 667.29 998.01 C 667.50 989.87 667.23 981.72 667.40 973.58 C 670.92 979.20 673.77 985.21 676.98 991.01 C 678.33 993.32 679.22 996.01 681.21 997.87 C 683.71 997.95 685.03 995.26 684.89 993.07 C 684.94 981.05 684.98 969.03 684.88 957.01 C 685.06 955.46 683.84 953.69 682.15 954.18 C 680.09 954.69 679.62 957.12 679.65 958.95 M 703.19 963.16 C 697.61 968.38 696.48 976.73 697.82 983.94 C 698.67 988.15 702.16 992.76 706.95 992.10 C 711.11 991.85 714.11 988.57 716.33 985.36 C 718.01 986.64 719.69 988.23 721.93 988.34 C 724.47 987.68 724.62 984.78 724.76 982.64 C 722.52 981.20 719.36 980.01 719.15 976.92 C 718.93 971.98 719.38 966.26 715.48 962.51 C 712.22 958.89 706.35 960.00 703.19 963.16 M 617.19 969.10 C 615.68 969.73 614.90 971.40 614.96 972.98 C 614.76 981.61 615.05 990.25 614.86 998.89 C 614.71 1002.42 612.70 1006.53 608.94 1007.30 C 605.95 1007.95 603.74 1004.71 603.79 1002.03 C 603.63 993.09 603.97 984.13 603.67 975.20 C 603.77 973.47 601.81 972.00 600.30 973.10 C 598.34 974.35 598.45 976.90 598.42 978.93 C 598.46 986.62 598.41 994.32 598.45 1002.01 C 598.44 1006.25 599.73 1011.07 603.59 1013.38 C 606.85 1015.37 611.12 1014.27 613.85 1011.88 C 618.03 1008.21 620.24 1002.55 620.10 997.04 C 620.05 988.70 620.18 980.35 620.05 972.01 C 620.23 970.39 619.02 968.36 617.19 969.10 M 573.39 979.40 C 568.31 982.74 565.73 989.04 565.70 994.99 C 565.70 1000.33 565.63 1005.68 565.73 1011.03 C 565.82 1015.37 567.87 1020.24 572.17 1021.91 C 575.89 1022.73 579.62 1021.21 583.22 1020.37 C 586.30 1019.87 587.28 1014.24 584.01 1013.40 C 580.49 1013.55 576.89 1015.92 573.44 1014.61 C 569.91 1011.85 571.09 1006.87 570.85 1003.00 C 571.21 997.96 569.78 992.26 572.78 987.81 C 575.45 983.76 581.05 985.08 584.75 982.75 C 586.53 981.02 585.96 978.47 585.18 976.44 C 581.19 977.06 577.01 977.50 573.39 979.40 M 903.14 988.32 C 901.49 990.96 902.96 996.09 906.75 994.97 C 909.57 992.35 912.27 987.91 916.80 989.06 C 922.04 991.19 921.38 998.29 919.57 1002.62 C 914.28 1012.78 907.92 1022.37 902.57 1032.50 C 901.29 1034.80 902.34 1039.66 905.67 1038.84 C 912.48 1037.43 919.25 1035.77 926.05 1034.25 C 930.60 1033.91 932.40 1026.79 928.59 1024.36 C 923.58 1024.68 918.81 1026.54 913.86 1027.28 C 918.88 1017.03 927.44 1007.89 927.90 995.96 C 928.34 989.67 926.11 981.87 919.55 979.62 C 912.84 977.71 906.31 982.76 903.14 988.32 M 634.60 983.52 C 632.19 984.68 632.63 987.75 633.10 989.91 C 637.68 990.11 642.08 988.57 646.49 987.57 C 649.68 987.25 650.96 981.87 647.99 980.51 C 643.47 981.15 638.97 982.19 634.60 983.52 M 544.35 986.35 C 537.60 990.64 535.38 1000.74 539.50 1007.54 C 541.10 1010.26 544.63 1010.25 546.98 1011.98 C 548.86 1014.92 547.97 1019.14 545.34 1021.34 C 543.63 1022.14 541.59 1022.00 539.97 1023.00 C 538.67 1024.68 538.15 1027.67 540.21 1029.02 C 542.68 1029.47 545.34 1028.94 547.30 1027.33 C 553.05 1022.78 554.78 1013.90 551.51 1007.43 C 550.14 1004.51 546.75 1004.10 544.17 1002.83 C 541.88 1000.55 542.42 996.57 544.19 994.14 C 545.65 992.13 548.38 992.36 550.47 991.51 C 552.15 989.94 551.65 987.57 551.40 985.58 C 549.03 985.08 546.44 984.88 544.35 986.35 M 573.61 997.53 C 571.38 999.12 571.87 1002.09 572.99 1004.22 C 576.38 1003.62 579.77 1002.95 583.10 1002.04 C 586.09 1001.44 587.05 996.97 584.76 995.03 C 580.97 995.37 577.18 996.25 573.61 997.53 M 824.09 1001.03 C 819.53 1007.14 815.12 1013.36 810.66 1019.54 C 806.49 1015.99 802.59 1012.16 798.55 1008.49 C 797.48 1007.77 796.47 1006.22 795.04 1006.73 C 792.21 1007.19 791.21 1010.46 791.34 1012.96 C 791.31 1028.65 791.35 1044.33 791.32 1060.02 C 791.28 1062.12 791.39 1065.13 794.02 1065.62 C 796.82 1065.50 798.50 1062.59 798.39 1060.03 C 798.45 1046.98 798.40 1033.94 798.40 1020.89 C 801.84 1023.76 804.93 1027.02 808.42 1029.84 C 809.79 1031.20 811.91 1030.23 812.81 1028.82 C 816.19 1024.52 819.07 1019.84 822.63 1015.67 C 822.81 1029.07 822.36 1042.49 822.84 1055.88 C 823.79 1060.58 829.93 1057.59 829.63 1053.84 C 829.99 1038.22 829.64 1022.59 829.80 1006.97 C 829.70 1004.89 830.02 1002.66 829.07 1000.76 C 827.95 998.82 825.07 999.14 824.09 1001.03 M 769.37 1037.22 C 765.81 1038.04 762.20 1038.67 758.72 1039.77 C 755.12 1041.06 754.23 1047.75 758.23 1048.97 C 762.29 1048.44 766.25 1047.30 770.24 1046.39 C 774.43 1045.86 776.08 1039.50 772.79 1036.94 C 771.63 1036.85 770.49 1036.94 769.37 1037.22 M 678.43 1038.30 C 675.58 1040.25 674.96 1046.37 679.00 1047.21 C 683.18 1046.90 684.71 1040.56 681.76 1037.91 C 680.56 1037.46 679.45 1037.60 678.43 1038.30 Z" />
<path fill="#d1f4f4" opacity="1.00" d=" M 210.80 363.95 C 216.52 361.87 222.26 359.50 228.39 358.96 C 219.25 376.77 212.76 395.98 209.85 415.82 C 201.37 413.62 192.59 414.32 183.93 414.11 C 179.35 414.05 173.93 412.46 172.24 407.70 C 169.85 400.90 170.85 393.43 172.27 386.53 C 183.82 377.03 196.81 369.28 210.80 363.95 Z" />
<path fill="#d1f4f4" opacity="1.00" d=" M 965.89 761.84 C 972.94 755.77 982.63 751.18 992.06 753.94 C 1002.12 756.95 1008.17 767.09 1010.11 776.89 C 1012.36 787.01 1010.21 797.30 1008.17 807.26 C 1001.40 817.20 986.96 823.04 975.72 817.23 C 967.17 812.71 962.53 803.19 961.13 793.95 C 959.64 783.13 960.93 771.65 965.89 761.84 Z" />
<path fill="#d1f4f4" opacity="1.00" d=" M 393.96 756.30 C 400.49 758.46 406.83 755.12 413.26 754.41 C 416.28 753.89 419.35 756.15 419.78 759.18 C 420.84 765.69 420.14 772.33 420.06 778.90 C 413.73 780.07 406.09 783.51 400.57 778.43 C 393.82 773.22 393.70 764.03 393.96 756.30 Z" />
<path fill="#d1f4f4" opacity="1.00" d=" M 318.67 899.02 C 324.82 897.93 330.79 895.79 337.04 895.22 C 340.95 894.83 344.25 897.79 346.03 901.01 C 348.18 905.10 347.97 909.87 348.44 914.34 C 338.67 917.24 328.63 919.13 318.71 921.39 C 318.55 913.93 318.62 906.48 318.67 899.02 Z" />
<path fill="#d1f4f4" opacity="1.00" d=" M 854.29 934.15 C 857.03 932.83 859.92 935.32 860.25 938.04 C 860.87 942.47 860.73 948.06 856.61 950.84 C 854.06 952.82 850.31 950.95 849.81 947.93 C 848.92 943.12 849.16 936.49 854.29 934.15 Z" />
<path fill="#d1f4f4" opacity="1.00" d=" M 707.56 967.63 C 710.22 966.37 713.05 968.75 713.47 971.39 C 714.24 975.98 713.86 981.82 709.42 984.49 C 706.68 986.19 703.36 983.87 702.92 980.97 C 702.08 976.26 702.55 969.83 707.56 967.63 Z" />
<path fill="#d1f4f4" opacity="1.00" d=" M 954.59 986.97 C 954.62 983.09 957.06 978.77 961.12 978.03 C 964.28 977.78 966.53 981.05 966.43 983.98 C 966.59 991.65 966.41 999.33 966.51 1007.00 C 966.40 1009.38 966.78 1012.34 964.65 1014.00 C 963.31 1015.14 962.01 1016.30 960.74 1017.51 C 959.26 1019.49 956.66 1017.89 955.70 1016.24 C 954.35 1014.07 954.58 1011.42 954.54 1009.00 C 954.62 1001.65 954.47 994.31 954.59 986.97 Z" />
</g>
<g id="#84ccfbff">
<path fill="#84ccfb" opacity="1.00" d=" M 968.01 262.96 C 978.26 260.72 989.37 259.52 999.30 263.74 C 1007.81 267.14 1013.71 275.05 1016.46 283.59 C 1021.66 299.16 1020.75 315.83 1020.82 332.00 C 1020.45 349.69 1022.22 367.32 1022.51 385.00 C 1022.46 400.12 1021.58 415.91 1014.65 429.66 C 1008.87 441.22 998.12 449.70 986.15 454.18 C 975.51 458.37 964.19 460.37 953.01 462.44 C 950.20 462.38 947.95 460.75 946.43 458.50 C 920.69 424.06 883.18 398.88 841.88 387.14 C 822.05 381.58 801.39 378.33 780.75 379.03 C 776.69 369.06 770.88 359.32 761.59 353.42 C 750.35 346.01 735.30 346.43 723.61 352.58 C 707.05 360.84 697.55 378.06 692.05 395.02 C 659.40 406.57 629.23 424.61 602.56 446.60 C 571.35 472.74 544.59 504.39 524.94 540.10 C 513.77 542.41 502.42 544.19 491.00 544.45 C 480.59 544.56 469.15 542.20 461.96 534.06 C 454.03 525.17 452.49 512.73 451.69 501.32 C 450.59 478.56 451.99 455.77 451.75 433.00 C 451.73 414.06 451.12 394.08 459.53 376.59 C 465.55 363.61 477.87 354.48 491.36 350.35 C 511.80 343.94 533.28 342.22 554.26 338.29 C 692.17 313.16 830.09 288.05 968.01 262.96 M 958.36 285.46 C 950.77 287.31 945.91 295.46 946.90 303.04 C 947.21 307.30 949.99 311.61 954.33 312.62 C 959.53 313.72 965.32 311.83 968.72 307.70 C 973.09 302.58 974.33 294.39 970.31 288.72 C 967.68 284.98 962.50 284.24 958.36 285.46 M 913.34 295.17 C 899.69 297.65 886.04 300.14 872.40 302.64 C 868.75 303.30 865.11 304.78 862.62 307.62 C 858.03 312.78 856.43 321.40 860.86 327.14 C 863.55 330.75 868.46 331.21 872.56 330.30 C 886.04 327.83 899.49 325.22 912.99 322.87 C 915.76 322.35 918.60 321.62 920.89 319.88 C 927.26 315.24 929.64 305.44 925.29 298.70 C 922.70 294.84 917.56 294.17 913.34 295.17 M 812.40 313.57 C 802.60 315.66 797.35 328.12 802.30 336.71 C 804.91 341.16 810.90 342.16 815.47 340.48 C 824.88 337.77 829.54 325.08 823.96 317.01 C 821.41 313.37 816.48 312.59 812.40 313.57 M 669.35 336.37 C 659.01 337.76 653.06 350.84 658.32 359.69 C 661.05 364.42 667.50 365.11 672.18 363.15 C 680.89 360.11 685.07 348.51 680.37 340.60 C 678.16 336.84 673.43 335.56 669.35 336.37 M 609.40 351.39 C 580.34 356.75 551.28 362.06 522.21 367.33 C 512.45 368.83 506.56 380.57 510.52 389.43 C 511.95 392.75 515.35 395.11 519.00 395.08 C 523.43 395.01 527.73 393.81 532.08 393.10 C 556.64 388.66 581.19 384.16 605.74 379.68 C 610.60 378.70 616.08 378.47 619.89 374.90 C 625.62 369.72 627.62 359.80 622.38 353.64 C 619.12 349.89 613.75 350.42 609.40 351.39 Z" />
</g>
<g id="#4ba3e4ff">
<path fill="#4ba3e4" opacity="1.00" d=" M 780.75 379.03 C 801.39 378.33 822.05 381.58 841.88 387.14 C 883.18 398.88 920.69 424.06 946.43 458.50 C 947.95 460.75 950.20 462.38 953.01 462.44 C 919.75 468.11 886.61 474.39 853.42 480.40 C 841.38 482.67 828.99 486.24 816.74 483.31 C 808.27 481.51 800.86 475.75 796.95 468.05 C 789.74 454.51 789.42 438.78 788.23 423.85 C 787.25 408.72 785.37 393.53 780.75 379.03 Z" />
<path fill="#4ba3e4" opacity="1.00" d=" M 602.56 446.60 C 629.23 424.61 659.40 406.57 692.05 395.02 C 686.93 413.55 685.75 432.85 685.11 451.98 C 684.62 462.03 684.09 472.25 680.87 481.87 C 677.99 490.93 672.67 499.25 665.30 505.30 C 652.01 516.22 634.73 520.01 618.25 523.22 C 587.13 528.77 556.08 534.67 524.94 540.10 C 544.59 504.39 571.35 472.74 602.56 446.60 Z" />
</g>
<g id="#094d61ff">
<path fill="#094d61" opacity="1.00" d=" M 706.41 600.50 C 713.93 598.60 721.52 596.95 729.09 595.26 C 731.69 594.43 734.53 595.68 735.88 598.01 C 739.97 605.01 735.89 616.20 727.23 616.99 C 720.91 618.47 714.52 619.68 708.24 621.31 C 700.39 623.27 695.22 630.56 692.84 637.90 C 692.22 639.78 691.83 641.74 691.58 643.71 C 690.50 652.77 691.17 661.91 691.01 671.00 C 691.31 680.08 690.59 689.20 691.54 698.25 C 692.29 705.24 697.09 713.50 704.96 713.43 C 711.79 712.67 718.40 710.56 725.12 709.16 C 728.34 708.45 732.52 706.89 735.03 709.98 C 740.54 716.71 736.30 729.29 727.17 730.07 C 718.75 731.60 710.56 734.57 701.98 735.03 C 692.29 735.40 684.29 728.10 680.17 719.92 C 675.77 711.68 674.99 702.16 675.24 692.99 C 675.30 678.97 675.22 664.96 675.27 650.94 C 675.26 642.74 677.20 634.67 680.23 627.09 C 685.43 615.62 693.86 604.29 706.41 600.50 Z" />
<path fill="#094d61" opacity="1.00" d=" M 557.36 635.38 C 559.81 632.98 564.29 632.83 566.62 635.46 C 568.65 638.32 569.62 641.76 570.91 644.99 C 583.25 677.32 595.69 709.62 608.04 741.96 C 610.79 748.97 606.74 758.35 598.88 759.54 C 596.47 758.18 594.13 756.43 593.33 753.65 C 585.14 732.19 576.88 710.75 568.67 689.29 C 566.12 682.87 563.95 676.29 560.99 670.05 C 558.02 677.46 555.83 685.15 553.27 692.70 C 544.75 718.44 536.39 744.23 527.87 769.96 C 526.79 773.37 524.22 776.33 520.73 777.36 C 518.67 777.11 516.27 776.93 514.92 775.13 C 512.13 771.73 512.73 766.94 513.98 763.04 C 526.41 724.99 538.89 686.95 551.19 648.86 C 553.00 644.30 553.54 638.83 557.36 635.38 Z" />
<path fill="#094d61" opacity="1.00" d=" M 707.69 656.76 C 715.15 655.22 722.51 653.20 730.00 651.80 C 732.77 651.14 735.39 653.13 736.47 655.57 C 739.53 662.69 735.40 672.94 727.06 673.72 C 719.89 675.25 712.75 676.95 705.60 678.62 C 703.07 679.05 700.05 679.99 697.86 678.14 C 694.44 675.55 694.53 670.80 694.84 666.95 C 695.72 663.92 697.39 660.96 700.02 659.12 C 702.35 657.74 705.10 657.40 707.69 656.76 Z" />
<path fill="#094d61" opacity="1.00" d=" M 427.27 664.09 C 430.57 663.49 434.78 661.61 437.47 664.59 C 443.20 671.17 439.14 683.95 430.01 684.85 C 423.73 686.31 417.39 687.52 411.15 689.12 C 403.26 691.04 398.11 698.34 395.56 705.62 C 394.39 708.93 393.99 712.45 393.99 715.95 C 393.98 723.65 394.02 731.35 393.99 739.05 C 394.00 744.79 394.00 750.54 393.96 756.30 C 393.70 764.03 393.82 773.22 400.57 778.43 C 406.09 783.51 413.73 780.07 420.06 778.90 C 425.15 778.19 429.56 774.16 430.08 768.94 C 430.71 761.97 430.33 754.94 430.35 747.96 C 430.45 744.37 428.94 739.71 424.78 739.34 C 418.73 739.33 413.12 742.50 407.06 742.36 C 403.80 741.83 402.32 738.45 401.33 735.70 C 401.00 730.86 402.48 725.59 406.44 722.53 C 409.14 720.67 412.55 720.49 415.64 719.66 C 421.57 718.29 428.09 716.09 433.89 719.15 C 442.97 723.62 446.61 734.48 446.44 744.02 C 446.27 752.35 446.86 760.73 446.02 769.05 C 444.78 778.80 439.70 787.90 432.66 794.67 C 427.02 799.24 419.64 800.20 412.80 801.81 C 408.09 802.90 403.01 803.37 398.42 801.56 C 391.73 798.91 385.54 794.23 382.33 787.67 C 379.02 780.97 377.93 773.40 377.95 766.00 C 377.98 750.31 377.95 734.63 377.96 718.95 C 377.83 710.41 380.21 702.07 383.44 694.24 C 387.23 686.04 391.99 677.79 399.74 672.74 C 407.86 667.13 418.04 666.70 427.27 664.09 Z" />
<path fill="#094d61" opacity="1.00" d=" M 1083.56 690.54 C 1095.43 687.82 1107.30 685.04 1119.20 682.44 C 1128.09 680.59 1137.19 685.74 1141.50 693.45 C 1150.74 709.00 1147.63 729.01 1138.81 744.03 C 1143.99 750.11 1146.88 757.94 1146.99 765.92 C 1147.06 777.30 1147.07 788.67 1147.00 800.05 C 1147.03 805.91 1142.82 811.31 1136.99 812.37 C 1134.34 810.61 1131.29 808.49 1131.19 804.97 C 1130.63 793.65 1131.28 782.29 1130.95 770.96 C 1130.83 766.90 1129.25 762.45 1125.49 760.44 C 1122.97 759.03 1120.02 759.93 1117.39 760.43 C 1108.86 762.43 1100.31 764.39 1091.75 766.27 C 1091.54 770.50 1091.53 774.74 1091.56 778.99 C 1091.55 789.99 1091.58 801.00 1091.56 812.01 C 1091.65 817.31 1088.99 823.37 1083.65 825.16 C 1081.78 825.08 1079.58 825.24 1078.22 823.74 C 1075.84 821.53 1075.45 818.11 1075.42 815.05 C 1075.42 778.32 1075.48 741.59 1075.39 704.86 C 1075.01 699.16 1077.41 692.05 1083.56 690.54 M 1091.66 709.98 C 1091.53 714.07 1091.52 718.17 1091.62 722.27 C 1091.55 729.86 1091.46 737.45 1091.68 745.03 C 1101.53 742.71 1111.48 740.79 1121.24 738.07 C 1129.75 732.21 1133.32 720.18 1129.50 710.61 C 1127.79 706.19 1123.05 702.67 1118.19 703.95 C 1109.32 705.85 1100.49 707.93 1091.66 709.98 Z" />
<path fill="#094d61" opacity="1.00" d=" M 259.11 705.10 C 260.97 702.43 264.62 700.51 267.80 702.04 C 271.07 703.65 272.27 707.53 272.18 710.96 C 272.23 740.32 272.12 769.68 272.24 799.04 C 272.16 804.00 275.29 810.29 280.98 810.02 C 289.08 808.90 296.91 806.23 304.99 804.94 C 307.67 804.35 310.01 806.52 311.08 808.78 C 314.24 815.75 310.29 826.00 302.05 826.81 C 294.90 828.23 287.89 830.26 280.71 831.49 C 273.19 832.76 265.73 828.52 261.66 822.35 C 257.35 816.15 256.00 808.43 256.06 801.02 C 256.07 772.92 256.09 744.82 256.06 716.73 C 255.95 712.67 256.51 708.38 259.11 705.10 Z" />
<path fill="#094d61" opacity="1.00" d=" M 552.95 721.99 C 553.01 716.82 556.58 712.37 561.21 710.36 C 563.37 711.12 566.09 711.47 567.36 713.66 C 569.80 717.69 569.03 722.79 567.28 726.93 C 565.81 729.35 563.67 731.81 560.70 732.18 C 558.83 732.08 556.63 732.21 555.28 730.68 C 552.93 728.45 552.91 724.98 552.95 721.99 Z" />
<path fill="#094d61" opacity="1.00" d=" M 982.35 720.39 C 991.94 715.79 1003.68 715.02 1013.28 720.02 C 1025.02 726.35 1032.37 738.68 1035.29 751.40 C 1041.06 777.95 1033.00 807.30 1014.09 826.88 C 1008.06 832.69 1000.89 837.56 992.72 839.73 C 984.22 842.19 974.66 841.65 966.93 837.12 C 956.11 830.94 949.49 819.36 946.49 807.56 C 942.14 789.39 944.92 770.12 952.21 753.08 C 959.09 739.82 968.50 726.93 982.35 720.39 M 965.89 761.84 C 960.93 771.65 959.64 783.13 961.13 793.95 C 962.53 803.19 967.17 812.71 975.72 817.23 C 986.96 823.04 1001.40 817.20 1008.17 807.26 C 1010.72 804.77 1013.38 801.92 1014.11 798.33 C 1017.94 793.15 1019.33 786.64 1020.44 780.43 C 1021.91 769.38 1021.02 757.09 1014.05 747.93 C 1009.58 740.76 1000.50 736.81 992.19 738.49 C 979.96 740.72 970.64 750.82 965.89 761.84 Z" />
<path fill="#094d61" opacity="1.00" d=" M 138.66 730.68 C 141.37 728.36 146.20 728.76 148.02 732.00 C 149.98 735.32 151.06 739.05 152.48 742.62 C 164.48 773.93 176.46 805.25 188.49 836.54 C 190.52 841.19 189.97 846.84 186.90 850.91 C 185.26 853.20 182.53 854.23 180.12 855.49 C 174.11 853.09 173.20 846.27 170.99 841.00 C 161.20 815.68 151.71 790.23 141.69 765.00 C 139.31 772.64 136.75 780.22 134.28 787.84 C 129.46 802.78 124.23 817.60 119.77 832.65 C 115.47 843.98 112.28 855.71 108.10 867.09 C 106.93 870.34 103.79 872.08 100.86 873.53 C 98.38 872.45 95.33 871.45 94.46 868.57 C 92.49 863.54 95.05 858.37 96.51 853.58 C 104.07 830.12 112.00 806.78 119.31 783.24 C 123.84 770.22 128.02 757.07 132.19 743.93 C 133.94 739.37 134.62 733.90 138.66 730.68 Z" />
<path fill="#094d61" opacity="1.00" d=" M 897.46 733.58 C 900.45 732.52 903.78 734.06 905.03 736.96 C 908.13 743.85 904.41 754.20 896.25 755.17 C 890.85 756.41 885.42 757.52 880.07 758.97 L 879.36 759.16 C 879.30 792.78 879.31 826.40 879.31 860.03 C 879.42 865.48 876.52 872.17 870.58 873.15 C 865.14 873.43 862.84 867.64 863.24 863.05 C 863.22 829.64 863.36 796.23 863.18 762.83 C 856.40 763.93 849.86 766.25 843.04 766.98 C 839.08 767.35 837.07 763.14 836.19 759.95 C 835.68 753.91 838.83 746.57 845.39 745.46 C 862.74 741.49 880.10 737.55 897.46 733.58 Z" />
<path fill="#094d61" opacity="1.00" d=" M 746.18 768.24 C 748.56 766.19 752.41 766.20 754.73 768.34 C 756.51 770.42 757.33 773.11 758.35 775.62 C 771.04 808.90 783.86 842.13 796.54 875.40 C 798.85 881.69 795.74 890.82 788.61 892.18 C 785.70 892.24 783.05 890.71 782.19 887.84 C 771.13 859.56 760.63 831.04 749.36 802.83 C 746.70 810.07 744.45 817.45 742.03 824.77 C 734.07 849.16 725.99 873.52 718.03 897.91 C 716.55 902.68 715.04 908.68 709.61 910.32 C 706.93 910.61 703.93 909.92 702.64 907.31 C 699.72 902.42 702.24 896.73 703.82 891.85 C 715.93 854.90 727.95 817.93 740.01 780.96 C 741.62 776.57 742.27 771.30 746.18 768.24 Z" />
<path fill="#094d61" opacity="1.00" d=" M 650.28 791.27 C 652.58 788.76 656.95 787.97 659.53 790.53 C 661.96 792.59 662.33 795.99 662.32 798.99 C 662.31 833.33 662.30 867.67 662.33 902.01 C 662.24 907.74 662.92 914.27 659.07 919.05 C 657.40 921.44 654.54 922.35 651.98 923.40 C 649.74 921.89 647.62 920.12 646.43 917.65 C 635.44 896.96 624.29 876.36 613.30 855.68 C 611.95 853.14 610.49 850.67 608.86 848.31 C 608.11 859.44 608.69 870.60 608.53 881.75 C 608.44 895.47 608.57 909.19 608.48 922.91 C 608.52 928.70 604.68 934.37 598.81 935.48 C 597.13 934.43 595.23 933.59 594.00 932.00 C 592.61 929.97 592.50 927.41 592.41 925.05 C 592.41 888.64 592.48 852.23 592.38 815.82 C 591.96 810.13 594.40 803.29 600.26 801.40 C 603.40 800.30 606.32 802.63 607.65 805.33 C 616.86 822.35 625.93 839.44 635.13 856.46 C 638.73 863.07 642.06 869.84 645.98 876.28 C 646.44 852.13 646.12 827.96 646.14 803.80 C 645.94 799.32 646.87 794.46 650.28 791.27 Z" />
<path fill="#094d61" opacity="1.00" d=" M 133.89 815.91 C 134.69 811.34 138.12 807.99 142.07 805.92 C 144.33 806.76 147.13 807.25 148.36 809.60 C 150.65 813.67 149.75 818.64 148.16 822.80 C 146.25 825.67 143.30 827.50 140.10 828.62 C 138.16 827.43 135.71 826.56 134.69 824.37 C 133.55 821.70 133.79 818.72 133.89 815.91 Z" />
<path fill="#094d61" opacity="1.00" d=" M 541.66 816.65 C 543.85 814.09 548.09 812.86 550.90 815.14 C 553.32 816.92 554.13 820.04 554.04 822.92 C 554.01 860.31 554.08 897.70 554.01 935.08 C 554.04 940.96 549.71 946.31 543.93 947.45 C 540.41 945.61 537.67 942.26 538.03 938.09 C 537.93 901.67 538.08 865.24 537.96 828.82 C 537.77 824.51 538.58 819.88 541.66 816.65 Z" />
<path fill="#094d61" opacity="1.00" d=" M 487.12 829.09 C 488.99 826.19 493.12 824.87 496.10 826.86 C 499.04 828.83 499.76 832.63 499.70 835.94 C 499.69 871.29 499.67 906.65 499.71 942.00 C 499.76 946.74 499.98 951.98 496.93 955.98 C 495.37 958.46 492.49 959.39 489.92 960.43 C 486.23 958.70 483.22 955.38 483.62 951.05 C 483.53 921.37 483.56 891.68 483.62 861.99 C 479.77 867.12 475.98 872.29 472.35 877.58 C 468.18 883.34 464.17 889.22 459.79 894.81 C 457.09 896.11 453.54 897.37 451.07 894.91 C 443.43 888.55 436.68 881.17 428.80 875.10 C 428.35 883.00 428.64 890.92 428.59 898.84 C 428.51 920.53 428.63 942.23 428.53 963.92 C 428.59 969.76 424.72 975.41 418.82 976.58 C 415.17 975.18 412.33 971.98 412.55 967.89 C 412.36 930.88 412.59 893.85 412.44 856.84 C 412.11 851.77 413.75 846.12 418.25 843.28 C 420.88 841.57 424.40 842.22 426.54 844.43 C 436.43 853.48 446.21 862.66 456.14 871.67 C 466.62 857.59 476.73 843.23 487.12 829.09 Z" />
<path fill="#094d61" opacity="1.00" d=" M 741.18 858.77 C 740.51 852.53 743.54 846.14 749.41 843.54 C 751.72 844.26 754.64 844.60 755.90 847.00 C 758.23 851.26 757.40 856.52 755.36 860.72 C 754.02 862.72 752.19 864.42 749.97 865.39 C 748.14 865.31 746.13 865.56 744.51 864.56 C 742.64 863.18 741.89 860.86 741.18 858.77 Z" />
<path fill="#094d61" opacity="1.00" d=" M 313.52 866.24 C 324.38 863.89 335.17 861.22 346.04 858.90 C 353.35 857.30 361.15 860.42 365.87 866.11 C 371.82 873.27 374.36 882.79 374.13 892.00 C 374.14 901.39 371.24 910.56 366.75 918.75 C 365.23 920.56 367.39 922.24 368.26 923.77 C 372.70 929.86 374.20 937.58 374.13 945.00 C 374.09 955.35 374.19 965.71 374.09 976.06 C 374.07 981.16 371.08 987.19 365.63 988.10 C 363.63 987.89 361.34 987.64 360.07 985.87 C 357.62 982.82 358.08 978.65 357.98 975.02 C 358.02 965.99 358.13 956.96 358.01 947.93 C 358.00 943.84 356.64 939.33 352.97 937.09 C 350.25 935.31 346.90 936.37 343.98 936.94 C 335.55 938.98 327.07 940.76 318.66 942.88 C 318.63 946.95 318.63 951.02 318.64 955.10 C 318.55 966.71 318.74 978.32 318.56 989.93 C 318.41 995.68 314.42 1000.88 308.85 1002.41 C 307.23 1001.30 305.45 1000.35 304.19 998.81 C 302.56 996.57 302.56 993.67 302.46 991.03 C 302.48 954.62 302.53 918.20 302.44 881.79 C 302.28 877.37 303.13 872.61 306.35 869.35 C 308.18 867.31 311.00 866.86 313.52 866.24 M 342.80 880.85 C 334.81 882.67 326.86 884.62 318.84 886.29 C 318.54 890.52 318.58 894.77 318.67 899.02 C 318.62 906.48 318.55 913.93 318.71 921.39 C 328.63 919.13 338.67 917.24 348.44 914.34 C 356.19 909.00 359.61 898.57 357.41 889.55 C 356.48 885.78 354.11 882.09 350.36 880.66 C 347.92 879.66 345.26 880.34 342.80 880.85 Z" />
<path fill="#094d61" opacity="1.00" d=" M 233.44 884.61 C 241.03 882.79 248.64 881.00 256.27 879.40 C 258.81 878.70 261.44 880.08 262.68 882.32 C 266.76 889.45 262.46 900.57 253.73 901.29 C 247.35 902.74 240.91 903.93 234.60 905.65 C 227.02 907.69 222.05 914.75 219.67 921.86 C 216.50 933.29 218.38 945.34 217.89 957.04 C 218.19 966.12 217.33 975.26 218.54 984.28 C 219.55 989.13 222.23 993.88 226.61 996.43 C 229.24 997.95 232.44 997.81 235.32 997.19 C 242.32 995.68 249.26 993.83 256.29 992.45 C 259.08 991.65 261.86 993.44 263.01 995.96 C 266.36 1002.87 262.52 1013.31 254.24 1014.17 C 247.69 1015.60 241.19 1017.23 234.63 1018.62 C 228.74 1019.88 222.23 1019.37 217.14 1015.90 C 205.34 1007.86 201.39 992.58 201.98 979.00 C 202.04 964.32 201.95 949.65 202.02 934.97 C 202.05 926.75 203.99 918.63 207.10 911.05 C 212.32 899.58 220.84 888.29 233.44 884.61 Z" />
<path fill="#094d61" opacity="1.00" d=" M 120.52 910.92 C 131.44 908.39 142.37 905.94 153.27 903.39 C 155.99 902.75 159.44 902.08 161.41 904.65 C 166.61 911.33 162.60 923.38 153.90 924.70 C 148.30 925.87 142.71 927.10 137.12 928.32 C 136.93 932.57 136.90 936.82 136.90 941.07 C 136.83 970.74 136.92 1000.41 136.85 1030.08 C 137.05 1036.07 133.11 1041.61 127.33 1043.26 C 125.50 1042.21 123.69 1041.14 121.89 1040.06 C 120.26 1032.47 120.91 1024.69 120.82 1017.00 C 120.87 988.72 120.71 960.45 120.69 932.18 C 113.76 933.45 107.02 935.83 99.99 936.45 C 95.06 935.98 93.52 930.18 93.95 926.01 C 94.32 921.32 97.31 916.26 102.14 915.12 C 108.24 913.60 114.41 912.36 120.52 910.92 Z" />
<path fill="#094d61" opacity="1.00" d=" M 255.37 936.23 C 257.95 935.50 261.01 936.08 262.48 938.51 C 266.81 945.48 262.69 956.99 253.98 957.88 C 245.61 959.54 237.39 961.94 228.98 963.39 C 224.87 964.32 222.42 960.22 221.34 956.93 C 220.65 950.93 223.49 943.43 229.96 942.03 C 238.43 940.08 246.89 938.11 255.37 936.23 Z" />
</g>
<g id="#b0ccccfe">
<path fill="#b0cccc" opacity="1.00" d=" M 708.24 621.31 C 714.52 619.68 720.91 618.47 727.23 616.99 C 727.27 620.66 727.13 624.63 724.72 627.64 C 723.06 630.33 719.96 631.42 717.03 632.05 C 708.94 633.86 700.78 635.47 692.84 637.90 C 695.22 630.56 700.39 623.27 708.24 621.31 Z" />
<path fill="#b0cccc" opacity="1.00" d=" M 670.29 642.30 C 672.78 636.77 675.54 631.11 680.23 627.09 C 677.20 634.67 675.26 642.74 675.27 650.94 C 675.22 664.96 675.30 678.97 675.24 692.99 C 674.99 702.16 675.77 711.68 680.17 719.92 C 684.29 728.10 692.29 735.40 701.98 735.03 C 710.56 734.57 718.75 731.60 727.17 730.07 C 727.57 735.08 726.40 741.03 721.54 743.57 C 717.01 745.55 712.01 746.05 707.26 747.28 C 700.04 748.86 692.39 751.55 685.07 748.96 C 677.49 746.19 671.96 739.41 668.86 732.15 C 665.77 724.86 665.02 716.84 665.13 709.00 C 665.18 695.66 665.17 682.33 665.14 669.00 C 665.08 659.88 666.56 650.66 670.29 642.30 Z" />
<path fill="#b0cccc" opacity="1.00" d=" M 691.01 671.00 C 691.17 661.91 690.50 652.77 691.58 643.71 C 691.88 653.59 691.25 663.50 691.94 673.37 C 694.80 672.64 694.22 669.20 694.84 666.95 C 694.53 670.80 694.44 675.55 697.86 678.14 C 700.05 679.99 703.07 679.05 705.60 678.62 C 712.75 676.95 719.89 675.25 727.06 673.72 C 727.26 677.24 727.15 681.04 724.98 684.01 C 723.32 687.00 719.89 688.08 716.77 688.78 C 708.55 690.58 700.37 692.52 692.14 694.27 C 691.93 695.59 691.73 696.91 691.54 698.25 C 690.59 689.20 691.31 680.08 691.01 671.00 Z" />
<path fill="#b0cccc" opacity="1.00" d=" M 543.61 656.60 C 544.66 652.88 547.16 649.51 551.19 648.86 C 538.89 686.95 526.41 724.99 513.98 763.04 C 512.73 766.94 512.13 771.73 514.92 775.13 C 516.27 776.93 518.67 777.11 520.73 777.36 C 518.76 781.73 517.96 786.91 514.37 790.35 C 511.54 793.22 505.96 792.70 504.05 789.02 C 501.86 784.84 503.35 779.98 504.69 775.78 C 517.77 736.09 530.64 696.33 543.61 656.60 Z" />
<path fill="#b0cccc" opacity="1.00" d=" M 553.27 692.70 C 555.83 685.15 558.02 677.46 560.99 670.05 C 563.95 676.29 566.12 682.87 568.67 689.29 C 576.88 710.75 585.14 732.19 593.33 753.65 C 594.13 756.43 596.47 758.18 598.88 759.54 C 598.97 763.24 598.52 767.16 596.17 770.18 C 594.27 772.93 590.69 774.84 587.36 773.73 C 584.83 772.45 583.80 769.61 582.75 767.18 C 577.65 753.74 572.51 740.32 567.28 726.93 C 569.03 722.79 569.80 717.69 567.36 713.66 C 566.09 711.47 563.37 711.12 561.21 710.36 C 558.22 704.62 557.25 697.92 553.27 692.70 Z" />
<path fill="#b0cccc" opacity="1.00" d=" M 411.15 689.12 C 417.39 687.52 423.73 686.31 430.01 684.85 C 430.10 688.76 429.68 692.94 427.05 696.05 C 424.81 699.07 420.81 699.57 417.42 700.43 C 410.07 701.91 402.81 703.75 395.56 705.62 C 398.11 698.34 403.26 691.04 411.15 689.12 Z" />
<path fill="#b0cccc" opacity="1.00" d=" M 375.00 706.01 C 377.20 701.71 379.39 697.11 383.44 694.24 C 380.21 702.07 377.83 710.41 377.96 718.95 C 377.95 734.63 377.98 750.31 377.95 766.00 C 377.93 773.40 379.02 780.97 382.33 787.67 C 385.54 794.23 391.73 798.91 398.42 801.56 C 403.01 803.37 408.09 802.90 412.80 801.81 C 419.64 800.20 427.02 799.24 432.66 794.67 C 429.44 803.81 422.42 812.36 412.58 814.53 C 404.94 816.03 396.98 819.46 389.20 816.83 C 382.21 814.28 375.57 809.55 372.33 802.68 C 368.72 795.36 367.76 787.07 367.94 779.00 C 368.01 763.66 367.94 748.32 367.97 732.98 C 367.92 723.55 371.08 714.47 375.00 706.01 Z" />
<path fill="#b0cccc" opacity="1.00" d=" M 246.08 729.95 C 245.94 724.11 249.31 716.58 256.06 716.73 C 256.09 744.82 256.07 772.92 256.06 801.02 C 256.00 808.43 257.35 816.15 261.66 822.35 C 265.73 828.52 273.19 832.76 280.71 831.49 C 287.89 830.26 294.90 828.23 302.05 826.81 C 302.23 831.58 301.27 837.13 297.00 839.97 C 292.34 842.34 287.00 842.70 282.01 844.04 C 275.60 845.38 268.86 848.11 262.35 845.72 C 255.12 843.51 250.29 836.86 248.05 829.93 C 245.83 823.53 246.00 816.67 246.06 810.00 C 246.11 783.32 246.05 756.63 246.08 729.95 Z" />
<path fill="#b0cccc" opacity="1.00" d=" M 544.10 732.10 C 545.66 727.49 551.95 726.88 552.95 721.99 C 552.91 724.98 552.93 728.45 555.28 730.68 C 556.63 732.21 558.83 732.08 560.70 732.18 C 558.04 735.61 558.88 740.58 555.84 743.81 C 553.72 747.04 549.04 748.36 545.75 746.23 C 541.92 742.70 542.33 736.57 544.10 732.10 Z" />
<path fill="#b0cccc" opacity="1.00" d=" M 393.99 739.05 C 396.24 737.54 398.72 736.42 401.33 735.70 C 402.32 738.45 403.80 741.83 407.06 742.36 C 413.12 742.50 418.73 739.33 424.78 739.34 C 428.94 739.71 430.45 744.37 430.35 747.96 C 430.33 754.94 430.71 761.97 430.08 768.94 C 429.56 774.16 425.15 778.19 420.06 778.90 C 420.14 772.33 420.84 765.69 419.78 759.18 C 419.35 756.15 416.28 753.89 413.26 754.41 C 406.83 755.12 400.49 758.46 393.96 756.30 C 394.00 750.54 394.00 744.79 393.99 739.05 Z" />
<path fill="#b0cccc" opacity="1.00" d=" M 965.89 761.84 C 970.64 750.82 979.96 740.72 992.19 738.49 C 1000.50 736.81 1009.58 740.76 1014.05 747.93 C 1014.23 764.73 1014.08 781.53 1014.11 798.33 C 1013.38 801.92 1010.72 804.77 1008.17 807.26 C 1010.21 797.30 1012.36 787.01 1010.11 776.89 C 1008.17 767.09 1002.12 756.95 992.06 753.94 C 982.63 751.18 972.94 755.77 965.89 761.84 Z" />
<path fill="#b0cccc" opacity="1.00" d=" M 125.27 750.28 C 126.46 747.18 129.46 745.48 132.19 743.93 C 128.02 757.07 123.84 770.22 119.31 783.24 C 119.37 778.76 119.24 774.28 119.16 769.81 C 119.12 768.68 119.15 767.56 119.27 766.45 C 121.77 761.25 123.09 755.60 125.27 750.28 Z" />
<path fill="#b0cccc" opacity="1.00" d=" M 939.47 775.43 C 942.42 767.34 946.26 759.41 952.21 753.08 C 944.92 770.12 942.14 789.39 946.49 807.56 C 949.49 819.36 956.11 830.94 966.93 837.12 C 974.66 841.65 984.22 842.19 992.72 839.73 C 1000.89 837.56 1008.06 832.69 1014.09 826.88 C 1014.11 827.60 1014.13 829.02 1014.15 829.74 C 1009.75 835.42 1005.25 841.10 999.68 845.70 C 991.49 852.60 980.76 856.84 969.97 856.07 C 962.01 855.59 954.52 851.65 949.09 845.91 C 941.57 838.32 937.20 828.07 935.48 817.63 C 933.31 803.52 934.63 788.87 939.47 775.43 Z" />
<path fill="#b0cccc" opacity="1.00" d=" M 880.07 758.97 C 885.42 757.52 890.85 756.41 896.25 755.17 C 895.94 759.20 895.57 763.59 892.75 766.77 C 889.59 770.47 884.31 770.58 879.86 771.27 C 879.49 767.17 879.50 763.04 880.07 758.97 Z" />
<path fill="#b0cccc" opacity="1.00" d=" M 826.21 773.90 C 825.66 767.56 829.93 761.37 836.19 759.95 C 837.07 763.14 839.08 767.35 843.04 766.98 C 849.86 766.25 856.40 763.93 863.18 762.83 C 863.36 796.23 863.22 829.64 863.24 863.05 C 862.84 867.64 865.14 873.43 870.58 873.15 C 868.55 877.13 868.92 882.25 865.43 885.44 C 863.17 888.31 858.18 889.33 855.66 886.30 C 853.32 883.84 853.21 880.24 853.13 877.05 C 853.20 849.03 853.14 821.02 853.16 793.00 C 853.21 787.98 853.22 782.95 852.96 777.94 C 846.21 778.81 839.78 781.38 833.01 781.98 C 828.69 782.36 826.33 777.59 826.21 773.90 Z" />
<path fill="#b0cccc" opacity="1.00" d=" M 141.69 765.00 C 151.71 790.23 161.20 815.68 170.99 841.00 C 173.20 846.27 174.11 853.09 180.12 855.49 C 179.58 860.86 177.92 867.21 172.33 869.38 C 168.74 870.96 165.44 867.82 164.35 864.61 C 158.82 850.72 153.77 836.65 148.16 822.80 C 149.75 818.64 150.65 813.67 148.36 809.60 C 147.13 807.25 144.33 806.76 142.07 805.92 C 139.23 799.99 137.50 793.59 134.28 787.84 C 136.75 780.22 139.31 772.64 141.69 765.00 Z" />
<path fill="#b0cccc" opacity="1.00" d=" M 732.50 788.55 C 733.58 784.89 736.84 782.70 740.01 780.96 C 727.95 817.93 715.93 854.90 703.82 891.85 C 702.24 896.73 699.72 902.42 702.64 907.31 C 703.93 909.92 706.93 910.61 709.61 910.32 C 707.35 913.81 706.57 917.99 704.58 921.61 C 702.45 925.26 696.55 926.95 693.57 923.39 C 690.72 920.39 690.92 915.87 692.12 912.20 C 705.58 870.99 718.94 829.73 732.50 788.55 Z" />
<path fill="#b0cccc" opacity="1.00" d=" M 749.36 802.83 C 760.63 831.04 771.13 859.56 782.19 887.84 C 783.05 890.71 785.70 892.24 788.61 892.18 C 786.40 896.33 786.91 901.82 783.00 905.03 C 780.32 907.90 774.65 908.11 772.87 904.15 C 769.51 897.20 767.39 889.71 764.40 882.60 C 761.35 875.32 759.29 867.60 755.36 860.72 C 757.40 856.52 758.23 851.26 755.90 847.00 C 754.64 844.60 751.72 844.26 749.41 843.54 C 746.89 837.30 744.73 830.93 742.03 824.77 C 744.45 817.45 746.70 810.07 749.36 802.83 Z" />
<path fill="#b0cccc" opacity="1.00" d=" M 636.19 815.97 C 636.27 810.30 639.99 804.14 646.14 803.80 C 646.12 827.96 646.44 852.13 645.98 876.28 C 642.06 869.84 638.73 863.07 635.13 856.46 C 636.88 850.79 635.95 844.82 636.12 839.00 C 636.23 831.32 635.94 823.64 636.19 815.97 Z" />
<path fill="#b0cccc" opacity="1.00" d=" M 132.74 820.50 C 133.12 818.96 133.49 817.43 133.89 815.91 C 133.79 818.72 133.55 821.70 134.69 824.37 C 135.71 826.56 138.16 827.43 140.10 828.62 C 139.49 833.07 138.93 838.14 135.22 841.20 C 132.35 843.83 126.97 843.66 124.99 840.04 C 123.15 836.29 123.45 831.72 124.90 827.89 C 126.28 824.37 129.78 822.51 132.74 820.50 Z" />
<path fill="#b0cccc" opacity="1.00" d=" M 582.39 829.09 C 582.17 822.99 586.16 816.92 592.38 815.82 C 592.48 852.23 592.41 888.64 592.41 925.05 C 592.50 927.41 592.61 929.97 594.00 932.00 C 595.23 933.59 597.13 934.43 598.81 935.48 C 598.41 939.74 597.80 944.43 594.53 947.54 C 592.28 950.07 588.10 950.86 585.36 948.65 C 582.64 946.29 582.38 942.39 582.31 939.05 C 582.43 902.39 582.27 865.74 582.39 829.09 Z" />
<path fill="#b0cccc" opacity="1.00" d=" M 531.22 832.22 C 532.77 830.00 535.47 829.36 537.96 828.82 C 538.08 865.24 537.93 901.67 538.03 938.09 C 537.67 942.26 540.41 945.61 543.93 947.45 C 544.02 950.70 543.95 954.19 542.01 956.98 C 540.16 960.24 536.29 962.82 532.46 961.56 C 528.87 959.91 527.86 955.67 527.98 952.06 C 528.00 917.37 528.03 882.68 527.97 848.00 C 528.00 842.65 527.30 836.50 531.22 832.22 Z" />
<path fill="#b0cccc" opacity="1.00" d=" M 608.86 848.31 C 610.49 850.67 611.95 853.14 613.30 855.68 C 624.29 876.36 635.44 896.96 646.43 917.65 C 647.62 920.12 649.74 921.89 651.98 923.40 C 652.53 929.20 649.78 936.14 643.63 937.63 C 640.53 938.45 637.99 935.86 636.74 933.33 C 630.31 920.80 623.41 908.51 616.90 896.02 C 614.19 891.21 611.91 886.14 608.53 881.75 C 608.69 870.60 608.11 859.44 608.86 848.31 Z" />
<path fill="#b0cccc" opacity="1.00" d=" M 402.69 868.99 C 402.38 863.14 406.72 857.87 412.44 856.84 C 412.59 893.85 412.36 930.88 412.55 967.89 C 412.33 971.98 415.17 975.18 418.82 976.58 C 418.42 980.61 417.90 984.97 415.15 988.17 C 413.11 990.67 409.46 991.70 406.42 990.58 C 403.03 988.73 402.61 984.45 402.60 981.00 C 402.72 943.66 402.55 906.32 402.69 868.99 Z" />
<path fill="#b0cccc" opacity="1.00" d=" M 731.92 876.06 C 729.46 869.23 733.14 859.42 741.18 858.77 C 741.89 860.86 742.64 863.18 744.51 864.56 C 746.13 865.56 748.14 865.31 749.97 865.39 C 749.15 865.69 748.33 866.01 747.53 866.34 C 747.08 871.21 746.14 876.91 741.52 879.61 C 738.09 881.89 733.15 879.89 731.92 876.06 Z" />
<path fill="#b0cccc" opacity="1.00" d=" M 472.35 877.58 C 475.98 872.29 479.77 867.12 483.62 861.99 C 483.56 891.68 483.53 921.37 483.62 951.05 C 483.22 955.38 486.23 958.70 489.92 960.43 C 489.70 965.82 488.03 972.40 482.36 974.43 C 478.89 975.97 475.16 973.07 474.19 969.81 C 473.38 965.92 473.66 961.93 473.63 958.00 C 473.69 935.00 473.61 912.00 473.67 889.00 C 473.54 885.18 474.48 881.01 472.35 877.58 Z" />
<path fill="#b0cccc" opacity="1.00" d=" M 428.80 875.10 C 436.68 881.17 443.43 888.55 451.07 894.91 C 453.54 897.37 457.09 896.11 459.79 894.81 C 457.43 899.81 454.06 904.26 450.55 908.51 C 448.38 911.40 443.89 912.20 441.00 909.92 C 436.57 906.56 433.07 902.14 428.59 898.84 C 428.64 890.92 428.35 883.00 428.80 875.10 Z" />
<path fill="#b0cccc" opacity="1.00" d=" M 342.80 880.85 C 345.26 880.34 347.92 879.66 350.36 880.66 C 354.11 882.09 356.48 885.78 357.41 889.55 C 359.61 898.57 356.19 909.00 348.44 914.34 C 347.97 909.87 348.18 905.10 346.03 901.01 C 344.25 897.79 340.95 894.83 337.04 895.22 C 330.79 895.79 324.82 897.93 318.67 899.02 C 318.58 894.77 318.54 890.52 318.84 886.29 C 326.86 884.62 334.81 882.67 342.80 880.85 Z" />
<path fill="#b0cccc" opacity="1.00" d=" M 296.30 884.29 C 297.81 882.48 300.31 882.33 302.44 881.79 C 302.53 918.20 302.48 954.62 302.46 991.03 C 302.56 993.67 302.56 996.57 304.19 998.81 C 305.45 1000.35 307.23 1001.30 308.85 1002.41 C 308.73 1007.87 306.75 1014.05 301.32 1016.36 C 297.53 1018.16 293.75 1014.54 292.95 1011.01 C 291.92 1006.41 292.41 1001.66 292.35 997.00 C 292.37 964.00 292.36 931.00 292.35 898.01 C 292.44 893.24 292.83 887.93 296.30 884.29 Z" />
<path fill="#b0cccc" opacity="1.00" d=" M 234.60 905.65 C 240.91 903.93 247.35 902.74 253.73 901.29 C 254.32 905.11 253.84 909.20 251.23 912.21 C 249.08 915.38 245.06 915.92 241.62 916.73 C 234.26 918.25 226.97 920.09 219.67 921.86 C 222.05 914.75 227.02 907.69 234.60 905.65 Z" />
<path fill="#b0cccc" opacity="1.00" d=" M 192.18 945.98 C 193.42 933.26 197.89 920.22 207.10 911.05 C 203.99 918.63 202.05 926.75 202.02 934.97 C 201.95 949.65 202.04 964.32 201.98 979.00 C 201.39 992.58 205.34 1007.86 217.14 1015.90 C 222.23 1019.37 228.74 1019.88 234.63 1018.62 C 241.19 1017.23 247.69 1015.60 254.24 1014.17 C 254.32 1019.14 253.15 1024.79 248.63 1027.63 C 244.70 1029.59 240.22 1029.93 236.02 1031.03 C 228.13 1032.74 219.85 1035.77 211.81 1033.18 C 203.09 1030.13 197.41 1021.84 194.53 1013.42 C 190.99 1003.66 192.19 993.15 192.00 983.00 C 192.12 970.66 191.74 958.31 192.18 945.98 Z" />
<path fill="#b0cccc" opacity="1.00" d=" M 137.12 928.32 C 142.71 927.10 148.30 925.87 153.90 924.70 C 153.37 929.32 152.75 934.70 148.70 937.68 C 145.16 939.86 140.88 940.21 136.90 941.07 C 136.90 936.82 136.93 932.57 137.12 928.32 Z" />
<path fill="#b0cccc" opacity="1.00" d=" M 343.98 936.94 C 346.90 936.37 350.25 935.31 352.97 937.09 C 356.64 939.33 358.00 943.84 358.01 947.93 C 358.13 956.96 358.02 965.99 357.98 975.02 C 358.08 978.65 357.62 982.82 360.07 985.87 C 361.34 987.64 363.63 987.89 365.63 988.10 C 363.27 991.96 363.98 997.20 360.40 1000.39 C 358.51 1002.74 355.25 1003.80 352.39 1002.69 C 349.65 1001.20 348.08 998.11 348.10 995.05 C 347.76 983.71 348.42 972.35 347.87 961.03 C 347.67 956.31 344.28 950.86 339.04 951.13 C 332.13 951.83 325.58 954.49 318.64 955.10 C 318.63 951.02 318.63 946.95 318.66 942.88 C 327.07 940.76 335.55 938.98 343.98 936.94 Z" />
<path fill="#b0cccc" opacity="1.00" d=" M 217.89 957.04 C 218.75 957.02 220.48 956.96 221.34 956.93 C 222.42 960.22 224.87 964.32 228.98 963.39 C 237.39 961.94 245.61 959.54 253.98 957.88 C 254.49 963.30 252.61 970.04 246.92 971.95 C 238.15 974.61 229.02 975.90 220.18 978.27 C 217.63 978.98 218.98 982.35 218.54 984.28 C 217.33 975.26 218.19 966.12 217.89 957.04 Z" />
<path fill="#b0cccc" opacity="1.00" d=" M 121.89 1040.06 C 123.69 1041.14 125.50 1042.21 127.33 1043.26 C 126.93 1048.50 123.98 1052.96 122.75 1057.96 C 121.83 1066.05 123.88 1074.09 124.02 1082.19 C 122.24 1073.93 122.23 1065.45 122.24 1057.05 C 122.16 1051.39 122.56 1045.70 121.89 1040.06 Z" />
</g>
<g id="#0303032a">
<path fill="#030303" opacity="0.16" d=" M 1091.66 709.98 C 1100.49 707.93 1109.32 705.85 1118.19 703.95 C 1123.05 702.67 1127.79 706.19 1129.50 710.61 C 1133.32 720.18 1129.75 732.21 1121.24 738.07 C 1120.99 732.30 1120.97 725.75 1116.69 721.31 C 1114.29 718.68 1110.41 718.55 1107.15 719.15 C 1101.95 720.10 1096.86 721.56 1091.62 722.27 C 1091.52 718.17 1091.53 714.07 1091.66 709.98 Z" />
<path fill="#030303" opacity="0.16" d=" M 1065.34 716.99 C 1065.30 711.14 1069.84 706.19 1075.39 704.86 C 1075.48 741.59 1075.42 778.32 1075.42 815.05 C 1075.45 818.11 1075.84 821.53 1078.22 823.74 C 1079.58 825.24 1081.78 825.08 1083.65 825.16 C 1080.89 828.20 1080.95 832.56 1079.01 836.01 C 1077.18 839.21 1072.93 841.18 1069.43 839.63 C 1066.57 837.80 1065.13 834.38 1065.28 831.06 C 1065.36 793.04 1065.26 755.01 1065.34 716.99 Z" />
<path fill="#030303" opacity="0.16" d=" M 1014.05 747.93 C 1021.02 757.09 1021.91 769.38 1020.44 780.43 C 1019.33 786.64 1017.94 793.15 1014.11 798.33 C 1014.08 781.53 1014.23 764.73 1014.05 747.93 Z" />
<path fill="#030303" opacity="0.16" d=" M 1117.39 760.43 C 1120.02 759.93 1122.97 759.03 1125.49 760.44 C 1129.25 762.45 1130.83 766.90 1130.95 770.96 C 1131.28 782.29 1130.63 793.65 1131.19 804.97 C 1131.29 808.49 1134.34 810.61 1136.99 812.37 C 1137.00 816.13 1136.58 820.12 1134.18 823.19 C 1132.09 826.15 1127.55 827.95 1124.35 825.67 C 1121.83 824.02 1121.22 820.82 1121.08 818.04 C 1120.72 807.04 1121.43 796.01 1120.85 785.02 C 1120.61 780.21 1117.41 774.61 1112.00 774.80 C 1105.04 775.36 1098.44 777.93 1091.56 778.99 C 1091.53 774.74 1091.54 770.50 1091.75 766.27 C 1100.31 764.39 1108.86 762.43 1117.39 760.43 Z" />
<path fill="#030303" opacity="0.16" d=" M 103.58 816.63 C 108.68 800.99 113.36 785.20 119.16 769.81 C 119.24 774.28 119.37 778.76 119.31 783.24 C 112.00 806.78 104.07 830.12 96.51 853.58 C 95.05 858.37 92.49 863.54 94.46 868.57 C 95.33 871.45 98.38 872.45 100.86 873.53 C 99.26 878.64 98.25 885.51 92.39 887.43 C 87.74 889.60 83.81 884.18 83.83 879.98 C 84.02 873.91 86.93 868.38 88.59 862.63 C 93.41 847.24 98.50 831.93 103.58 816.63 Z" />
<path fill="#030303" opacity="0.16" d=" M 85.58 935.60 C 87.51 931.60 93.04 930.69 93.95 926.01 C 93.52 930.18 95.06 935.98 99.99 936.45 C 107.02 935.83 113.76 933.45 120.69 932.18 C 120.71 960.45 120.87 988.72 120.82 1017.00 C 120.91 1024.69 120.26 1032.47 121.89 1040.06 C 122.56 1045.70 122.16 1051.39 122.24 1057.05 C 119.47 1057.22 116.24 1058.14 113.83 1056.23 C 111.26 1054.35 110.99 1050.92 110.88 1048.02 C 110.82 1014.63 111.00 981.23 110.80 947.84 C 102.84 947.52 95.28 952.56 87.39 950.67 C 83.29 946.91 82.91 940.29 85.58 935.60 Z" />
<path fill="#030303" opacity="0.16" d=" M 960.74 1017.51 C 962.01 1016.30 963.31 1015.14 964.65 1014.00 C 965.90 1015.94 962.54 1019.00 960.74 1017.51 Z" />
<path fill="#030303" opacity="0.16" d=" M 764.13 1072.96 C 764.91 1072.28 765.83 1072.02 766.86 1072.17 C 766.38 1073.87 765.47 1074.13 764.13 1072.96 Z" />
</g>
<g id="#090a0afb">
<path fill="#090a0a" opacity="1.00" d=" M 1029.42 888.37 C 1032.69 885.42 1038.54 884.75 1041.49 888.51 C 1045.21 892.40 1044.44 898.07 1044.96 902.97 C 1045.27 905.68 1048.29 906.59 1049.95 908.35 C 1050.96 909.90 1050.02 911.83 1049.20 913.25 C 1046.73 915.14 1044.15 912.51 1042.08 911.28 C 1039.65 914.15 1036.92 917.41 1032.90 917.77 C 1028.35 918.56 1024.73 914.45 1023.68 910.42 C 1021.88 902.80 1023.21 893.69 1029.42 888.37 M 1033.34 893.30 C 1028.52 895.24 1027.84 901.28 1028.46 905.80 C 1028.62 908.65 1031.44 911.72 1034.46 910.44 C 1039.43 908.17 1039.98 901.77 1039.13 897.04 C 1038.73 894.44 1035.96 892.10 1033.34 893.30 Z" />
<path fill="#090a0a" opacity="1.00" d=" M 939.11 896.96 C 939.19 894.45 938.62 891.29 941.04 889.65 C 941.80 889.65 943.31 889.64 944.07 889.64 C 944.59 895.76 944.31 901.90 944.30 908.04 C 946.89 906.42 949.67 904.35 952.93 905.01 C 957.99 905.82 960.57 911.27 960.68 915.95 C 960.77 921.23 960.99 926.53 960.57 931.80 C 960.40 934.05 958.24 935.04 956.23 934.96 C 954.44 928.81 956.13 922.31 955.20 916.05 C 954.81 913.73 952.63 911.43 950.12 912.04 C 946.84 912.71 944.94 916.12 944.51 919.21 C 944.00 924.75 944.71 930.35 944.18 935.89 C 944.07 938.50 939.69 939.96 939.29 936.78 C 938.90 923.52 939.27 910.23 939.11 896.96 Z" />
<path fill="#090a0a" opacity="1.00" d=" M 973.29 897.01 C 973.12 894.60 973.13 891.36 975.98 890.53 C 980.98 891.10 977.66 900.26 973.29 897.01 Z" />
<path fill="#090a0a" opacity="1.00" d=" M 1000.44 893.49 C 1005.67 891.90 1010.27 897.05 1010.46 901.99 C 1010.77 907.97 1010.59 913.99 1010.59 919.99 C 1011.16 922.92 1006.02 925.30 1005.48 921.61 C 1004.98 915.77 1005.67 909.88 1005.18 904.04 C 1005.04 902.01 1003.31 899.93 1001.14 900.31 C 998.40 900.79 996.72 903.61 996.37 906.18 C 995.92 912.08 996.66 918.03 996.03 923.93 C 995.81 925.89 993.61 927.63 991.74 926.41 C 990.35 923.85 991.17 920.77 990.96 918.00 C 991.23 912.48 990.09 906.64 992.44 901.45 C 993.97 897.94 996.59 894.53 1000.44 893.49 Z" />
<path fill="#090a0a" opacity="1.00" d=" M 918.56 901.54 C 920.68 899.89 923.32 899.10 926.00 899.06 C 926.83 901.48 927.07 905.13 923.96 905.97 C 916.95 908.33 913.03 915.92 912.98 922.99 C 912.87 927.15 914.20 931.78 917.74 934.29 C 920.20 936.10 923.40 935.41 926.24 935.64 C 926.53 937.76 927.09 940.51 924.98 941.95 C 921.37 943.56 916.96 942.49 913.96 940.08 C 910.04 936.96 908.20 931.90 907.80 927.04 C 906.96 917.51 910.73 907.31 918.56 901.54 Z" />
<path fill="#090a0a" opacity="1.00" d=" M 975.33 899.36 C 977.07 898.33 978.58 900.33 978.42 902.00 C 978.63 910.00 978.49 918.03 978.49 926.04 C 978.58 928.04 977.63 931.10 975.12 930.83 C 973.70 930.95 973.20 929.08 973.22 927.98 C 973.10 920.30 973.23 912.61 973.17 904.93 C 973.11 902.91 973.27 900.38 975.33 899.36 Z" />
<path fill="#090a0a" opacity="1.00" d=" M 889.36 925.17 C 890.86 924.84 892.38 924.46 893.94 924.48 C 896.16 926.23 895.36 930.74 892.52 931.39 C 889.30 932.30 886.01 932.92 882.77 933.70 C 881.43 933.89 879.67 934.64 878.71 933.27 C 877.46 931.09 878.46 927.63 881.10 927.13 C 883.82 926.35 886.60 925.82 889.36 925.17 Z" />
<path fill="#090a0a" opacity="1.00" d=" M 846.83 933.79 C 848.88 930.10 852.52 926.72 856.98 926.75 C 861.60 926.82 864.91 931.27 865.46 935.54 C 866.11 941.00 865.63 946.51 865.77 952.00 C 865.61 958.20 866.61 964.86 863.50 970.55 C 861.35 974.75 857.15 978.85 852.04 978.16 C 846.89 977.35 844.18 971.82 844.19 967.03 C 843.90 964.80 845.22 961.77 847.86 962.02 C 850.47 964.03 848.78 968.44 851.67 970.37 C 853.88 972.18 857.09 970.68 858.49 968.57 C 861.28 964.90 860.30 960.04 860.40 955.77 C 857.92 957.24 855.29 959.12 852.25 958.68 C 847.88 958.14 845.08 953.88 844.46 949.82 C 843.73 944.41 844.04 938.61 846.83 933.79 M 854.29 934.15 C 849.16 936.49 848.92 943.12 849.81 947.93 C 850.31 950.95 854.06 952.82 856.61 950.84 C 860.73 948.06 860.87 942.47 860.25 938.04 C 859.92 935.32 857.03 932.83 854.29 934.15 Z" />
<path fill="#090a0a" opacity="1.00" d=" M 795.46 932.39 C 796.38 930.97 799.16 931.07 799.35 932.98 C 800.45 935.48 798.11 939.86 795.13 938.13 C 793.93 936.40 794.05 933.94 795.46 932.39 Z" />
<path fill="#090a0a" opacity="1.00" d=" M 818.67 935.67 C 821.23 933.79 824.99 933.39 827.62 935.40 C 830.95 937.74 831.82 942.10 831.77 945.94 C 831.72 950.89 831.93 955.86 831.67 960.81 C 831.67 962.91 829.43 965.38 827.33 963.95 C 826.22 962.54 826.47 960.69 826.41 959.05 C 826.35 954.37 826.63 949.68 826.32 945.01 C 826.20 942.92 824.42 940.66 822.14 941.14 C 819.42 941.76 817.75 944.57 817.45 947.19 C 817.03 953.08 817.74 959.01 817.14 964.88 C 816.82 967.28 814.35 967.99 812.35 967.22 C 811.85 961.47 812.12 955.69 812.07 949.93 C 811.97 944.54 814.25 938.89 818.67 935.67 Z" />
<path fill="#090a0a" opacity="1.00" d=" M 778.29 935.95 C 782.69 933.79 782.95 942.00 779.03 942.72 C 775.63 942.48 776.01 937.45 778.29 935.95 Z" />
<path fill="#090a0a" opacity="1.00" d=" M 796.30 940.17 C 797.30 940.16 798.30 940.23 799.30 940.38 C 799.85 948.25 799.41 956.15 799.58 964.04 C 799.46 966.02 799.87 968.18 798.97 970.04 C 798.30 971.83 796.30 971.41 794.81 971.66 C 793.79 964.15 794.58 956.54 794.31 948.99 C 794.52 946.04 793.47 942.19 796.30 940.17 Z" />
<path fill="#090a0a" opacity="1.00" d=" M 776.59 948.95 C 776.41 946.94 777.42 944.06 779.85 944.25 C 782.12 944.51 781.75 947.27 781.84 948.92 C 781.69 959.89 782.03 970.87 781.67 981.82 C 780.90 987.64 776.59 994.93 769.89 994.23 C 769.82 992.56 769.34 990.81 770.00 989.22 C 771.60 987.38 774.30 986.77 775.54 984.57 C 776.53 982.91 776.54 980.92 776.60 979.06 C 776.60 969.02 776.55 958.98 776.59 948.95 Z" />
<path fill="#090a0a" opacity="1.00" d=" M 739.37 958.33 C 741.27 954.36 745.18 950.54 749.92 951.16 C 754.43 951.89 756.98 956.65 756.99 960.91 C 756.97 966.88 757.26 972.88 756.83 978.84 C 756.42 981.06 754.17 981.53 752.26 981.22 C 751.33 974.85 752.24 968.40 751.68 962.01 C 751.56 959.82 749.55 957.59 747.23 958.24 C 744.41 959.11 742.83 962.16 742.73 964.97 C 742.44 970.51 742.95 976.07 742.53 981.60 C 742.37 983.64 740.09 985.60 738.15 984.24 C 736.85 981.70 737.54 978.73 737.38 976.01 C 737.62 970.11 736.46 963.77 739.37 958.33 Z" />
<path fill="#090a0a" opacity="1.00" d=" M 1029.98 955.01 C 1033.38 951.77 1038.61 949.96 1043.11 951.90 C 1048.06 954.14 1050.48 959.78 1050.74 964.96 C 1050.95 970.98 1050.76 977.01 1050.83 983.04 C 1051.04 991.22 1048.17 999.55 1042.62 1005.62 C 1039.87 1008.46 1036.28 1011.07 1032.19 1011.14 C 1029.72 1010.40 1029.66 1007.26 1030.18 1005.21 C 1030.79 1002.25 1034.18 1001.78 1036.35 1000.36 C 1041.60 997.26 1043.54 990.88 1043.99 985.14 C 1040.90 986.92 1037.77 989.26 1034.02 989.07 C 1028.72 989.09 1024.65 984.45 1023.40 979.64 C 1021.12 971.07 1023.56 961.21 1029.98 955.01 M 1035.34 961.27 C 1030.94 963.60 1028.89 969.21 1029.83 973.96 C 1030.39 977.19 1033.30 980.66 1036.92 979.32 C 1042.66 977.16 1045.20 969.58 1042.85 964.12 C 1041.63 961.32 1038.13 959.68 1035.34 961.27 Z" />
<path fill="#090a0a" opacity="1.00" d=" M 679.65 958.95 C 679.62 957.12 680.09 954.69 682.15 954.18 C 683.84 953.69 685.06 955.46 684.88 957.01 C 684.98 969.03 684.94 981.05 684.89 993.07 C 685.03 995.26 683.71 997.95 681.21 997.87 C 679.22 996.01 678.33 993.32 676.98 991.01 C 673.77 985.21 670.92 979.20 667.40 973.58 C 667.23 981.72 667.50 989.87 667.29 998.01 C 667.47 1000.26 665.04 1002.92 662.83 1001.29 C 661.87 999.71 662.19 997.78 662.11 996.05 C 662.26 984.42 661.93 972.78 662.26 961.16 C 662.25 959.06 665.61 956.65 666.81 959.17 C 671.34 966.74 674.99 974.82 679.59 982.36 C 679.74 974.55 679.57 966.75 679.65 958.95 Z" />
<path fill="#090a0a" opacity="1.00" d=" M 703.19 963.16 C 706.35 960.00 712.22 958.89 715.48 962.51 C 719.38 966.26 718.93 971.98 719.15 976.92 C 719.36 980.01 722.52 981.20 724.76 982.64 C 724.62 984.78 724.47 987.68 721.93 988.34 C 719.69 988.23 718.01 986.64 716.33 985.36 C 714.11 988.57 711.11 991.85 706.95 992.10 C 702.16 992.76 698.67 988.15 697.82 983.94 C 696.48 976.73 697.61 968.38 703.19 963.16 M 707.56 967.63 C 702.55 969.83 702.08 976.26 702.92 980.97 C 703.36 983.87 706.68 986.19 709.42 984.49 C 713.86 981.82 714.24 975.98 713.47 971.39 C 713.05 968.75 710.22 966.37 707.56 967.63 Z" />
<path fill="#090a0a" opacity="1.00" d=" M 991.57 962.72 C 993.42 959.93 997.17 961.06 999.95 961.16 C 1003.42 964.10 1005.81 968.31 1005.70 972.97 C 1005.82 985.99 1005.73 999.02 1005.75 1012.04 C 1005.85 1014.60 1004.90 1017.91 1001.99 1018.43 C 999.48 1018.85 998.54 1015.99 998.76 1014.01 C 998.68 1001.65 998.77 989.29 998.75 976.93 C 998.75 974.64 998.55 971.42 995.84 970.77 C 994.20 970.38 992.54 970.06 990.93 969.71 C 990.64 967.38 989.95 964.73 991.57 962.72 Z" />
<path fill="#090a0a" opacity="1.00" d=" M 617.19 969.10 C 619.02 968.36 620.23 970.39 620.05 972.01 C 620.18 980.35 620.05 988.70 620.10 997.04 C 620.24 1002.55 618.03 1008.21 613.85 1011.88 C 611.12 1014.27 606.85 1015.37 603.59 1013.38 C 599.73 1011.07 598.44 1006.25 598.45 1002.01 C 598.41 994.32 598.46 986.62 598.42 978.93 C 598.45 976.90 598.34 974.35 600.30 973.10 C 601.81 972.00 603.77 973.47 603.67 975.20 C 603.97 984.13 603.63 993.09 603.79 1002.03 C 603.74 1004.71 605.95 1007.95 608.94 1007.30 C 612.70 1006.53 614.71 1002.42 614.86 998.89 C 615.05 990.25 614.76 981.61 614.96 972.98 C 614.90 971.40 615.68 969.73 617.19 969.10 Z" />
<path fill="#090a0a" opacity="1.00" d=" M 949.41 979.47 C 951.41 974.78 955.01 970.29 960.10 968.89 C 963.41 967.88 967.19 968.94 969.53 971.48 C 972.49 974.50 973.56 978.85 973.56 982.98 C 973.62 990.15 973.46 997.33 973.64 1004.50 C 974.23 1012.87 971.09 1022.10 963.62 1026.60 C 959.73 1029.08 954.49 1028.13 951.27 1025.00 C 945.91 1018.51 947.74 1009.71 947.44 1002.00 C 947.75 994.49 946.34 986.58 949.41 979.47 M 954.59 986.97 C 954.47 994.31 954.62 1001.65 954.54 1009.00 C 954.58 1011.42 954.35 1014.07 955.70 1016.24 C 956.66 1017.89 959.26 1019.49 960.74 1017.51 C 962.54 1019.00 965.90 1015.94 964.65 1014.00 C 966.78 1012.34 966.40 1009.38 966.51 1007.00 C 966.41 999.33 966.59 991.65 966.43 983.98 C 966.53 981.05 964.28 977.78 961.12 978.03 C 957.06 978.77 954.62 983.09 954.59 986.97 Z" />
<path fill="#090a0a" opacity="1.00" d=" M 573.39 979.40 C 577.01 977.50 581.19 977.06 585.18 976.44 C 585.96 978.47 586.53 981.02 584.75 982.75 C 581.05 985.08 575.45 983.76 572.78 987.81 C 569.78 992.26 571.21 997.96 570.85 1003.00 C 571.09 1006.87 569.91 1011.85 573.44 1014.61 C 576.89 1015.92 580.49 1013.55 584.01 1013.40 C 587.28 1014.24 586.30 1019.87 583.22 1020.37 C 579.62 1021.21 575.89 1022.73 572.17 1021.91 C 567.87 1020.24 565.82 1015.37 565.73 1011.03 C 565.63 1005.68 565.70 1000.33 565.70 994.99 C 565.73 989.04 568.31 982.74 573.39 979.40 Z" />
<path fill="#090a0a" opacity="1.00" d=" M 903.14 988.32 C 906.31 982.76 912.84 977.71 919.55 979.62 C 926.11 981.87 928.34 989.67 927.90 995.96 C 927.44 1007.89 918.88 1017.03 913.86 1027.28 C 918.81 1026.54 923.58 1024.68 928.59 1024.36 C 932.40 1026.79 930.60 1033.91 926.05 1034.25 C 919.25 1035.77 912.48 1037.43 905.67 1038.84 C 902.34 1039.66 901.29 1034.80 902.57 1032.50 C 907.92 1022.37 914.28 1012.78 919.57 1002.62 C 921.38 998.29 922.04 991.19 916.80 989.06 C 912.27 987.91 909.57 992.35 906.75 994.97 C 902.96 996.09 901.49 990.96 903.14 988.32 Z" />
<path fill="#090a0a" opacity="1.00" d=" M 634.60 983.52 C 638.97 982.19 643.47 981.15 647.99 980.51 C 650.96 981.87 649.68 987.25 646.49 987.57 C 642.08 988.57 637.68 990.11 633.10 989.91 C 632.63 987.75 632.19 984.68 634.60 983.52 Z" />
<path fill="#090a0a" opacity="1.00" d=" M 544.35 986.35 C 546.44 984.88 549.03 985.08 551.40 985.58 C 551.65 987.57 552.15 989.94 550.47 991.51 C 548.38 992.36 545.65 992.13 544.19 994.14 C 542.42 996.57 541.88 1000.55 544.17 1002.83 C 546.75 1004.10 550.14 1004.51 551.51 1007.43 C 554.78 1013.90 553.05 1022.78 547.30 1027.33 C 545.34 1028.94 542.68 1029.47 540.21 1029.02 C 538.15 1027.67 538.67 1024.68 539.97 1023.00 C 541.59 1022.00 543.63 1022.14 545.34 1021.34 C 547.97 1019.14 548.86 1014.92 546.98 1011.98 C 544.63 1010.25 541.10 1010.26 539.50 1007.54 C 535.38 1000.74 537.60 990.64 544.35 986.35 Z" />
<path fill="#090a0a" opacity="1.00" d=" M 573.61 997.53 C 577.18 996.25 580.97 995.37 584.76 995.03 C 587.05 996.97 586.09 1001.44 583.10 1002.04 C 579.77 1002.95 576.38 1003.62 572.99 1004.22 C 571.87 1002.09 571.38 999.12 573.61 997.53 Z" />
<path fill="#090a0a" opacity="1.00" d=" M 824.09 1001.03 C 825.07 999.14 827.95 998.82 829.07 1000.76 C 830.02 1002.66 829.70 1004.89 829.80 1006.97 C 829.64 1022.59 829.99 1038.22 829.63 1053.84 C 829.93 1057.59 823.79 1060.58 822.84 1055.88 C 822.36 1042.49 822.81 1029.07 822.63 1015.67 C 819.07 1019.84 816.19 1024.52 812.81 1028.82 C 811.91 1030.23 809.79 1031.20 808.42 1029.84 C 804.93 1027.02 801.84 1023.76 798.40 1020.89 C 798.40 1033.94 798.45 1046.98 798.39 1060.03 C 798.50 1062.59 796.82 1065.50 794.02 1065.62 C 791.39 1065.13 791.28 1062.12 791.32 1060.02 C 791.35 1044.33 791.31 1028.65 791.34 1012.96 C 791.21 1010.46 792.21 1007.19 795.04 1006.73 C 796.47 1006.22 797.48 1007.77 798.55 1008.49 C 802.59 1012.16 806.49 1015.99 810.66 1019.54 C 815.12 1013.36 819.53 1007.14 824.09 1001.03 Z" />
<path fill="#090a0a" opacity="1.00" d=" M 758.97 1015.01 C 763.41 1013.46 768.08 1012.19 772.80 1011.99 C 775.87 1014.59 774.64 1020.65 770.53 1021.36 C 766.13 1022.91 760.56 1022.42 757.31 1026.29 C 754.00 1030.01 754.04 1035.28 754.07 1039.97 C 754.21 1045.62 753.83 1051.30 754.31 1056.95 C 754.52 1059.88 756.14 1063.07 759.16 1063.91 C 763.52 1063.96 767.59 1061.93 771.92 1061.67 C 774.66 1062.10 774.89 1065.69 774.14 1067.82 C 773.40 1070.74 770.10 1071.25 767.68 1072.09 L 766.86 1072.17 C 765.83 1072.02 764.91 1072.28 764.13 1072.96 C 763.67 1073.06 762.75 1073.26 762.29 1073.36 C 759.46 1073.60 756.36 1073.82 753.92 1072.11 C 748.97 1068.88 747.07 1062.64 747.13 1057.00 C 747.16 1049.72 747.03 1042.45 747.19 1035.19 C 747.72 1027.24 751.60 1018.74 758.97 1015.01 Z" />
<path fill="#090a0a" opacity="1.00" d=" M 706.64 1029.64 C 711.13 1024.38 718.57 1023.82 724.93 1022.66 C 728.66 1023.68 728.02 1029.56 725.27 1031.41 C 721.14 1033.30 716.30 1033.06 712.29 1035.26 C 708.58 1037.84 707.02 1042.54 707.16 1046.92 C 707.23 1053.92 706.92 1060.95 707.33 1067.95 C 707.47 1071.72 710.97 1075.67 714.99 1074.43 C 717.92 1073.83 722.25 1073.50 722.90 1069.85 C 723.54 1065.35 723.33 1060.72 722.41 1056.28 C 718.94 1056.20 715.52 1057.79 712.10 1057.29 C 708.99 1054.90 710.43 1048.99 714.26 1048.17 C 718.18 1047.14 723.09 1045.33 726.53 1048.51 C 731.41 1052.92 730.18 1060.13 730.31 1066.02 C 730.46 1071.16 728.38 1076.09 725.05 1079.94 C 720.38 1083.47 713.55 1085.10 707.90 1083.27 C 703.84 1081.03 700.93 1077.00 700.47 1072.34 C 699.71 1064.91 700.34 1057.41 700.11 1049.95 C 699.70 1042.68 702.07 1035.30 706.64 1029.64 Z" />
<path fill="#090a0a" opacity="1.00" d=" M 769.37 1037.22 C 770.49 1036.94 771.63 1036.85 772.79 1036.94 C 776.08 1039.50 774.43 1045.86 770.24 1046.39 C 766.25 1047.30 762.29 1048.44 758.23 1048.97 C 754.23 1047.75 755.12 1041.06 758.72 1039.77 C 762.20 1038.67 765.81 1038.04 769.37 1037.22 Z" />
<path fill="#090a0a" opacity="1.00" d=" M 678.43 1038.30 C 679.45 1037.60 680.56 1037.46 681.76 1037.91 C 684.71 1040.56 683.18 1046.90 679.00 1047.21 C 674.96 1046.37 675.58 1040.25 678.43 1038.30 Z" />
<path fill="#090a0a" opacity="1.00" d=" M 676.17 1055.92 C 676.03 1053.25 676.98 1049.59 680.08 1049.20 C 682.64 1048.80 683.33 1052.00 683.25 1053.95 C 683.22 1065.18 683.38 1076.41 683.15 1087.63 C 683.31 1091.53 676.91 1094.04 676.25 1089.16 C 676.08 1078.08 676.23 1067.00 676.17 1055.92 Z" />
</g>
</svg>
