<?xml version="1.0" encoding="UTF-8" ?>
<!DOCTYPE svg PUBLIC "-//W3C//DTD SVG 1.1//EN" "http://www.w3.org/Graphics/SVG/1.1/DTD/svg11.dtd">
<svg width="800pt" height="660pt" viewBox="0 0 800 660" version="1.1" xmlns="http://www.w3.org/2000/svg">
<g id="#f3fdffff">
<path fill="#f3fdff" opacity="1.00" d=" M 565.36 96.16 L 565.29 95.55 L 567.79 95.58 L 567.61 96.16 C 571.94 97.80 573.38 102.85 573.10 107.06 C 572.34 112.35 571.66 117.83 572.89 123.10 C 573.71 126.98 577.17 130.01 581.12 130.40 C 590.90 131.42 601.47 128.90 610.57 133.65 C 617.31 137.15 620.16 144.83 621.27 151.91 C 622.07 159.68 622.61 167.53 621.90 175.34 C 622.04 175.66 622.33 176.31 622.47 176.64 C 643.40 174.60 665.57 178.52 682.95 190.86 C 704.36 205.86 716.07 232.09 716.90 257.79 C 717.95 264.16 717.27 270.64 717.76 277.05 C 721.84 270.02 719.92 261.12 724.11 254.18 C 728.31 248.87 735.96 250.19 741.86 250.79 C 747.61 252.20 754.85 252.06 758.62 257.41 C 760.85 259.37 758.79 262.61 756.54 263.46 C 752.39 265.40 748.05 262.76 743.84 262.47 C 740.08 261.84 734.99 262.27 733.53 266.46 C 730.99 273.57 732.61 281.87 728.33 288.46 C 726.22 291.87 722.47 293.61 718.79 294.78 C 718.86 297.18 718.88 299.59 718.90 302.00 C 718.85 306.33 718.85 310.66 718.90 315.00 C 718.85 319.33 718.86 323.66 718.89 328.00 C 718.74 337.68 719.16 347.35 719.66 357.01 C 719.67 371.33 719.67 385.65 719.65 399.97 C 719.68 402.28 719.41 404.67 720.21 406.91 C 720.24 441.66 720.56 476.42 720.37 511.18 C 717.12 518.64 705.52 519.56 700.21 513.79 C 698.32 512.07 697.99 509.42 697.72 507.03 C 697.65 493.00 697.75 478.96 697.68 464.92 C 697.23 452.61 696.96 440.32 697.10 428.00 C 697.13 423.66 697.13 419.33 697.09 415.00 C 697.26 410.65 697.04 406.32 696.63 402.00 C 696.36 381.00 696.76 359.98 696.11 338.99 C 695.93 326.27 696.63 313.52 695.54 300.83 C 695.45 290.55 695.52 280.27 695.50 269.99 C 695.47 266.66 695.77 263.28 694.92 260.03 C 694.73 257.39 694.44 254.75 693.83 252.19 C 693.58 250.74 693.37 249.30 693.18 247.86 C 690.28 236.45 686.02 224.84 677.51 216.37 C 668.98 207.52 656.93 202.93 644.91 201.49 C 627.19 199.18 609.32 201.89 591.86 204.87 C 588.15 205.54 584.44 206.22 580.72 206.79 C 566.26 210.25 551.54 212.44 536.89 214.91 C 533.24 215.94 529.27 215.86 525.83 217.47 C 525.17 217.49 523.86 217.53 523.21 217.54 C 521.60 218.34 519.79 218.47 518.06 218.77 C 506.33 220.83 494.62 222.95 482.87 224.92 C 474.44 226.55 465.84 227.45 457.57 229.85 C 447.83 231.85 437.97 233.17 428.23 235.16 C 417.48 236.78 406.78 238.77 396.07 240.68 C 387.09 242.92 377.94 244.44 368.80 245.89 C 366.60 246.39 364.34 246.63 362.14 247.09 C 345.73 249.69 329.44 252.97 313.14 256.12 C 309.48 256.76 305.82 257.36 302.17 258.07 C 291.39 259.76 280.68 261.88 269.91 263.66 C 266.06 264.31 262.54 261.43 261.01 258.10 C 259.66 253.23 260.56 247.66 264.14 243.93 C 267.24 240.04 272.47 239.42 277.03 238.59 C 281.95 237.63 286.91 236.86 291.82 235.86 C 311.94 232.73 331.92 228.77 351.91 224.97 C 357.53 224.06 363.12 222.96 368.75 222.10 C 368.64 213.51 365.21 204.19 357.46 199.69 C 349.43 194.94 339.81 195.35 330.83 195.17 C 327.07 194.63 323.01 194.50 319.80 192.21 C 316.13 189.82 314.61 185.39 313.87 181.28 C 312.56 171.79 313.57 162.20 314.71 152.76 C 316.01 149.39 318.01 146.34 321.00 144.24 C 327.05 143.11 329.84 150.00 329.40 154.94 C 328.61 161.35 327.25 168.48 330.56 174.42 C 333.47 178.84 339.31 178.80 344.01 178.76 C 352.23 178.86 361.30 177.97 368.51 182.74 C 375.02 187.32 377.38 195.58 377.94 203.15 C 378.71 208.88 378.42 214.67 378.42 220.43 C 402.30 215.99 426.14 211.35 450.10 207.30 C 454.75 206.51 459.43 205.76 463.97 204.44 C 481.69 201.36 499.38 198.10 517.11 195.12 C 523.69 193.02 530.60 192.35 537.37 191.08 C 551.93 188.34 566.61 186.20 581.12 183.14 C 591.66 181.09 602.28 179.43 612.84 177.46 C 612.52 168.82 610.74 159.12 603.64 153.36 C 596.98 148.12 588.12 147.24 579.94 147.24 C 573.84 146.80 566.93 147.28 561.99 143.01 C 557.95 139.13 557.53 133.27 556.82 128.06 C 556.74 124.76 556.53 121.42 557.09 118.14 C 557.70 110.43 557.03 100.01 565.36 96.16 Z" />
<path fill="#f3fdff" opacity="1.00" d=" M 606.20 235.19 C 619.60 232.65 633.33 228.13 647.03 231.47 C 658.61 233.82 668.04 242.66 672.70 253.31 C 677.34 263.92 679.41 275.53 679.87 287.06 C 680.27 288.32 680.44 289.61 680.39 290.93 C 680.44 303.30 680.85 315.73 679.73 328.05 C 679.40 334.67 679.71 341.33 678.91 347.93 C 678.44 362.19 673.01 376.60 662.58 386.56 C 650.56 398.52 634.03 404.45 617.84 408.23 C 609.38 410.47 600.68 411.57 592.09 413.15 C 590.12 413.47 588.15 413.76 586.19 414.13 C 568.13 415.66 550.78 421.25 532.91 423.94 C 526.93 424.67 520.85 424.80 514.85 424.23 C 506.90 422.87 499.04 419.65 493.57 413.55 C 485.97 405.27 483.36 393.87 481.83 383.07 C 480.19 367.27 480.03 350.72 472.81 336.19 C 471.03 332.36 467.36 328.72 462.78 329.59 C 458.10 332.18 453.93 336.03 451.87 341.06 C 447.77 350.48 447.32 360.91 446.88 371.02 C 446.79 384.16 445.45 397.46 441.15 409.95 C 437.20 420.86 430.55 431.09 420.98 437.85 C 414.71 442.52 407.39 445.54 399.94 447.73 C 386.85 451.56 373.21 452.60 359.82 454.88 C 341.20 458.08 322.77 462.24 304.09 465.08 C 291.65 467.51 277.40 468.13 266.56 460.50 C 254.96 452.26 250.70 437.49 249.17 424.02 C 247.43 414.49 247.89 404.74 247.60 395.09 C 247.92 381.74 247.73 368.38 247.75 355.03 C 247.76 338.53 252.55 321.36 264.38 309.36 C 275.45 296.96 291.94 291.69 307.82 288.83 C 316.20 287.35 324.71 286.78 333.04 284.88 C 345.53 282.02 358.23 280.21 370.83 277.88 C 378.08 276.70 385.34 275.55 392.48 273.81 C 403.33 271.80 414.19 269.89 425.08 268.05 C 432.41 266.77 439.80 265.71 447.00 263.75 C 459.71 261.50 472.43 259.31 485.15 257.12 C 503.43 253.66 521.69 250.05 540.06 247.03 C 552.81 245.07 565.34 241.93 578.09 239.97 C 585.69 238.57 593.36 237.51 600.92 235.91 C 602.67 235.65 604.43 235.44 606.20 235.19 M 629.10 251.64 C 612.93 255.01 596.56 257.41 580.32 260.43 C 572.13 261.76 564.09 263.87 555.90 265.16 C 538.98 267.97 522.06 270.79 505.29 274.38 C 488.18 277.58 470.83 279.62 453.95 283.89 C 444.72 284.96 435.68 287.18 426.45 288.26 C 413.88 289.83 401.81 293.99 389.20 295.24 C 370.64 297.82 352.45 302.46 333.92 305.18 C 326.06 307.04 317.90 307.02 310.07 309.03 C 301.04 311.21 291.44 312.93 284.00 318.91 C 272.59 326.55 268.62 341.02 268.09 354.03 C 266.72 362.96 267.52 372.03 267.40 381.02 C 268.12 389.69 266.79 398.34 267.30 407.01 C 267.70 415.81 267.73 425.09 271.88 433.10 C 275.09 439.33 281.61 443.36 288.47 444.27 C 299.42 446.27 310.12 442.10 320.97 441.35 L 320.34 441.37 C 341.90 437.73 363.38 433.53 384.89 429.60 C 397.52 427.19 410.68 422.55 418.79 411.98 C 426.30 401.64 426.99 388.35 427.19 376.04 C 427.76 364.86 428.75 353.64 431.37 342.72 C 432.85 335.64 436.10 329.01 440.21 323.10 C 445.91 314.62 455.76 309.03 466.02 308.92 C 470.37 308.99 474.93 308.96 478.90 311.01 C 487.93 315.20 494.01 324.27 495.78 333.92 C 498.36 342.71 498.85 351.89 499.97 360.94 C 500.47 370.25 501.00 379.83 504.39 388.62 C 507.50 397.01 515.78 403.84 525.02 403.35 C 531.13 403.61 536.92 401.53 542.95 401.07 C 560.03 398.29 576.88 394.19 594.03 391.88 C 599.49 390.99 604.83 389.41 610.35 388.85 C 620.62 386.51 631.23 384.55 640.57 379.45 C 650.53 373.83 657.01 363.17 658.48 351.95 C 659.40 346.00 660.41 339.99 660.16 333.95 C 658.67 325.69 660.02 317.26 658.71 308.98 C 658.86 301.00 658.52 293.00 658.63 285.00 C 658.26 275.50 656.97 265.07 650.18 257.83 C 645.04 251.92 636.51 250.47 629.10 251.64 Z" />
<path fill="#f3fdff" opacity="1.00" d=" M 183.13 257.01 C 187.96 255.21 192.97 253.90 198.12 253.41 C 201.40 253.93 204.22 256.34 205.19 259.53 C 206.37 264.21 205.13 269.40 201.92 273.03 C 198.86 276.97 193.61 277.98 188.99 278.85 C 174.62 283.25 160.90 290.51 150.39 301.42 C 133.05 318.78 124.42 343.05 121.85 367.08 C 120.44 382.75 121.62 398.51 121.04 414.21 C 120.43 422.83 120.44 431.47 120.60 440.10 C 121.63 448.73 120.15 457.39 120.75 466.07 C 122.00 470.93 120.92 476.05 121.35 481.01 C 121.95 486.02 121.59 491.06 121.75 496.09 C 122.82 498.58 122.40 501.34 122.48 503.98 C 122.34 509.96 122.93 515.95 122.42 521.93 C 121.03 524.46 119.40 527.03 116.74 528.38 C 114.82 529.05 112.80 529.40 110.91 530.15 C 109.57 529.62 108.19 529.27 106.75 529.23 C 102.90 527.90 100.00 524.78 98.69 520.97 C 97.89 500.97 98.45 480.94 98.35 460.93 C 90.38 464.98 82.95 470.64 73.97 472.24 C 63.62 473.84 54.11 468.38 45.38 463.61 C 42.11 461.68 38.51 457.14 41.30 453.46 C 42.01 452.10 43.26 450.81 44.95 451.07 C 48.59 451.40 51.38 454.11 54.52 455.71 C 61.31 459.63 69.57 460.97 77.18 458.91 C 84.52 456.84 91.35 453.38 98.28 450.25 C 98.19 424.85 98.24 399.46 98.25 374.06 C 91.84 367.66 82.28 368.13 73.92 367.68 C 70.01 367.64 65.56 366.37 63.61 362.66 C 60.74 356.86 61.42 350.19 61.63 343.94 C 62.03 338.72 62.44 332.43 67.64 329.62 C 70.79 329.11 73.04 332.37 73.40 335.15 C 73.95 340.07 71.90 345.03 73.40 349.89 C 73.94 352.97 76.86 355.22 79.92 355.41 C 86.35 355.95 92.92 354.86 99.23 356.63 C 105.74 311.30 139.55 271.11 183.13 257.01 Z" />
<path fill="#f3fdff" opacity="1.00" d=" M 655.42 448.58 C 660.70 446.14 665.49 452.11 664.53 457.08 C 663.18 466.84 660.99 476.60 656.67 485.52 C 649.71 500.39 637.38 511.91 624.35 521.51 C 614.44 528.95 602.35 533.31 590.01 534.20 C 575.52 534.41 560.74 533.77 546.86 529.23 C 537.87 526.52 529.15 523.00 520.53 519.30 C 516.42 517.25 515.16 512.31 514.66 508.11 C 514.48 503.87 514.37 498.70 517.90 495.70 C 520.77 494.31 523.45 496.79 525.84 498.09 C 537.04 505.37 549.35 511.37 562.64 513.47 C 570.39 514.32 578.18 514.38 585.96 514.30 C 600.65 513.29 615.36 508.26 626.53 498.43 C 633.77 492.09 640.14 484.50 643.71 475.47 C 647.19 468.02 647.72 459.61 651.27 452.20 C 652.02 450.42 653.75 449.36 655.42 448.58 Z" />
<path fill="#f3fdff" opacity="1.00" d=" M 108.86 540.70 C 114.61 540.04 121.07 543.26 122.56 549.14 C 122.61 552.47 123.30 556.23 121.19 559.13 C 119.98 561.39 117.57 562.54 115.38 563.63 L 115.46 564.47 C 112.62 564.69 109.77 564.80 106.94 564.46 C 103.14 562.04 99.45 559.04 98.69 554.28 C 98.70 553.11 98.70 551.94 98.69 550.78 C 99.69 545.64 103.86 541.86 108.86 540.70 Z" />
</g>
<g id="#84ccfbff">
<path fill="#84ccfb" opacity="1.00" d=" M 629.10 251.64 C 636.51 250.47 645.04 251.92 650.18 257.83 C 656.97 265.07 658.26 275.50 658.63 285.00 C 658.52 293.00 658.86 301.00 658.71 308.98 C 660.02 317.26 658.67 325.69 660.16 333.95 C 660.41 339.99 659.40 346.00 658.48 351.95 C 657.01 363.17 650.53 373.83 640.57 379.45 C 631.23 384.55 620.62 386.51 610.35 388.85 C 592.71 364.90 567.42 346.58 538.86 338.03 C 524.80 333.54 510.04 331.74 495.34 331.22 C 495.45 331.90 495.67 333.25 495.78 333.92 C 494.01 324.27 487.93 315.20 478.90 311.01 C 474.93 308.96 470.37 308.99 466.02 308.92 C 455.76 309.03 445.91 314.62 440.21 323.10 C 436.10 329.01 432.85 335.64 431.37 342.72 C 420.28 347.62 409.03 352.31 398.69 358.70 C 365.10 378.59 337.34 407.70 317.90 441.46 C 318.51 441.44 319.73 441.40 320.34 441.37 L 320.97 441.35 C 310.12 442.10 299.42 446.27 288.47 444.27 C 281.61 443.36 275.09 439.33 271.88 433.10 C 267.73 425.09 267.70 415.81 267.30 407.01 C 266.79 398.34 268.12 389.69 267.40 381.02 C 267.52 372.03 266.72 362.96 268.09 354.03 C 268.62 341.02 272.59 326.55 284.00 318.91 C 291.44 312.93 301.04 311.21 310.07 309.03 C 317.90 307.02 326.06 307.04 333.92 305.18 C 352.45 302.46 370.64 297.82 389.20 295.24 C 401.81 293.99 413.88 289.83 426.45 288.26 C 435.68 287.18 444.72 284.96 453.95 283.89 C 470.83 279.62 488.18 277.58 505.29 274.38 C 522.06 270.79 538.98 267.97 555.90 265.16 C 564.09 263.87 572.13 261.76 580.32 260.43 C 596.56 257.41 612.93 255.01 629.10 251.64 M 617.49 266.67 C 609.42 267.75 605.11 279.90 612.02 284.97 C 619.02 288.83 627.52 281.47 626.60 274.03 C 626.69 269.34 622.14 265.34 617.49 266.67 M 583.19 274.05 C 574.12 275.79 565.02 277.34 555.95 279.06 C 549.35 280.35 545.47 288.66 548.52 294.59 C 549.82 297.28 552.99 298.80 555.92 298.17 C 566.23 296.32 576.54 294.37 586.85 292.49 C 594.09 291.22 598.00 281.37 593.44 275.57 C 590.90 272.47 586.59 273.30 583.19 274.05 M 514.46 286.77 C 508.59 288.97 505.57 296.76 508.73 302.25 C 510.24 304.96 513.64 306.06 516.59 305.39 C 523.70 304.32 528.01 295.03 523.98 289.01 C 521.97 285.84 517.68 285.48 514.46 286.77 M 415.35 302.50 C 408.20 304.65 404.98 315.82 411.52 320.37 C 418.29 324.05 426.56 317.18 426.00 309.96 C 426.53 304.44 420.42 299.97 415.35 302.50 M 374.44 312.67 C 354.68 316.45 334.86 319.89 315.08 323.56 C 308.21 324.74 304.28 333.40 307.60 339.42 C 309.01 342.01 312.12 343.21 314.96 342.60 C 336.02 338.94 357.03 334.99 378.06 331.16 C 385.26 329.90 389.35 320.09 384.76 314.27 C 382.25 311.06 377.89 311.92 374.44 312.67 Z" />
</g>
<g id="#49494aff">
<path fill="#49494a" opacity="1.00" d=" M 617.49 266.67 C 622.14 265.34 626.69 269.34 626.60 274.03 C 627.52 281.47 619.02 288.83 612.02 284.97 C 605.11 279.90 609.42 267.75 617.49 266.67 Z" />
<path fill="#49494a" opacity="1.00" d=" M 583.19 274.05 C 586.59 273.30 590.90 272.47 593.44 275.57 C 598.00 281.37 594.09 291.22 586.85 292.49 C 576.54 294.37 566.23 296.32 555.92 298.17 C 552.99 298.80 549.82 297.28 548.52 294.59 C 545.47 288.66 549.35 280.35 555.95 279.06 C 565.02 277.34 574.12 275.79 583.19 274.05 Z" />
<path fill="#49494a" opacity="1.00" d=" M 514.46 286.77 C 517.68 285.48 521.97 285.84 523.98 289.01 C 528.01 295.03 523.70 304.32 516.59 305.39 C 513.64 306.06 510.24 304.96 508.73 302.25 C 505.57 296.76 508.59 288.97 514.46 286.77 Z" />
<path fill="#49494a" opacity="1.00" d=" M 415.35 302.50 C 420.42 299.97 426.53 304.44 426.00 309.96 C 426.56 317.18 418.29 324.05 411.52 320.37 C 404.98 315.82 408.20 304.65 415.35 302.50 Z" />
<path fill="#49494a" opacity="1.00" d=" M 374.44 312.67 C 377.89 311.92 382.25 311.06 384.76 314.27 C 389.35 320.09 385.26 329.90 378.06 331.16 C 357.03 334.99 336.02 338.94 314.96 342.60 C 312.12 343.21 309.01 342.01 307.60 339.42 C 304.28 333.40 308.21 324.74 315.08 323.56 C 334.86 319.89 354.68 316.45 374.44 312.67 Z" />
</g>
<g id="#4ba3e4ff">
<path fill="#4ba3e4" opacity="1.00" d=" M 495.34 331.22 C 510.04 331.74 524.80 333.54 538.86 338.03 C 567.42 346.58 592.71 364.90 610.35 388.85 C 604.83 389.41 599.49 390.99 594.03 391.88 C 576.88 394.19 560.03 398.29 542.95 401.07 C 536.92 401.53 531.13 403.61 525.02 403.35 C 515.78 403.84 507.50 397.01 504.39 388.62 C 501.00 379.83 500.47 370.25 499.97 360.94 C 498.85 351.89 498.36 342.71 495.78 333.92 C 495.67 333.25 495.45 331.90 495.34 331.22 Z" />
<path fill="#4ba3e4" opacity="1.00" d=" M 398.69 358.70 C 409.03 352.31 420.28 347.62 431.37 342.72 C 428.75 353.64 427.76 364.86 427.19 376.04 C 426.99 388.35 426.30 401.64 418.79 411.98 C 410.68 422.55 397.52 427.19 384.89 429.60 C 363.38 433.53 341.90 437.73 320.34 441.37 C 319.73 441.40 318.51 441.44 317.90 441.46 C 337.34 407.70 365.10 378.59 398.69 358.70 Z" />
</g>
</svg>
