<svg width="1250pt" height="1250pt" viewBox="0 0 1250 1250" xmlns="http://www.w3.org/2000/svg"><g fill="#49494a"><path d="M880.38 41.39c2.42-2.17 6.3-2.75 9.03-.8 4.28 2.9 5.38 8.58 5.2 13.42-.51 8.28-2.25 16.84.3 24.96 1.18 4.01 4.29 7.46 8.36 8.64 6.7 2.07 13.82 1 20.73 1.25 9.75.12 20.46.36 28.58 6.54 7.92 6.01 11.03 16.12 12.35 25.58 1.45 11.44.78 22.98.66 34.47 30.77-2.75 63.49 2.65 88.97 21.01 22.92 16.09 37.77 41.64 44.37 68.52 2.99 10.73 3.77 21.88 4.87 32.92.64 7.77.16 15.6.98 23.36 6-9.6 4.06-21.72 8.61-31.84 2.36-5.18 8.19-7.4 13.56-7.56 9.55-.38 19.02 1.67 28.22 4.05 4.15 1.22 9.01 4.23 9.08 9.07-.51 4.79-6.14 6.4-10.22 5.83-7.37-.91-15.15-4.38-22.43-1.25-5.6 2.92-5.84 10.01-6.58 15.51-1.06 9.19-1.88 20-9.87 26.08-2.72 2.53-6.97 2.6-9.62 4.91-.17 27.65.69 55.29.74 82.94.4 55.01 1.35 110 1.51 165 .81 20 .54 40.02.73 60.03.3 4.55-2.42 9.01-6.48 11-6.79 3.51-16.02 3.01-21.71-2.35-2.98-2.68-3.7-6.85-3.59-10.67-.38-57.34-1.34-114.67-1.5-172.02-.86-26.98-.52-53.99-.95-80.98-.69-32.01-.71-64.03-1.16-96.04-1.12-17.74-4.48-35.63-12.44-51.65-6.16-12.7-15.95-23.73-28.24-30.77-15.21-8.83-33.09-11.59-50.45-11.84-17.01-.1-33.97 1.89-50.71 4.76-23.42 3.97-46.67 8.88-70.06 13.02-133.93 24.28-267.82 48.79-401.74 73.15-4.91 1.18-10.75-.07-13.6-4.56-5.46-8.58-1.69-21.29 7.14-26.1 3.92-2.24 8.56-2.42 12.89-3.34 44.7-8.36 89.51-16.15 134.21-24.53-.82-11.34-3.89-23.63-13.04-31.17-8.28-7.08-19.6-8.52-30.08-8.99-8.79-.69-18.18.58-26.31-3.57-5.54-2.75-8.39-8.72-9.58-14.51-2.14-10.52-1.47-21.34-.52-31.95.62-6.69 1.15-14.15 6.18-19.18 2.71-3.16 8.1-3.63 11.1-.64 3.43 3.31 4.21 8.39 3.96 12.95-.47 7.39-1.86 14.89-.28 22.25.82 3.87 2.7 7.91 6.41 9.76 6.47 3.4 14.01 2.29 21.04 2.46 10.1-.1 21.07-.11 29.82 5.69 7.87 5.33 11.42 14.78 12.98 23.78 1.59 10.13 1.43 20.42 1.2 30.64 43.67-7.43 87.16-15.92 130.78-23.65 45.59-8.52 91.23-16.72 136.84-25.15 24.2-4.21 48.32-8.85 72.56-12.8-.33-10.49-1.83-21.53-7.73-30.47-5.28-7.98-14.46-12.51-23.7-14.01-11.48-2.25-23.46-.11-34.8-3.27-6.74-1.75-11.34-7.93-12.74-14.53-2.86-12.22-1.69-24.92-.51-37.28.53-5.82 1.99-12.16 6.68-16.08z"/><path d="M976.64 233.77c16.27-1.9 34.25.47 47.03 11.56 14.19 12.05 20.25 30.69 23.37 48.46 5.62 34.14 2.39 68.85 1.28 103.21-.37 14.58-2.98 29.4-9.88 42.4-6.3 12.33-16.38 22.39-27.85 30-21.32 13.58-46.32 19.51-70.87 24.08-22.06 3.89-44.38 6.3-66.27 11.14-17.63 3.8-35.31 8.67-53.5 8.23-15.02-.07-30.79-5.35-40.59-17.21-10.61-12.7-13.84-29.59-15.84-45.56-2.1-20.69-2.68-42.11-11.14-61.46-2.45-5.17-5.63-11-11.47-12.8-5.73-1.34-10.89 2.59-14.63 6.46-8.44 8.4-11.08 20.6-12.71 31.96-1.59 12.8-1.65 25.71-2.26 38.57-1.49 19.42-5.36 39.18-15.38 56.14-8.59 14.81-22.35 26.41-38.19 32.81-17.44 7.18-36.25 9.86-54.8 12.41-36.74 5.04-72.72 14.57-109.55 19.14-15.29 1.65-32.08-.27-44.29-10.44-12.99-10.86-18.48-27.84-21.28-43.98-4.31-25.74-2.78-51.92-2.98-77.89.17-20.97-1.25-42.55 5.4-62.77 6.76-20.78 22.12-38.6 41.7-48.32 14.06-7.21 29.73-10.31 45.2-12.82 24.76-3.82 49.35-8.64 74-13.12 96.39-17.47 192.73-35.15 289.12-52.63 20.03-3.71 40.1-7.26 60.12-11.08 12.13-1.89 24.17-4.33 36.26-6.49m-8.63 29.19c-137.92 25.09-275.84 50.2-413.75 75.33-20.98 3.93-42.46 5.65-62.9 12.06-13.49 4.13-25.81 13.26-31.83 26.24-8.41 17.49-7.8 37.47-7.78 56.41.24 22.77-1.16 45.56-.06 68.32.8 11.41 2.34 23.85 10.27 32.74 7.19 8.14 18.63 10.5 29.04 10.39 11.42-.26 22.77-2.04 33.94-4.35 31.14-5.43 62.19-11.33 93.31-16.88 16.48-3.21 33.76-7 47.05-17.92 7.37-6.05 12.69-14.37 15.57-23.43 3.22-9.62 3.75-19.84 4.24-29.89.64-19.13 1.82-38.43 6.94-56.96 5.5-16.96 15-34.18 31.56-42.44 11.69-6.15 26.74-6.57 37.98.84 9.29 5.9 15.1 15.64 19.16 25.61 4.62 14.5 6.5 29.69 7.48 44.82 1.19 14.93 1.51 30.66 8.72 44.2 3.91 7.7 11.32 13.46 19.79 15.26 12.25 2.93 24.64-.64 36.68-2.91 33.19-6.01 66.33-12.29 99.59-17.96 11.18-2.07 22.5-4.07 33.14-8.26 11.97-4.48 22.72-12.96 28.5-24.52 6.93-13.75 7.81-29.54 7.86-44.66-.29-17.68-2.06-35.31-1.69-53-.07-16.17.84-32.84-4.36-48.41-2.75-8.54-8.65-16.45-17.16-19.85-9.93-4.22-21.04-3.02-31.29-.78zM293.39 289.36c16.82-10.44 35.41-18.12 54.77-22.29 4.97-1.27 10.76 1.02 12.91 5.82 3.81 8.1.49 18.43-6.45 23.77-3.96 3.16-9.15 3.67-13.85 5.06-28.44 7.45-54.32 24.86-71.1 49.1-18.68 26.09-27.22 58.22-29.15 89.93-.52 14.08-.1 28.17-.33 42.26-.76 18.31-.55 36.65-.51 54.98.37 12.89-.22 25.79.5 38.67.57 23.13 2.03 46.22 2.36 69.35.12 4.32-.18 9.03-3 12.55-6.63 8.85-22.12 8.26-27.97-1.17-3.21-4.85-2.26-10.91-2.43-16.4-.82-25.01-.74-50.04-1.13-75.05-12.43 5.94-23.81 15.34-38.02 16.5-12.57 1.13-24.21-4.76-34.91-10.57-3.67-2.07-8.04-4.21-9.39-8.53-1.08-3.68-.45-8.78 3.5-10.46 4.39-1.09 8.23 2.04 11.77 4.13 9.08 5.97 20.15 9.6 31.08 7.94 12.77-1.86 23.94-8.69 35.72-13.48.03-36.49-.1-72.99.08-109.48.36-3.03-2.7-4.63-4.79-6.11-8.92-5.55-19.87-4.7-29.92-5.29-5.28-.26-11.32-1.55-14.36-6.34-3.64-5.82-3.54-12.97-3.86-19.6.3-5.53.61-11.09 1.4-16.58.48-3.45 1.79-6.93 4.39-9.35 2.2-2.19 6.3-2.19 8.31.28 1.8 2.13 2.31 4.97 3.26 7.53-1.42 6.9-2.42 14.37-.03 21.17 1.69 4.76 7.11 6.35 11.69 6.41 8.66.21 17.44-.49 25.92 1.71 2.91-19.84 9.4-39.05 18.54-56.86 15.22-28.27 37.6-52.77 65-69.6z"/><path d="M958.36 285.46c4.14-1.22 9.32-.48 11.95 3.26 4.02 5.67 2.78 13.86-1.59 18.98-3.4 4.13-9.19 6.02-14.39 4.92-4.34-1.01-7.12-5.32-7.43-9.58-.99-7.58 3.87-15.73 11.46-17.58zM913.34 295.17c4.22-1 9.36-.33 11.95 3.53 4.35 6.74 1.97 16.54-4.4 21.18-2.29 1.74-5.13 2.47-7.9 2.99-13.5 2.35-26.95 4.96-40.43 7.43-4.1.91-9.01.45-11.7-3.16-4.43-5.74-2.83-14.36 1.76-19.52 2.49-2.84 6.13-4.32 9.78-4.98 13.64-2.5 27.29-4.99 40.94-7.47zM812.4 313.57c4.08-.98 9.01-.2 11.56 3.44 5.58 8.07.92 20.76-8.49 23.47-4.57 1.68-10.56.68-13.17-3.77-4.95-8.59.3-21.05 10.1-23.14zM669.35 336.37c4.08-.81 8.81.47 11.02 4.23 4.7 7.91.52 19.51-8.19 22.55-4.68 1.96-11.13 1.27-13.86-3.46-5.26-8.85.69-21.93 11.03-23.32zM609.4 351.39c4.35-.97 9.72-1.5 12.98 2.25 5.24 6.16 3.24 16.08-2.49 21.26-3.81 3.57-9.29 3.8-14.15 4.78-24.55 4.48-49.1 8.98-73.66 13.42-4.35.71-8.65 1.91-13.08 1.98-3.65.03-7.05-2.33-8.48-5.65-3.96-8.86 1.93-20.6 11.69-22.1 29.07-5.27 58.13-10.58 87.19-15.94zM1011.1 549.9c3.13-.91 6.35-2.63 9.7-1.78 4.1 1.76 6.99 6.37 6.46 10.87-2.01 17.56-7 34.81-15.45 50.37-6.49 10.35-14.38 19.79-23.33 28.09-13.74 12.26-28.61 24.28-46.58 29.53-14.47 4.63-29.87 4.67-44.9 4.16-26.35-1.36-51.52-10.35-75.59-20.56-7.11-2.58-9.59-10.69-9.92-17.55-.06-5.12.08-10.93 3.51-15.05 3.09-3.08 7.42-.14 10.39 1.65 20.03 13.45 43.19 23.41 67.58 24.26 20.84 1.08 42.6-.73 61.4-10.51 20.97-10.88 38.44-29.43 46.1-51.97 3.78-10.43 4.14-22.15 10.63-31.51zM220.38 683.44c8.16-2.93 18.78.84 21.67 9.42 1.42 5.24 1.31 11.51-2.26 15.92-6.75 8.74-22.38 8.13-28.06-1.51-5.1-8.39-1.22-21.16 8.65-23.83zM1087.39 864.6c8.26-1.92 19.94 2.47 19.66 12.35.68 53.34-.62 106.72 1.12 160.05-.31 6.86 1.32 14.45-2.56 20.62-4.83 7.62-16.13 8.98-23.39 4.14-4.24-2.74-6.86-7.71-6.81-12.74-.16-22.34-.29-44.68-.14-67.02.25-35.01.01-70.02.21-105.02-.29-6.58 5.9-11.42 11.91-12.38zM1087.41 1082.66c6.4-1.28 13.82.74 17.61 6.34 4.56 6.69 3.56 16.96-2.92 22.1-8.12 6.91-22.8 3.61-26.23-6.81-1.25-5.3-1.22-11.61 2.43-16.01 2.26-2.85 5.56-4.85 9.11-5.62z"/></g><g fill="#d1f4f4"><path d="M836.84 245.93c24.15-4.48 48.49-9.07 73.15-8.73 10.2-.09 20.45.67 30.39 3.06-20.02 3.82-40.09 7.37-60.12 11.08-96.39 17.48-192.73 35.16-289.12 52.63-24.65 4.48-49.24 9.3-74 13.12-15.47 2.51-31.14 5.61-45.2 12.82-19.58 9.72-34.94 27.54-41.7 48.32-6.65 20.22-5.23 41.8-5.4 62.77.2 25.97-1.33 52.15 2.98 77.89 2.8 16.14 8.29 33.12 21.28 43.98 12.21 10.17 29 12.09 44.29 10.44 36.83-4.57 72.81-14.1 109.55-19.14 18.55-2.55 37.36-5.23 54.8-12.41 15.84-6.4 29.6-18 38.19-32.81 10.02-16.96 13.89-36.72 15.38-56.14.61-12.86.67-25.77 2.26-38.57 1.63-11.36 4.27-23.56 12.71-31.96 3.74-3.87 8.9-7.8 14.63-6.46 5.84 1.8 9.02 7.63 11.47 12.8 8.46 19.35 9.04 40.77 11.14 61.46 2 15.97 5.23 32.86 15.84 45.56 9.8 11.86 25.57 17.14 40.59 17.21 18.19.44 35.87-4.43 53.5-8.23 21.89-4.84 44.21-7.25 66.27-11.14 24.55-4.57 49.55-10.5 70.87-24.08.09 26.57.94 53.12.85 79.69l-.34.81c-6.49 9.36-6.85 21.08-10.63 31.51-7.66 22.54-25.13 41.09-46.1 51.97-18.8 9.78-40.56 11.59-61.4 10.51-24.39-.85-47.55-10.81-67.58-24.26-2.97-1.79-7.3-4.73-10.39-1.65-3.43 4.12-3.57 9.93-3.51 15.05.33 6.86 2.81 14.97 9.92 17.55 24.07 10.21 49.24 19.2 75.59 20.56 15.03.51 30.43.47 44.9-4.16 17.97-5.25 32.84-17.27 46.58-29.53 8.95-8.3 16.84-17.74 23.33-28.09.93 9.5.28 19.1.57 28.64.03 27.35.46 54.69.9 82.02-9.6-5-21.34-4.23-30.93.37-13.85 6.54-23.26 19.43-30.14 32.69-5.95 6.33-9.79 14.26-12.74 22.35-4.84 13.44-6.16 28.09-3.99 42.2 1.72 10.44 6.09 20.69 13.61 28.28 5.43 5.74 12.92 9.68 20.88 10.16 10.79.77 21.52-3.47 29.71-10.37 5.57-4.6 10.07-10.28 14.47-15.96-.13 16.75.01 33.5.09 50.25.12 27.61-4.11 55.42-14.29 81.17-2.78-.1-6.53-1.23-8.38 1.56-1.62 2.01-.93 4.66-.64 6.99 1.61.35 3.27.67 4.91 1.06-6.12 12-13.08 23.74-22.2 33.73-.18-7.17-.02-14.35-.08-21.52 0-4.13-1.07-8.48-4.03-11.5-2.34-2.54-6.12-3.6-9.43-2.59-5.09 1.4-8.69 5.89-10.69 10.58-3.07 7.11-1.66 15.02-1.97 22.53.3 7.71-1.53 16.51 3.83 23-15.99 11.54-34.57 19.74-54.05 22.99-43.18 8.03-86.34 16.19-129.54 24.1 2.42-.84 5.72-1.35 6.46-4.27.75-2.13.52-5.72-2.22-6.15-4.33.26-8.4 2.29-12.76 2.24-3.02-.84-4.64-4.03-4.85-6.96-.48-5.65-.1-11.33-.24-16.98-.03-4.69-.07-9.96 3.24-13.68 3.25-3.87 8.82-3.38 13.22-4.93 4.11-.71 5.34-6.77 2.27-9.37-4.72.2-9.39 1.47-13.83 3.02-7.37 3.73-11.25 12.23-11.78 20.18-.16 7.26-.03 14.53-.06 21.81-.06 5.64 1.84 11.88 6.79 15.11 2.44 1.71 5.54 1.49 8.37 1.25-12.49 1.79-24.78 4.69-37.24 6.58 3.33-3.85 5.41-8.78 5.26-13.92-.13-5.89 1.1-13.1-3.78-17.51-3.44-3.18-8.35-1.37-12.27-.34-3.83.82-5.27 6.73-2.16 9.12 3.42.5 6.84-1.09 10.31-1.01.92 4.44 1.13 9.07.49 13.57-.65 3.65-4.98 3.98-7.91 4.58-4.02 1.24-7.52-2.71-7.66-6.48-.41-7-.1-14.03-.17-21.03-.14-4.38 1.42-9.08 5.13-11.66 4.01-2.2 8.85-1.96 12.98-3.85 2.75-1.85 3.39-7.73-.34-8.75-6.36 1.16-13.8 1.72-18.29 6.98-4.57 5.66-6.94 13.04-6.53 20.31.23 7.46-.4 14.96.36 22.39.46 4.66 3.37 8.69 7.43 10.93-8.25 1.42-16.44 3.28-24.75 4.36.23-11.22.07-22.45.1-33.68.08-1.95-.61-5.15-3.17-4.75-3.1.39-4.05 4.05-3.91 6.72.06 11.08-.09 22.16.08 33.24-25.84 4.39-51.55 9.49-77.33 14.18-45.2 8.11-90.31 16.73-135.5 24.88-22.5 4.06-44.97 8.33-67.45 12.48-25.55 4.74-51.17 9.14-76.67 14.15-20.69 4.02-41.38 8.1-62.25 11.1-25.29 3.06-51.72 4.68-76.26-3.55-14.1-4.68-26.88-13.45-35.97-25.24-12.08-15.81-18.32-35.43-20.8-54.97-.14-8.1-2.19-16.14-1.27-24.23 1.23-5 4.18-9.46 4.58-14.7 5.78-1.65 9.72-7.19 9.52-13.18.07-29.67-.02-59.34.05-89.01 3.98-.86 8.26-1.21 11.8-3.39 4.05-2.98 4.67-8.36 5.2-12.98 8.7-1.32 12.71-13.37 7.51-20.05-1.97-2.57-5.42-1.9-8.14-1.26-10.9 2.55-21.83 5-32.75 7.53.12-26.09-.6-52.18-.75-78.27 4.46-15.05 9.69-29.87 14.51-44.81 3.22 5.75 4.95 12.15 7.79 18.08-3.95 2.07-7.38 5.42-8.18 9.99-.4 1.52-.77 3.05-1.15 4.59-2.96 2.01-6.46 3.87-7.84 7.39-1.45 3.83-1.75 8.4.09 12.15 1.98 3.62 7.36 3.79 10.23 1.16 3.71-3.06 4.27-8.13 4.88-12.58 3.2-1.12 6.15-2.95 8.06-5.82 5.61 13.85 10.66 27.92 16.19 41.81 1.09 3.21 4.39 6.35 7.98 4.77 5.59-2.17 7.25-8.52 7.79-13.89 2.41-1.26 5.14-2.29 6.78-4.58 3.07-4.07 3.62-9.72 1.59-14.37-12.03-31.29-24.01-62.61-36.01-93.92-1.42-3.57-2.5-7.3-4.46-10.62-1.82-3.24-6.65-3.64-9.36-1.32-4.04 3.22-4.72 8.69-6.47 13.25-2.73 1.55-5.73 3.25-6.92 6.35-2.18 5.32-3.5 10.97-6 16.17-.31-18.62-.54-37.24-.72-55.86-.36-10.53.34-21.07-.61-31.58-.99-27.66-.42-55.34-.58-83.01.02-25 .09-50 .01-75 .05-25.04 4.28-50.17 13.06-73.66 5.94-15.32 13.73-30.17 24.48-42.69.32 6.63.22 13.78 3.86 19.6 3.04 4.79 9.08 6.08 14.36 6.34 10.05.59 21-.26 29.92 5.29 2.09 1.48 5.15 3.08 4.79 6.11-.18 36.49-.05 72.99-.08 109.48-11.78 4.79-22.95 11.62-35.72 13.48-10.93 1.66-22-1.97-31.08-7.94-3.54-2.09-7.38-5.22-11.77-4.13-3.95 1.68-4.58 6.78-3.5 10.46 1.35 4.32 5.72 6.46 9.39 8.53 10.7 5.81 22.34 11.7 34.91 10.57 14.21-1.16 25.59-10.56 38.02-16.5.39 25.01.31 50.04 1.13 75.05.17 5.49-.78 11.55 2.43 16.4 5.85 9.43 21.34 10.02 27.97 1.17 2.82-3.52 3.12-8.23 3-12.55-.33-23.13-1.79-46.22-2.36-69.35-.72-12.88-.13-25.78-.5-38.67-.04-18.33-.25-36.67.51-54.98.23-14.09-.19-28.18.33-42.26 1.93-31.71 10.47-63.84 29.15-89.93 51.95-9.53 103.85-19.29 155.77-28.95 89.55-16.3 179.01-33.02 268.56-49.33 47.58-9.03 95.32-17.27 142.84-26.61M706.41 600.5c-12.55 3.79-20.98 15.12-26.18 26.59-4.69 4.02-7.45 9.68-9.94 15.21-3.73 8.36-5.21 17.58-5.15 26.7.03 13.33.04 26.66-.01 40-.11 7.84.64 15.86 3.73 23.15 3.1 7.26 8.63 14.04 16.21 16.81 7.32 2.59 14.97-.1 22.19-1.68 4.75-1.23 9.75-1.73 14.28-3.71 4.86-2.54 6.03-8.49 5.63-13.5 9.13-.78 13.37-13.36 7.86-20.09-2.51-3.09-6.69-1.53-9.91-.82-6.72 1.4-13.33 3.51-20.16 4.27-7.87.07-12.67-8.19-13.42-15.18.19-1.34.39-2.66.6-3.98 8.23-1.75 16.41-3.69 24.63-5.49 3.12-.7 6.55-1.78 8.21-4.77 2.17-2.97 2.28-6.77 2.08-10.29 8.34-.78 12.47-11.03 9.41-18.15-1.08-2.44-3.7-4.43-6.47-3.77-7.49 1.4-14.85 3.42-22.31 4.96-2.59.64-5.34.98-7.67 2.36-2.63 1.84-4.3 4.8-5.18 7.83-.62 2.25-.04 5.69-2.9 6.42-.69-9.87-.06-19.78-.36-29.66.25-1.97.64-3.93 1.26-5.81 7.94-2.43 16.1-4.04 24.19-5.85 2.93-.63 6.03-1.72 7.69-4.41 2.41-3.01 2.55-6.98 2.51-10.65 8.66-.79 12.74-11.98 8.65-18.98-1.35-2.33-4.19-3.58-6.79-2.75-7.57 1.69-15.16 3.34-22.68 5.24m-149.05 34.88c-3.82 3.45-4.36 8.92-6.17 13.48-4.03.65-6.53 4.02-7.58 7.74-12.97 39.73-25.84 79.49-38.92 119.18-1.34 4.2-2.83 9.06-.64 13.24 1.91 3.68 7.49 4.2 10.32 1.33 3.59-3.44 4.39-8.62 6.36-12.99 3.49-1.03 6.06-3.99 7.14-7.4 8.52-25.73 16.88-51.52 25.4-77.26 3.98 5.22 4.95 11.92 7.94 17.66-4.63 2.01-8.2 6.46-8.26 11.63-1 4.89-7.29 5.5-8.85 10.11-1.77 4.47-2.18 10.6 1.65 14.13 3.29 2.13 7.97.81 10.09-2.42 3.04-3.23 2.2-8.2 4.86-11.63 2.97-.37 5.11-2.83 6.58-5.25 5.23 13.39 10.37 26.81 15.47 40.25 1.05 2.43 2.08 5.27 4.61 6.55 3.33 1.11 6.91-.8 8.81-3.55 2.35-3.02 2.8-6.94 2.71-10.64 7.86-1.19 11.91-10.57 9.16-17.58-12.35-32.34-24.79-64.64-37.13-96.97-1.29-3.23-2.26-6.67-4.29-9.53-2.33-2.63-6.81-2.48-9.26-.08m-130.09 28.71c-9.23 2.61-19.41 3.04-27.53 8.65-7.75 5.05-12.51 13.3-16.3 21.5-4.05 2.87-6.24 7.47-8.44 11.77-3.92 8.46-7.08 17.54-7.03 26.97-.03 15.34.04 30.68-.03 46.02-.18 8.07.78 16.36 4.39 23.68 3.24 6.87 9.88 11.6 16.87 14.15 7.78 2.63 15.74-.8 23.38-2.3 9.84-2.17 16.86-10.72 20.08-19.86 7.04-6.77 12.12-15.87 13.36-25.62.84-8.32.25-16.7.42-25.03.17-9.54-3.47-20.4-12.55-24.87-5.8-3.06-12.32-.86-18.25.51-3.09.83-6.5 1.01-9.2 2.87-3.96 3.06-5.44 8.33-5.11 13.17-2.61.72-5.09 1.84-7.34 3.35.03-7.7-.01-15.4 0-23.1 0-3.5.4-7.02 1.57-10.33 7.25-1.87 14.51-3.71 21.86-5.19 3.39-.86 7.39-1.36 9.63-4.38 2.63-3.11 3.05-7.29 2.96-11.2 9.13-.9 13.19-13.68 7.46-20.26-2.69-2.98-6.9-1.1-10.2-.5m-206.89 19.35c-9.87 2.67-13.75 15.44-8.65 23.83 5.68 9.64 21.31 10.25 28.06 1.51 3.57-4.41 3.68-10.68 2.26-15.92-2.89-8.58-13.51-12.35-21.67-9.42m38.73 21.66c-2.6 3.28-3.16 7.57-3.05 11.63-6.75-.15-10.12 7.38-9.98 13.22-.03 26.68.03 53.37-.02 80.05-.06 6.67-.23 13.53 1.99 19.93 2.24 6.93 7.07 13.58 14.3 15.79 6.51 2.39 13.25-.34 19.66-1.68 4.99-1.34 10.33-1.7 14.99-4.07 4.27-2.84 5.23-8.39 5.05-13.16 8.24-.81 12.19-11.06 9.03-18.03-1.07-2.26-3.41-4.43-6.09-3.84-8.08 1.29-15.91 3.96-24.01 5.08-5.69.27-8.82-6.02-8.74-10.98-.12-29.36-.01-58.72-.06-88.08.09-3.43-1.11-7.31-4.38-8.92-3.18-1.53-6.83.39-8.69 3.06m638.35 28.48c-17.36 3.97-34.72 7.91-52.07 11.88-6.56 1.11-9.71 8.45-9.2 14.49-6.26 1.42-10.53 7.61-9.98 13.95.12 3.69 2.48 8.46 6.8 8.08 6.77-.6 13.2-3.17 19.95-4.04.26 5.01.25 10.04.2 15.06-.02 28.02.04 56.03-.03 84.05.08 3.19.19 6.79 2.53 9.25 2.52 3.03 7.51 2.01 9.77-.86 3.49-3.19 3.12-8.31 5.15-12.29 5.94-.98 8.84-7.67 8.73-13.12 0-33.63-.01-67.25.05-100.87l.71-.19c-.57 4.07-.58 8.2-.21 12.3 4.45-.69 9.73-.8 12.89-4.5 2.82-3.18 3.19-7.57 3.5-11.6 8.16-.97 11.88-11.32 8.78-18.21-1.25-2.9-4.58-4.44-7.57-3.38m-151.28 34.66c-3.91 3.06-4.56 8.33-6.17 12.72-3.17 1.74-6.43 3.93-7.51 7.59-13.56 41.18-26.92 82.44-40.38 123.65-1.2 3.67-1.4 8.19 1.45 11.19 2.98 3.56 8.88 1.87 11.01-1.78 1.99-3.62 2.77-7.8 5.03-11.29 5.43-1.64 6.94-7.64 8.42-12.41 7.96-24.39 16.04-48.75 24-73.14 2.7 6.16 4.86 12.53 7.38 18.77-5.87 2.6-8.9 8.99-8.23 15.23-8.04.65-11.72 10.46-9.26 17.29 1.23 3.83 6.17 5.83 9.6 3.55 4.62-2.7 5.56-8.4 6.01-13.27.8-.33 1.62-.65 2.44-.95 2.22-.97 4.05-2.67 5.39-4.67 3.93 6.88 5.99 14.6 9.04 21.88 2.99 7.11 5.11 14.6 8.47 21.55 1.78 3.96 7.45 3.75 10.13.88 3.91-3.21 3.4-8.7 5.61-12.85 7.13-1.36 10.24-10.49 7.93-16.78-12.68-33.27-25.5-66.5-38.19-99.78-1.02-2.51-1.84-5.2-3.62-7.28-2.32-2.14-6.17-2.15-8.55-.1m-95.9 23.03c-3.41 3.19-4.34 8.05-4.14 12.53-6.15.34-9.87 6.5-9.95 12.17-.25 7.67.04 15.35-.07 23.03-.17 5.82.76 11.79-.99 17.46-9.2-17.02-18.27-34.11-27.48-51.13-1.33-2.7-4.25-5.03-7.39-3.93-5.86 1.89-8.3 8.73-7.88 14.42-6.22 1.1-10.21 7.17-9.99 13.27-.12 36.65.04 73.3-.08 109.96.07 3.34.33 7.24 3.05 9.6 2.74 2.21 6.92 1.42 9.17-1.11 3.27-3.11 3.88-7.8 4.28-12.06 5.87-1.11 9.71-6.78 9.67-12.57.09-13.72-.04-27.44.05-41.16 3.38 4.39 5.66 9.46 8.37 14.27 6.51 12.49 13.41 24.78 19.84 37.31 1.25 2.53 3.79 5.12 6.89 4.3 6.15-1.49 8.9-8.43 8.35-14.23 2.56-1.05 5.42-1.96 7.09-4.35 3.85-4.78 3.17-11.31 3.26-17.04-.03-34.34-.02-68.68-.01-103.02.01-3-.36-6.4-2.79-8.46-2.58-2.56-6.95-1.77-9.25.74m-108.62 25.38c-3.08 3.23-3.89 7.86-3.7 12.17-2.49.54-5.19 1.18-6.74 3.4-3.92 4.28-3.22 10.43-3.25 15.78.06 34.68.03 69.37.01 104.06-.12 3.61.89 7.85 4.48 9.5 3.83 1.26 7.7-1.32 9.55-4.58 1.94-2.79 2.01-6.28 1.92-9.53 5.78-1.14 10.11-6.49 10.08-12.37.07-37.38 0-74.77.03-112.16.09-2.88-.72-6-3.14-7.78-2.81-2.28-7.05-1.05-9.24 1.51m-54.54 12.44c-10.39 14.14-20.5 28.5-30.98 42.58-9.93-9.01-19.71-18.19-29.6-27.24-2.14-2.21-5.66-2.86-8.29-1.15-4.5 2.84-6.14 8.49-5.81 13.56-5.72 1.03-10.06 6.3-9.75 12.15-.14 37.33.03 74.67-.09 112.01.01 3.45.43 7.73 3.82 9.58 3.04 1.12 6.69.09 8.73-2.41 2.75-3.2 3.27-7.56 3.67-11.59 5.9-1.17 9.77-6.82 9.71-12.66.1-21.69-.02-43.39.06-65.08 4.48 3.3 7.98 7.72 12.41 11.08 2.89 2.28 7.38 1.48 9.55-1.41 3.51-4.25 6.88-8.7 9.24-13.7 4.38-5.59 8.39-11.47 12.56-17.23 2.13 3.43 1.19 7.6 1.32 11.42-.06 23 .02 46-.04 69 .03 3.93-.25 7.92.56 11.81.97 3.26 4.7 6.16 8.17 4.62 5.67-2.03 7.34-8.61 7.56-14 2.57-1.04 5.45-1.97 7.01-4.45 3.05-4 2.83-9.24 2.78-13.98-.04-35.35-.02-70.71-.01-106.06.06-3.31-.66-7.11-3.6-9.08-2.98-1.99-7.11-.67-8.98 2.23m-173.6 37.15c-2.52.62-5.34 1.07-7.17 3.11-3.22 3.26-4.07 8.02-3.91 12.44-2.13.54-4.63.69-6.14 2.5-3.47 3.64-3.86 8.95-3.95 13.72.01 32.99.02 65.99 0 98.99.06 4.66-.43 9.41.6 14.01.8 3.53 4.58 7.15 8.37 5.35 5.43-2.31 7.41-8.49 7.53-13.95 5.57-1.53 9.56-6.73 9.71-12.48.18-11.61-.01-23.22.08-34.83 6.94-.61 13.49-3.27 20.4-3.97 5.24-.27 8.63 5.18 8.83 9.9.55 11.32-.11 22.68.23 34.02-.02 3.06 1.55 6.15 4.29 7.64 2.86 1.11 6.12.05 8.01-2.3 3.58-3.19 2.87-8.43 5.23-12.29 5.45-.91 8.44-6.94 8.46-12.04.1-10.35 0-20.71.04-31.06.07-7.42-1.43-15.14-5.87-21.23-.87-1.53-3.03-3.21-1.51-5.02 4.49-8.19 7.39-17.36 7.38-26.75.23-9.21-2.31-18.73-8.26-25.89-4.72-5.69-12.52-8.81-19.83-7.21-10.87 2.32-21.66 4.99-32.52 7.34m-80.08 18.37c-12.6 3.68-21.12 14.97-26.34 26.44-9.21 9.17-13.68 22.21-14.92 34.93-.44 12.33-.06 24.68-.18 37.02.19 10.15-1.01 20.66 2.53 30.42 2.88 8.42 8.56 16.71 17.28 19.76 8.04 2.59 16.32-.44 24.21-2.15 4.2-1.1 8.68-1.44 12.61-3.4 4.52-2.84 5.69-8.49 5.61-13.46 8.28-.86 12.12-11.3 8.77-18.21-1.15-2.52-3.93-4.31-6.72-3.51-7.03 1.38-13.97 3.23-20.97 4.74-2.88.62-6.08.76-8.71-.76-4.38-2.55-7.06-7.3-8.07-12.15.44-1.93-.91-5.3 1.64-6.01 8.84-2.37 17.97-3.66 26.74-6.32 5.69-1.91 7.57-8.65 7.06-14.07 8.71-.89 12.83-12.4 8.5-19.37-1.47-2.43-4.53-3.01-7.11-2.28-8.48 1.88-16.94 3.85-25.41 5.8-6.47 1.4-9.31 8.9-8.62 14.9-.86.03-2.59.09-3.45.11.49-11.7-1.39-23.75 1.78-35.18 7.3-1.77 14.59-3.61 21.95-5.13 3.44-.81 7.46-1.35 9.61-4.52 2.61-3.01 3.09-7.1 2.5-10.92 8.73-.72 13.03-11.84 8.95-18.97-1.24-2.24-3.87-3.62-6.41-2.92-7.63 1.6-15.24 3.39-22.83 5.21m705.67 12.35c.16 13.27-.21 26.56.18 39.82.4 3.18 4.78 1.72 4.89-.89.53-5.54-.18-11.14.33-16.68.43-3.09 2.33-6.5 5.61-7.17 2.51-.61 4.69 1.69 5.08 4.01.93 6.26-.76 12.76 1.03 18.91 2.01.08 4.17-.91 4.34-3.16.42-5.27.2-10.57.11-15.85-.11-4.68-2.69-10.13-7.75-10.94-3.26-.66-6.04 1.41-8.63 3.03.01-6.14.29-12.28-.23-18.4-.76 0-2.27.01-3.03.01-2.42 1.64-1.85 4.8-1.93 7.31m34.18.05c4.37 3.25 7.69-5.91 2.69-6.48-2.85.83-2.86 4.07-2.69 6.48m27.15-3.52c-3.85 1.04-6.47 4.45-8 7.96-2.35 5.19-1.21 11.03-1.48 16.55.21 2.77-.61 5.85.78 8.41 1.87 1.22 4.07-.52 4.29-2.48.63-5.9-.11-11.85.34-17.75.35-2.57 2.03-5.39 4.77-5.87 2.17-.38 3.9 1.7 4.04 3.73.49 5.84-.2 11.73.3 17.57.54 3.69 5.68 1.31 5.11-1.62 0-6 .18-12.02-.13-18-.19-4.94-4.79-10.09-10.02-8.5m-81.88 8.05c-7.83 5.77-11.6 15.97-10.76 25.5.4 4.86 2.24 9.92 6.16 13.04 3 2.41 7.41 3.48 11.02 1.87 2.11-1.44 1.55-4.19 1.26-6.31-2.84-.23-6.04.46-8.5-1.35-3.54-2.51-4.87-7.14-4.76-11.3.05-7.07 3.97-14.66 10.98-17.02 3.11-.84 2.87-4.49 2.04-6.91-2.68.04-5.32.83-7.44 2.48m56.77-2.18c-2.06 1.02-2.22 3.55-2.16 5.57.06 7.68-.07 15.37.05 23.05-.02 1.1.48 2.97 1.9 2.85 2.51.27 3.46-2.79 3.37-4.79 0-8.01.14-16.04-.07-24.04.16-1.67-1.35-3.67-3.09-2.64m-85.97 25.81c-2.76.65-5.54 1.18-8.26 1.96-2.64.5-3.64 3.96-2.39 6.14.96 1.37 2.72.62 4.06.43 3.24-.78 6.53-1.4 9.75-2.31 2.84-.65 3.64-5.16 1.42-6.91-1.56-.02-3.08.36-4.58.69m-42.53 8.62c-2.79 4.82-3.1 10.62-2.37 16.03.62 4.06 3.42 8.32 7.79 8.86 3.04.44 5.67-1.44 8.15-2.91-.1 4.27.88 9.13-1.91 12.8-1.4 2.11-4.61 3.61-6.82 1.8-2.89-1.93-1.2-6.34-3.81-8.35-2.64-.25-3.96 2.78-3.67 5.01-.01 4.79 2.7 10.32 7.85 11.13 5.11.69 9.31-3.41 11.46-7.61 3.11-5.69 2.11-12.35 2.27-18.55-.14-5.49.34-11-.31-16.46-.55-4.27-3.86-8.72-8.48-8.79-4.46-.03-8.1 3.35-10.15 7.04m-51.37-1.4c-1.41 1.55-1.53 4.01-.33 5.74 2.98 1.73 5.32-2.65 4.22-5.15-.19-1.91-2.97-2.01-3.89-.59m23.21 3.28c-4.42 3.22-6.7 8.87-6.6 14.26.05 5.76-.22 11.54.28 17.29 2 .77 4.47.06 4.79-2.34.6-5.87-.11-11.8.31-17.69.3-2.62 1.97-5.43 4.69-6.05 2.28-.48 4.06 1.78 4.18 3.87.31 4.67.03 9.36.09 14.04.06 1.64-.19 3.49.92 4.9 2.1 1.43 4.34-1.04 4.34-3.14.26-4.95.05-9.92.1-14.87.05-3.84-.82-8.2-4.15-10.54-2.63-2.01-6.39-1.61-8.95.27m-40.38.28c-2.28 1.5-2.66 6.53.74 6.77 3.92-.72 3.66-8.93-.74-6.77m18.01 4.22c-2.83 2.02-1.78 5.87-1.99 8.82.27 7.55-.52 15.16.5 22.67 1.49-.25 3.49.17 4.16-1.62.9-1.86.49-4.02.61-6-.17-7.89.27-15.79-.28-23.66-1-.15-2-.22-3-.21m-19.71 8.78c-.04 10.03.01 20.07.01 30.11-.06 1.86-.07 3.85-1.06 5.51-1.24 2.2-3.94 2.81-5.54 4.65-.66 1.59-.18 3.34-.11 5.01 6.7.7 11.01-6.59 11.78-12.41.36-10.95.02-21.93.17-32.9-.09-1.65.28-4.41-1.99-4.67-2.43-.19-3.44 2.69-3.26 4.7m-37.22 9.38c-2.91 5.44-1.75 11.78-1.99 17.68.16 2.72-.53 5.69.77 8.23 1.94 1.36 4.22-.6 4.38-2.64.42-5.53-.09-11.09.2-16.63.1-2.81 1.68-5.86 4.5-6.73 2.32-.65 4.33 1.58 4.45 3.77.56 6.39-.35 12.84.58 19.21 1.91.31 4.16-.16 4.57-2.38.43-5.96.14-11.96.16-17.93-.01-4.26-2.56-9.02-7.07-9.75-4.74-.62-8.65 3.2-10.55 7.17m-59.72.62c-.08 7.8.09 15.6-.06 23.41-4.6-7.54-8.25-15.62-12.78-23.19-1.2-2.52-4.56-.11-4.55 1.99-.33 11.62 0 23.26-.15 34.89.08 1.73-.24 3.66.72 5.24 2.21 1.63 4.64-1.03 4.46-3.28.21-8.14-.06-16.29.11-24.43 3.52 5.62 6.37 11.63 9.58 17.43 1.35 2.31 2.24 5 4.23 6.86 2.5.08 3.82-2.61 3.68-4.8.05-12.02.09-24.04-.01-36.06.18-1.55-1.04-3.32-2.73-2.83-2.06.51-2.53 2.94-2.5 4.77m23.54 4.21c-5.58 5.22-6.71 13.57-5.37 20.78.85 4.21 4.34 8.82 9.13 8.16 4.16-.25 7.16-3.53 9.38-6.74 1.68 1.28 3.36 2.87 5.6 2.98 2.54-.66 2.69-3.56 2.83-5.7-2.24-1.44-5.4-2.63-5.61-5.72-.22-4.94.23-10.66-3.67-14.41-3.26-3.62-9.13-2.51-12.29.65m-86 5.94c-1.51.63-2.29 2.3-2.23 3.88-.2 8.63.09 17.27-.1 25.91-.15 3.53-2.16 7.64-5.92 8.41-2.99.65-5.2-2.59-5.15-5.27-.16-8.94.18-17.9-.12-26.83.1-1.73-1.86-3.2-3.37-2.1-1.96 1.25-1.85 3.8-1.88 5.83.04 7.69-.01 15.39.03 23.08-.01 4.24 1.28 9.06 5.14 11.37 3.26 1.99 7.53.89 10.26-1.5 4.18-3.67 6.39-9.33 6.25-14.84-.05-8.34.08-16.69-.05-25.03.18-1.62-1.03-3.65-2.86-2.91m-43.8 10.3c-5.08 3.34-7.66 9.64-7.69 15.59 0 5.34-.07 10.69.03 16.04.09 4.34 2.14 9.21 6.44 10.88 3.72.82 7.45-.7 11.05-1.54 3.08-.5 4.06-6.13.79-6.97-3.52.15-7.12 2.52-10.57 1.21-3.53-2.76-2.35-7.74-2.59-11.61.36-5.04-1.07-10.74 1.93-15.19 2.67-4.05 8.27-2.73 11.97-5.06 1.78-1.73 1.21-4.28.43-6.31-3.99.62-8.17 1.06-11.79 2.96m329.75 8.92c-1.65 2.64-.18 7.77 3.61 6.65 2.82-2.62 5.52-7.06 10.05-5.91 5.24 2.13 4.58 9.23 2.77 13.56-5.29 10.16-11.65 19.75-17 29.88-1.28 2.3-.23 7.16 3.1 6.34 6.81-1.41 13.58-3.07 20.38-4.59 4.55-.34 6.35-7.46 2.54-9.89-5.01.32-9.78 2.18-14.73 2.92 5.02-10.25 13.58-19.39 14.04-31.32.44-6.29-1.79-14.09-8.35-16.34-6.71-1.91-13.24 3.14-16.41 8.7m-268.54-4.8c-2.41 1.16-1.97 4.23-1.5 6.39 4.58.2 8.98-1.34 13.39-2.34 3.19-.32 4.47-5.7 1.5-7.06-4.52.64-9.02 1.68-13.39 3.01m-90.25 2.83c-6.75 4.29-8.97 14.39-4.85 21.19 1.6 2.72 5.13 2.71 7.48 4.44 1.88 2.94.99 7.16-1.64 9.36-1.71.8-3.75.66-5.37 1.66-1.3 1.68-1.82 4.67.24 6.02 2.47.45 5.13-.08 7.09-1.69 5.75-4.55 7.48-13.43 4.21-19.9-1.37-2.92-4.76-3.33-7.34-4.6-2.29-2.28-1.75-6.26.02-8.69 1.46-2.01 4.19-1.78 6.28-2.63 1.68-1.57 1.18-3.94.93-5.93-2.37-.5-4.96-.7-7.05.77m29.26 11.18c-2.23 1.59-1.74 4.56-.62 6.69 3.39-.6 6.78-1.27 10.11-2.18 2.99-.6 3.95-5.07 1.66-7.01-3.79.34-7.58 1.22-11.15 2.5m250.48 3.5c-4.56 6.11-8.97 12.33-13.43 18.51-4.17-3.55-8.07-7.38-12.11-11.05-1.07-.72-2.08-2.27-3.51-1.76-2.83.46-3.83 3.73-3.7 6.23-.03 15.69.01 31.37-.02 47.06-.04 2.1.07 5.11 2.7 5.6 2.8-.12 4.48-3.03 4.37-5.59.06-13.05.01-26.09.01-39.14 3.44 2.87 6.53 6.13 10.02 8.95 1.37 1.36 3.49.39 4.39-1.02 3.38-4.3 6.26-8.98 9.82-13.15.18 13.4-.27 26.82.21 40.21.95 4.7 7.09 1.71 6.79-2.04.36-15.62.01-31.25.17-46.87-.1-2.08.22-4.31-.73-6.21-1.12-1.94-4-1.62-4.98.27m-54.72 36.19c-3.56.82-7.17 1.45-10.65 2.55-3.6 1.29-4.49 7.98-.49 9.2 4.06-.53 8.02-1.67 12.01-2.58 4.19-.53 5.84-6.89 2.55-9.45-1.16-.09-2.3 0-3.42.28m-90.94 1.08c-2.85 1.95-3.47 8.07.57 8.91 4.18-.31 5.71-6.65 2.76-9.3-1.2-.45-2.31-.31-3.33.39z"/><path d="M210.8 363.95c5.72-2.08 11.46-4.45 17.59-4.99-9.14 17.81-15.63 37.02-18.54 56.86-8.48-2.2-17.26-1.5-25.92-1.71-4.58-.06-10-1.65-11.69-6.41-2.39-6.8-1.39-14.27.03-21.17 11.55-9.5 24.54-17.25 38.53-22.58zM965.89 761.84c7.05-6.07 16.74-10.66 26.17-7.9 10.06 3.01 16.11 13.15 18.05 22.95 2.25 10.12.1 20.41-1.94 30.37-6.77 9.94-21.21 15.78-32.45 9.97-8.55-4.52-13.19-14.04-14.59-23.28-1.49-10.82-.2-22.3 4.76-32.11zM393.96 756.3c6.53 2.16 12.87-1.18 19.3-1.89 3.02-.52 6.09 1.74 6.52 4.77 1.06 6.51.36 13.15.28 19.72-6.33 1.17-13.97 4.61-19.49-.47-6.75-5.21-6.87-14.4-6.61-22.13zM318.67 899.02c6.15-1.09 12.12-3.23 18.37-3.8 3.91-.39 7.21 2.57 8.99 5.79 2.15 4.09 1.94 8.86 2.41 13.33-9.77 2.9-19.81 4.79-29.73 7.05-.16-7.46-.09-14.91-.04-22.37zM854.29 934.15c2.74-1.32 5.63 1.17 5.96 3.89.62 4.43.48 10.02-3.64 12.8-2.55 1.98-6.3.11-6.8-2.91-.89-4.81-.65-11.44 4.48-13.78zM707.56 967.63c2.66-1.26 5.49 1.12 5.91 3.76.77 4.59.39 10.43-4.05 13.1-2.74 1.7-6.06-.62-6.5-3.52-.84-4.71-.37-11.14 4.64-13.34zM954.59 986.97c.03-3.88 2.47-8.2 6.53-8.94 3.16-.25 5.41 3.02 5.31 5.95.16 7.67-.02 15.35.08 23.02-.11 2.38.27 5.34-1.86 7-1.34 1.14-2.64 2.3-3.91 3.51-1.48 1.98-4.08.38-5.04-1.27-1.35-2.17-1.12-4.82-1.16-7.24.08-7.35-.07-14.69.05-22.03z"/></g><path fill="#84ccfb" d="M968.01 262.96c10.25-2.24 21.36-3.44 31.29.78 8.51 3.4 14.41 11.31 17.16 19.85 5.2 15.57 4.29 32.24 4.36 48.41-.37 17.69 1.4 35.32 1.69 53-.05 15.12-.93 30.91-7.86 44.66-5.78 11.56-16.53 20.04-28.5 24.52-10.64 4.19-21.96 6.19-33.14 8.26-2.81-.06-5.06-1.69-6.58-3.94-25.74-34.44-63.25-59.62-104.55-71.36-19.83-5.56-40.49-8.81-61.13-8.11-4.06-9.97-9.87-19.71-19.16-25.61-11.24-7.41-26.29-6.99-37.98-.84-16.56 8.26-26.06 25.48-31.56 42.44-32.65 11.55-62.82 29.59-89.49 51.58-31.21 26.14-57.97 57.79-77.62 93.5-11.17 2.31-22.52 4.09-33.94 4.35-10.41.11-21.85-2.25-29.04-10.39-7.93-8.89-9.47-21.33-10.27-32.74-1.1-22.76.3-45.55.06-68.32-.02-18.94-.63-38.92 7.78-56.41 6.02-12.98 18.34-22.11 31.83-26.24 20.44-6.41 41.92-8.13 62.9-12.06 137.91-25.13 275.83-50.24 413.75-75.33m-9.65 22.5c-7.59 1.85-12.45 10-11.46 17.58.31 4.26 3.09 8.57 7.43 9.58 5.2 1.1 10.99-.79 14.39-4.92 4.37-5.12 5.61-13.31 1.59-18.98-2.63-3.74-7.81-4.48-11.95-3.26m-45.02 9.71c-13.65 2.48-27.3 4.97-40.94 7.47-3.65.66-7.29 2.14-9.78 4.98-4.59 5.16-6.19 13.78-1.76 19.52 2.69 3.61 7.6 4.07 11.7 3.16 13.48-2.47 26.93-5.08 40.43-7.43 2.77-.52 5.61-1.25 7.9-2.99 6.37-4.64 8.75-14.44 4.4-21.18-2.59-3.86-7.73-4.53-11.95-3.53m-100.94 18.4c-9.8 2.09-15.05 14.55-10.1 23.14 2.61 4.45 8.6 5.45 13.17 3.77 9.41-2.71 14.07-15.4 8.49-23.47-2.55-3.64-7.48-4.42-11.56-3.44m-143.05 22.8c-10.34 1.39-16.29 14.47-11.03 23.32 2.73 4.73 9.18 5.42 13.86 3.46 8.71-3.04 12.89-14.64 8.19-22.55-2.21-3.76-6.94-5.04-11.02-4.23m-59.95 15.02c-29.06 5.36-58.12 10.67-87.19 15.94-9.76 1.5-15.65 13.24-11.69 22.1 1.43 3.32 4.83 5.68 8.48 5.65 4.43-.07 8.73-1.27 13.08-1.98 24.56-4.44 49.11-8.94 73.66-13.42 4.86-.98 10.34-1.21 14.15-4.78 5.73-5.18 7.73-15.1 2.49-21.26-3.26-3.75-8.63-3.22-12.98-2.25z"/><g fill="#4ba3e4"><path d="M780.75 379.03c20.64-.7 41.3 2.55 61.13 8.11 41.3 11.74 78.81 36.92 104.55 71.36 1.52 2.25 3.77 3.88 6.58 3.94-33.26 5.67-66.4 11.95-99.59 17.96-12.04 2.27-24.43 5.84-36.68 2.91-8.47-1.8-15.88-7.56-19.79-15.26-7.21-13.54-7.53-29.27-8.72-44.2-.98-15.13-2.86-30.32-7.48-44.82zM602.56 446.6c26.67-21.99 56.84-40.03 89.49-51.58-5.12 18.53-6.3 37.83-6.94 56.96-.49 10.05-1.02 20.27-4.24 29.89-2.88 9.06-8.2 17.38-15.57 23.43-13.29 10.92-30.57 14.71-47.05 17.92-31.12 5.55-62.17 11.45-93.31 16.88 19.65-35.71 46.41-67.36 77.62-93.5z"/></g><g fill="#094d61"><path d="M706.41 600.5c7.52-1.9 15.11-3.55 22.68-5.24 2.6-.83 5.44.42 6.79 2.75 4.09 7 .01 18.19-8.65 18.98-6.32 1.48-12.71 2.69-18.99 4.32-7.85 1.96-13.02 9.25-15.4 16.59-.62 1.88-1.01 3.84-1.26 5.81-1.08 9.06-.41 18.2-.57 27.29.3 9.08-.42 18.2.53 27.25.75 6.99 5.55 15.25 13.42 15.18 6.83-.76 13.44-2.87 20.16-4.27 3.22-.71 7.4-2.27 9.91.82 5.51 6.73 1.27 19.31-7.86 20.09-8.42 1.53-16.61 4.5-25.19 4.96-9.69.37-17.69-6.93-21.81-15.11-4.4-8.24-5.18-17.76-4.93-26.93.06-14.02-.02-28.03.03-42.05-.01-8.2 1.93-16.27 4.96-23.85 5.2-11.47 13.63-22.8 26.18-26.59zM557.36 635.38c2.45-2.4 6.93-2.55 9.26.08 2.03 2.86 3 6.3 4.29 9.53 12.34 32.33 24.78 64.63 37.13 96.97 2.75 7.01-1.3 16.39-9.16 17.58-2.41-1.36-4.75-3.11-5.55-5.89-8.19-21.46-16.45-42.9-24.66-64.36-2.55-6.42-4.72-13-7.68-19.24-2.97 7.41-5.16 15.1-7.72 22.65-8.52 25.74-16.88 51.53-25.4 77.26-1.08 3.41-3.65 6.37-7.14 7.4-2.06-.25-4.46-.43-5.81-2.23-2.79-3.4-2.19-8.19-.94-12.09 12.43-38.05 24.91-76.09 37.21-114.18 1.81-4.56 2.35-10.03 6.17-13.48z"/><path d="M707.69 656.76c7.46-1.54 14.82-3.56 22.31-4.96 2.77-.66 5.39 1.33 6.47 3.77 3.06 7.12-1.07 17.37-9.41 18.15-7.17 1.53-14.31 3.23-21.46 4.9-2.53.43-5.55 1.37-7.74-.48-3.42-2.59-3.33-7.34-3.02-11.19.88-3.03 2.55-5.99 5.18-7.83 2.33-1.38 5.08-1.72 7.67-2.36zM427.27 664.09c3.3-.6 7.51-2.48 10.2.5 5.73 6.58 1.67 19.36-7.46 20.26-6.28 1.46-12.62 2.67-18.86 4.27-7.89 1.92-13.04 9.22-15.59 16.5-1.17 3.31-1.57 6.83-1.57 10.33-.01 7.7.03 15.4 0 23.1.01 5.74.01 11.49-.03 17.25-.26 7.73-.14 16.92 6.61 22.13 5.52 5.08 13.16 1.64 19.49.47 5.09-.71 9.5-4.74 10.02-9.96.63-6.97.25-14 .27-20.98.1-3.59-1.41-8.25-5.57-8.62-6.05-.01-11.66 3.16-17.72 3.02-3.26-.53-4.74-3.91-5.73-6.66-.33-4.84 1.15-10.11 5.11-13.17 2.7-1.86 6.11-2.04 9.2-2.87 5.93-1.37 12.45-3.57 18.25-.51 9.08 4.47 12.72 15.33 12.55 24.87-.17 8.33.42 16.71-.42 25.03-1.24 9.75-6.32 18.85-13.36 25.62-5.64 4.57-13.02 5.53-19.86 7.14-4.71 1.09-9.79 1.56-14.38-.25-6.69-2.65-12.88-7.33-16.09-13.89-3.31-6.7-4.4-14.27-4.38-21.67.03-15.69 0-31.37.01-47.05-.13-8.54 2.25-16.88 5.48-24.71 3.79-8.2 8.55-16.45 16.3-21.5 8.12-5.61 18.3-6.04 27.53-8.65zM1083.56 690.54c11.87-2.72 23.74-5.5 35.64-8.1 8.89-1.85 17.99 3.3 22.3 11.01 9.24 15.55 6.13 35.56-2.69 50.58 5.18 6.08 8.07 13.91 8.18 21.89.07 11.38.08 22.75.01 34.13.03 5.86-4.18 11.26-10.01 12.32-2.65-1.76-5.7-3.88-5.8-7.4-.56-11.32.09-22.68-.24-34.01-.12-4.06-1.7-8.51-5.46-10.52-2.52-1.41-5.47-.51-8.1-.01-8.53 2-17.08 3.96-25.64 5.84-.21 4.23-.22 8.47-.19 12.72-.01 11 .02 22.01 0 33.02.09 5.3-2.57 11.36-7.91 13.15-1.87-.08-4.07.08-5.43-1.42-2.38-2.21-2.77-5.63-2.8-8.69 0-36.73.06-73.46-.03-110.19-.38-5.7 2.02-12.81 8.17-14.32m8.1 19.44c-.13 4.09-.14 8.19-.04 12.29-.07 7.59-.16 15.18.06 22.76 9.85-2.32 19.8-4.24 29.56-6.96 8.51-5.86 12.08-17.89 8.26-27.46-1.71-4.42-6.45-7.94-11.31-6.66-8.87 1.9-17.7 3.98-26.53 6.03zM259.11 705.1c1.86-2.67 5.51-4.59 8.69-3.06 3.27 1.61 4.47 5.49 4.38 8.92.05 29.36-.06 58.72.06 88.08-.08 4.96 3.05 11.25 8.74 10.98 8.1-1.12 15.93-3.79 24.01-5.08 2.68-.59 5.02 1.58 6.09 3.84 3.16 6.97-.79 17.22-9.03 18.03-7.15 1.42-14.16 3.45-21.34 4.68-7.52 1.27-14.98-2.97-19.05-9.14-4.31-6.2-5.66-13.92-5.6-21.33.01-28.1.03-56.2 0-84.29-.11-4.06.45-8.35 3.05-11.63zM552.95 721.99c.06-5.17 3.63-9.62 8.26-11.63 2.16.76 4.88 1.11 6.15 3.3 2.44 4.03 1.67 9.13-.08 13.27-1.47 2.42-3.61 4.88-6.58 5.25-1.87-.1-4.07.03-5.42-1.5-2.35-2.23-2.37-5.7-2.33-8.69zM982.35 720.39c9.59-4.6 21.33-5.37 30.93-.37 11.74 6.33 19.09 18.66 22.01 31.38 5.77 26.55-2.29 55.9-21.2 75.48-6.03 5.81-13.2 10.68-21.37 12.85-8.5 2.46-18.06 1.92-25.79-2.61-10.82-6.18-17.44-17.76-20.44-29.56-4.35-18.17-1.57-37.44 5.72-54.48 6.88-13.26 16.29-26.15 30.14-32.69m-16.46 41.45c-4.96 9.81-6.25 21.29-4.76 32.11 1.4 9.24 6.04 18.76 14.59 23.28 11.24 5.81 25.68-.03 32.45-9.97 2.55-2.49 5.21-5.34 5.94-8.93 3.83-5.18 5.22-11.69 6.33-17.9 1.47-11.05.58-23.34-6.39-32.5-4.47-7.17-13.55-11.12-21.86-9.44-12.23 2.23-21.55 12.33-26.3 23.35zM138.66 730.68c2.71-2.32 7.54-1.92 9.36 1.32 1.96 3.32 3.04 7.05 4.46 10.62 12 31.31 23.98 62.63 36.01 93.92 2.03 4.65 1.48 10.3-1.59 14.37-1.64 2.29-4.37 3.32-6.78 4.58-6.01-2.4-6.92-9.22-9.13-14.49-9.79-25.32-19.28-50.77-29.3-76-2.38 7.64-4.94 15.22-7.41 22.84-4.82 14.94-10.05 29.76-14.51 44.81-4.3 11.33-7.49 23.06-11.67 34.44-1.17 3.25-4.31 4.99-7.24 6.44-2.48-1.08-5.53-2.08-6.4-4.96-1.97-5.03.59-10.2 2.05-14.99 7.56-23.46 15.49-46.8 22.8-70.34 4.53-13.02 8.71-26.17 12.88-39.31 1.75-4.56 2.43-10.03 6.47-13.25zM897.46 733.58c2.99-1.06 6.32.48 7.57 3.38 3.1 6.89-.62 17.24-8.78 18.21-5.4 1.24-10.83 2.35-16.18 3.8l-.71.19c-.06 33.62-.05 67.24-.05 100.87.11 5.45-2.79 12.14-8.73 13.12-5.44.28-7.74-5.51-7.34-10.1-.02-33.41.12-66.82-.06-100.22-6.78 1.1-13.32 3.42-20.14 4.15-3.96.37-5.97-3.84-6.85-7.03-.51-6.04 2.64-13.38 9.2-14.49 17.35-3.97 34.71-7.91 52.07-11.88zM746.18 768.24c2.38-2.05 6.23-2.04 8.55.1 1.78 2.08 2.6 4.77 3.62 7.28 12.69 33.28 25.51 66.51 38.19 99.78 2.31 6.29-.8 15.42-7.93 16.78-2.91.06-5.56-1.47-6.42-4.34-11.06-28.28-21.56-56.8-32.83-85.01-2.66 7.24-4.91 14.62-7.33 21.94-7.96 24.39-16.04 48.75-24 73.14-1.48 4.77-2.99 10.77-8.42 12.41-2.68.29-5.68-.4-6.97-3.01-2.92-4.89-.4-10.58 1.18-15.46 12.11-36.95 24.13-73.92 36.19-110.89 1.61-4.39 2.26-9.66 6.17-12.72zM650.28 791.27c2.3-2.51 6.67-3.3 9.25-.74 2.43 2.06 2.8 5.46 2.79 8.46-.01 34.34-.02 68.68.01 103.02-.09 5.73.59 12.26-3.26 17.04-1.67 2.39-4.53 3.3-7.09 4.35-2.24-1.51-4.36-3.28-5.55-5.75-10.99-20.69-22.14-41.29-33.13-61.97-1.35-2.54-2.81-5.01-4.44-7.37-.75 11.13-.17 22.29-.33 33.44-.09 13.72.04 27.44-.05 41.16.04 5.79-3.8 11.46-9.67 12.57-1.68-1.05-3.58-1.89-4.81-3.48-1.39-2.03-1.5-4.59-1.59-6.95 0-36.41.07-72.82-.03-109.23-.42-5.69 2.02-12.53 7.88-14.42 3.14-1.1 6.06 1.23 7.39 3.93 9.21 17.02 18.28 34.11 27.48 51.13 3.6 6.61 6.93 13.38 10.85 19.82.46-24.15.14-48.32.16-72.48-.2-4.48.73-9.34 4.14-12.53z"/><path d="M133.89 815.91c.8-4.57 4.23-7.92 8.18-9.99 2.26.84 5.06 1.33 6.29 3.68 2.29 4.07 1.39 9.04-.2 13.2-1.91 2.87-4.86 4.7-8.06 5.82-1.94-1.19-4.39-2.06-5.41-4.25-1.14-2.67-.9-5.65-.8-8.46zM541.66 816.65c2.19-2.56 6.43-3.79 9.24-1.51 2.42 1.78 3.23 4.9 3.14 7.78-.03 37.39.04 74.78-.03 112.16.03 5.88-4.3 11.23-10.08 12.37-3.52-1.84-6.26-5.19-5.9-9.36-.1-36.42.05-72.85-.07-109.27-.19-4.31.62-8.94 3.7-12.17zM487.12 829.09c1.87-2.9 6-4.22 8.98-2.23 2.94 1.97 3.66 5.77 3.6 9.08-.01 35.35-.03 70.71.01 106.06.05 4.74.27 9.98-2.78 13.98-1.56 2.48-4.44 3.41-7.01 4.45-3.69-1.73-6.7-5.05-6.3-9.38-.09-29.68-.06-59.37 0-89.06-3.85 5.13-7.64 10.3-11.27 15.59-4.17 5.76-8.18 11.64-12.56 17.23-2.7 1.3-6.25 2.56-8.72.1-7.64-6.36-14.39-13.74-22.27-19.81-.45 7.9-.16 15.82-.21 23.74-.08 21.69.04 43.39-.06 65.08.06 5.84-3.81 11.49-9.71 12.66-3.65-1.4-6.49-4.6-6.27-8.69-.19-37.01.04-74.04-.11-111.05-.33-5.07 1.31-10.72 5.81-13.56 2.63-1.71 6.15-1.06 8.29 1.15 9.89 9.05 19.67 18.23 29.6 27.24 10.48-14.08 20.59-28.44 30.98-42.58zM741.18 858.77c-.67-6.24 2.36-12.63 8.23-15.23 2.31.72 5.23 1.06 6.49 3.46 2.33 4.26 1.5 9.52-.54 13.72-1.34 2-3.17 3.7-5.39 4.67-1.83-.08-3.84.17-5.46-.83-1.87-1.38-2.62-3.7-3.33-5.79zM313.52 866.24c10.86-2.35 21.65-5.02 32.52-7.34 7.31-1.6 15.11 1.52 19.83 7.21 5.95 7.16 8.49 16.68 8.26 25.89.01 9.39-2.89 18.56-7.38 26.75-1.52 1.81.64 3.49 1.51 5.02 4.44 6.09 5.94 13.81 5.87 21.23-.04 10.35.06 20.71-.04 31.06-.02 5.1-3.01 11.13-8.46 12.04-2-.21-4.29-.46-5.56-2.23-2.45-3.05-1.99-7.22-2.09-10.85.04-9.03.15-18.06.03-27.09-.01-4.09-1.37-8.6-5.04-10.84-2.72-1.78-6.07-.72-8.99-.15-8.43 2.04-16.91 3.82-25.32 5.94-.03 4.07-.03 8.14-.02 12.22-.09 11.61.1 23.22-.08 34.83-.15 5.75-4.14 10.95-9.71 12.48-1.62-1.11-3.4-2.06-4.66-3.6-1.63-2.24-1.63-5.14-1.73-7.78.02-36.41.07-72.83-.02-109.24-.16-4.42.69-9.18 3.91-12.44 1.83-2.04 4.65-2.49 7.17-3.11m29.28 14.61c-7.99 1.82-15.94 3.77-23.96 5.44-.3 4.23-.26 8.48-.17 12.73-.05 7.46-.12 14.91.04 22.37 9.92-2.26 19.96-4.15 29.73-7.05 7.75-5.34 11.17-15.77 8.97-24.79-.93-3.77-3.3-7.46-7.05-8.89-2.44-1-5.1-.32-7.56.19zM233.44 884.61c7.59-1.82 15.2-3.61 22.83-5.21 2.54-.7 5.17.68 6.41 2.92 4.08 7.13-.22 18.25-8.95 18.97-6.38 1.45-12.82 2.64-19.13 4.36-7.58 2.04-12.55 9.1-14.93 16.21-3.17 11.43-1.29 23.48-1.78 35.18.3 9.08-.56 18.22.65 27.24 1.01 4.85 3.69 9.6 8.07 12.15 2.63 1.52 5.83 1.38 8.71.76 7-1.51 13.94-3.36 20.97-4.74 2.79-.8 5.57.99 6.72 3.51 3.35 6.91-.49 17.35-8.77 18.21-6.55 1.43-13.05 3.06-19.61 4.45-5.89 1.26-12.4.75-17.49-2.72-11.8-8.04-15.75-23.32-15.16-36.9.06-14.68-.03-29.35.04-44.03.03-8.22 1.97-16.34 5.08-23.92 5.22-11.47 13.74-22.76 26.34-26.44zM120.52 910.92c10.92-2.53 21.85-4.98 32.75-7.53 2.72-.64 6.17-1.31 8.14 1.26 5.2 6.68 1.19 18.73-7.51 20.05-5.6 1.17-11.19 2.4-16.78 3.62-.19 4.25-.22 8.5-.22 12.75-.07 29.67.02 59.34-.05 89.01.2 5.99-3.74 11.53-9.52 13.18-1.83-1.05-3.64-2.12-5.44-3.2-1.63-7.59-.98-15.37-1.07-23.06.05-28.28-.11-56.55-.13-84.82-6.93 1.27-13.67 3.65-20.7 4.27-4.93-.47-6.47-6.27-6.04-10.44.37-4.69 3.36-9.75 8.19-10.89 6.1-1.52 12.27-2.76 18.38-4.2z"/><path d="M255.37 936.23c2.58-.73 5.64-.15 7.11 2.28 4.33 6.97.21 18.48-8.5 19.37-8.37 1.66-16.59 4.06-25 5.51-4.11.93-6.56-3.17-7.64-6.46-.69-6 2.15-13.5 8.62-14.9 8.47-1.95 16.93-3.92 25.41-5.8z"/></g><g fill="#b0cccc"><path d="M708.24 621.31c6.28-1.63 12.67-2.84 18.99-4.32.04 3.67-.1 7.64-2.51 10.65-1.66 2.69-4.76 3.78-7.69 4.41-8.09 1.81-16.25 3.42-24.19 5.85 2.38-7.34 7.55-14.63 15.4-16.59zM670.29 642.3c2.49-5.53 5.25-11.19 9.94-15.21-3.03 7.58-4.97 15.65-4.96 23.85-.05 14.02.03 28.03-.03 42.05-.25 9.17.53 18.69 4.93 26.93 4.12 8.18 12.12 15.48 21.81 15.11 8.58-.46 16.77-3.43 25.19-4.96.4 5.01-.77 10.96-5.63 13.5-4.53 1.98-9.53 2.48-14.28 3.71-7.22 1.58-14.87 4.27-22.19 1.68-7.58-2.77-13.11-9.55-16.21-16.81-3.09-7.29-3.84-15.31-3.73-23.15.05-13.34.04-26.67.01-40-.06-9.12 1.42-18.34 5.15-26.7z"/><path d="M691.01 671c.16-9.09-.51-18.23.57-27.29.3 9.88-.33 19.79.36 29.66 2.86-.73 2.28-4.17 2.9-6.42-.31 3.85-.4 8.6 3.02 11.19 2.19 1.85 5.21.91 7.74.48 7.15-1.67 14.29-3.37 21.46-4.9.2 3.52.09 7.32-2.08 10.29-1.66 2.99-5.09 4.07-8.21 4.77-8.22 1.8-16.4 3.74-24.63 5.49-.21 1.32-.41 2.64-.6 3.98-.95-9.05-.23-18.17-.53-27.25zM543.61 656.6c1.05-3.72 3.55-7.09 7.58-7.74-12.3 38.09-24.78 76.13-37.21 114.18-1.25 3.9-1.85 8.69.94 12.09 1.35 1.8 3.75 1.98 5.81 2.23-1.97 4.37-2.77 9.55-6.36 12.99-2.83 2.87-8.41 2.35-10.32-1.33-2.19-4.18-.7-9.04.64-13.24 13.08-39.69 25.95-79.45 38.92-119.18zM553.27 692.7c2.56-7.55 4.75-15.24 7.72-22.65 2.96 6.24 5.13 12.82 7.68 19.24 8.21 21.46 16.47 42.9 24.66 64.36.8 2.78 3.14 4.53 5.55 5.89.09 3.7-.36 7.62-2.71 10.64-1.9 2.75-5.48 4.66-8.81 3.55-2.53-1.28-3.56-4.12-4.61-6.55-5.1-13.44-10.24-26.86-15.47-40.25 1.75-4.14 2.52-9.24.08-13.27-1.27-2.19-3.99-2.54-6.15-3.3-2.99-5.74-3.96-12.44-7.94-17.66zM411.15 689.12c6.24-1.6 12.58-2.81 18.86-4.27.09 3.91-.33 8.09-2.96 11.2-2.24 3.02-6.24 3.52-9.63 4.38-7.35 1.48-14.61 3.32-21.86 5.19 2.55-7.28 7.7-14.58 15.59-16.5zM375 706.01c2.2-4.3 4.39-8.9 8.44-11.77-3.23 7.83-5.61 16.17-5.48 24.71-.01 15.68.02 31.36-.01 47.05-.02 7.4 1.07 14.97 4.38 21.67 3.21 6.56 9.4 11.24 16.09 13.89 4.59 1.81 9.67 1.34 14.38.25 6.84-1.61 14.22-2.57 19.86-7.14-3.22 9.14-10.24 17.69-20.08 19.86-7.64 1.5-15.6 4.93-23.38 2.3-6.99-2.55-13.63-7.28-16.87-14.15-3.61-7.32-4.57-15.61-4.39-23.68.07-15.34 0-30.68.03-46.02-.05-9.43 3.11-18.51 7.03-26.97zM246.08 729.95c-.14-5.84 3.23-13.37 9.98-13.22.03 28.09.01 56.19 0 84.29-.06 7.41 1.29 15.13 5.6 21.33 4.07 6.17 11.53 10.41 19.05 9.14 7.18-1.23 14.19-3.26 21.34-4.68.18 4.77-.78 10.32-5.05 13.16-4.66 2.37-10 2.73-14.99 4.07-6.41 1.34-13.15 4.07-19.66 1.68-7.23-2.21-12.06-8.86-14.3-15.79-2.22-6.4-2.05-13.26-1.99-19.93.05-26.68-.01-53.37.02-80.05zM544.1 732.1c1.56-4.61 7.85-5.22 8.85-10.11-.04 2.99-.02 6.46 2.33 8.69 1.35 1.53 3.55 1.4 5.42 1.5-2.66 3.43-1.82 8.4-4.86 11.63-2.12 3.23-6.8 4.55-10.09 2.42-3.83-3.53-3.42-9.66-1.65-14.13z"/><path d="M393.99 739.05c2.25-1.51 4.73-2.63 7.34-3.35.99 2.75 2.47 6.13 5.73 6.66 6.06.14 11.67-3.03 17.72-3.02 4.16.37 5.67 5.03 5.57 8.62-.02 6.98.36 14.01-.27 20.98-.52 5.22-4.93 9.25-10.02 9.96.08-6.57.78-13.21-.28-19.72-.43-3.03-3.5-5.29-6.52-4.77-6.43.71-12.77 4.05-19.3 1.89.04-5.76.04-11.51.03-17.25zM965.89 761.84c4.75-11.02 14.07-21.12 26.3-23.35 8.31-1.68 17.39 2.27 21.86 9.44.18 16.8.03 33.6.06 50.4-.73 3.59-3.39 6.44-5.94 8.93 2.04-9.96 4.19-20.25 1.94-30.37-1.94-9.8-7.99-19.94-18.05-22.95-9.43-2.76-19.12 1.83-26.17 7.9zM125.27 750.28c1.19-3.1 4.19-4.8 6.92-6.35-4.17 13.14-8.35 26.29-12.88 39.31.06-4.48-.07-8.96-.15-13.43-.04-1.13-.01-2.25.11-3.36 2.5-5.2 3.82-10.85 6-16.17zM939.47 775.43c2.95-8.09 6.79-16.02 12.74-22.35-7.29 17.04-10.07 36.31-5.72 54.48 3 11.8 9.62 23.38 20.44 29.56 7.73 4.53 17.29 5.07 25.79 2.61 8.17-2.17 15.34-7.04 21.37-12.85.02.72.04 2.14.06 2.86-4.4 5.68-8.9 11.36-14.47 15.96-8.19 6.9-18.92 11.14-29.71 10.37-7.96-.48-15.45-4.42-20.88-10.16-7.52-7.59-11.89-17.84-13.61-28.28-2.17-14.11-.85-28.76 3.99-42.2zM880.07 758.97c5.35-1.45 10.78-2.56 16.18-3.8-.31 4.03-.68 8.42-3.5 11.6-3.16 3.7-8.44 3.81-12.89 4.5-.37-4.1-.36-8.23.21-12.3zM826.21 773.9c-.55-6.34 3.72-12.53 9.98-13.95.88 3.19 2.89 7.4 6.85 7.03 6.82-.73 13.36-3.05 20.14-4.15.18 33.4.04 66.81.06 100.22-.4 4.59 1.9 10.38 7.34 10.1-2.03 3.98-1.66 9.1-5.15 12.29-2.26 2.87-7.25 3.89-9.77.86-2.34-2.46-2.45-6.06-2.53-9.25.07-28.02.01-56.03.03-84.05.05-5.02.06-10.05-.2-15.06-6.75.87-13.18 3.44-19.95 4.04-4.32.38-6.68-4.39-6.8-8.08zM141.69 765c10.02 25.23 19.51 50.68 29.3 76 2.21 5.27 3.12 12.09 9.13 14.49-.54 5.37-2.2 11.72-7.79 13.89-3.59 1.58-6.89-1.56-7.98-4.77-5.53-13.89-10.58-27.96-16.19-41.81 1.59-4.16 2.49-9.13.2-13.2-1.23-2.35-4.03-2.84-6.29-3.68-2.84-5.93-4.57-12.33-7.79-18.08 2.47-7.62 5.03-15.2 7.41-22.84zM732.5 788.55c1.08-3.66 4.34-5.85 7.51-7.59-12.06 36.97-24.08 73.94-36.19 110.89-1.58 4.88-4.1 10.57-1.18 15.46 1.29 2.61 4.29 3.3 6.97 3.01-2.26 3.49-3.04 7.67-5.03 11.29-2.13 3.65-8.03 5.34-11.01 1.78-2.85-3-2.65-7.52-1.45-11.19 13.46-41.21 26.82-82.47 40.38-123.65zM749.36 802.83c11.27 28.21 21.77 56.73 32.83 85.01.86 2.87 3.51 4.4 6.42 4.34-2.21 4.15-1.7 9.64-5.61 12.85-2.68 2.87-8.35 3.08-10.13-.88-3.36-6.95-5.48-14.44-8.47-21.55-3.05-7.28-5.11-15-9.04-21.88 2.04-4.2 2.87-9.46.54-13.72-1.26-2.4-4.18-2.74-6.49-3.46-2.52-6.24-4.68-12.61-7.38-18.77 2.42-7.32 4.67-14.7 7.33-21.94zM636.19 815.97c.08-5.67 3.8-11.83 9.95-12.17-.02 24.16.3 48.33-.16 72.48-3.92-6.44-7.25-13.21-10.85-19.82 1.75-5.67.82-11.64.99-17.46.11-7.68-.18-15.36.07-23.03zM132.74 820.5c.38-1.54.75-3.07 1.15-4.59-.1 2.81-.34 5.79.8 8.46 1.02 2.19 3.47 3.06 5.41 4.25-.61 4.45-1.17 9.52-4.88 12.58-2.87 2.63-8.25 2.46-10.23-1.16-1.84-3.75-1.54-8.32-.09-12.15 1.38-3.52 4.88-5.38 7.84-7.39zM582.39 829.09c-.22-6.1 3.77-12.17 9.99-13.27.1 36.41.03 72.82.03 109.23.09 2.36.2 4.92 1.59 6.95 1.23 1.59 3.13 2.43 4.81 3.48-.4 4.26-1.01 8.95-4.28 12.06-2.25 2.53-6.43 3.32-9.17 1.11-2.72-2.36-2.98-6.26-3.05-9.6.12-36.66-.04-73.31.08-109.96zM531.22 832.22c1.55-2.22 4.25-2.86 6.74-3.4.12 36.42-.03 72.85.07 109.27-.36 4.17 2.38 7.52 5.9 9.36.09 3.25.02 6.74-1.92 9.53-1.85 3.26-5.72 5.84-9.55 4.58-3.59-1.65-4.6-5.89-4.48-9.5.02-34.69.05-69.38-.01-104.06.03-5.35-.67-11.5 3.25-15.78zM608.86 848.31c1.63 2.36 3.09 4.83 4.44 7.37 10.99 20.68 22.14 41.28 33.13 61.97 1.19 2.47 3.31 4.24 5.55 5.75.55 5.8-2.2 12.74-8.35 14.23-3.1.82-5.64-1.77-6.89-4.3-6.43-12.53-13.33-24.82-19.84-37.31-2.71-4.81-4.99-9.88-8.37-14.27.16-11.15-.42-22.31.33-33.44zM402.69 868.99c-.31-5.85 4.03-11.12 9.75-12.15.15 37.01-.08 74.04.11 111.05-.22 4.09 2.62 7.29 6.27 8.69-.4 4.03-.92 8.39-3.67 11.59-2.04 2.5-5.69 3.53-8.73 2.41-3.39-1.85-3.81-6.13-3.82-9.58.12-37.34-.05-74.68.09-112.01zM731.92 876.06c-2.46-6.83 1.22-16.64 9.26-17.29.71 2.09 1.46 4.41 3.33 5.79 1.62 1 3.63.75 5.46.83-.82.3-1.64.62-2.44.95-.45 4.87-1.39 10.57-6.01 13.27-3.43 2.28-8.37.28-9.6-3.55zM472.35 877.58c3.63-5.29 7.42-10.46 11.27-15.59-.06 29.69-.09 59.38 0 89.06-.4 4.33 2.61 7.65 6.3 9.38-.22 5.39-1.89 11.97-7.56 14-3.47 1.54-7.2-1.36-8.17-4.62-.81-3.89-.53-7.88-.56-11.81.06-23-.02-46 .04-69-.13-3.82.81-7.99-1.32-11.42zM428.8 875.1c7.88 6.07 14.63 13.45 22.27 19.81 2.47 2.46 6.02 1.2 8.72-.1-2.36 5-5.73 9.45-9.24 13.7-2.17 2.89-6.66 3.69-9.55 1.41-4.43-3.36-7.93-7.78-12.41-11.08.05-7.92-.24-15.84.21-23.74zM342.8 880.85c2.46-.51 5.12-1.19 7.56-.19 3.75 1.43 6.12 5.12 7.05 8.89 2.2 9.02-1.22 19.45-8.97 24.79-.47-4.47-.26-9.24-2.41-13.33-1.78-3.22-5.08-6.18-8.99-5.79-6.25.57-12.22 2.71-18.37 3.8-.09-4.25-.13-8.5.17-12.73 8.02-1.67 15.97-3.62 23.96-5.44zM296.3 884.29c1.51-1.81 4.01-1.96 6.14-2.5.09 36.41.04 72.83.02 109.24.1 2.64.1 5.54 1.73 7.78 1.26 1.54 3.04 2.49 4.66 3.6-.12 5.46-2.1 11.64-7.53 13.95-3.79 1.8-7.57-1.82-8.37-5.35-1.03-4.6-.54-9.35-.6-14.01.02-33 .01-66 0-98.99.09-4.77.48-10.08 3.95-13.72zM234.6 905.65c6.31-1.72 12.75-2.91 19.13-4.36.59 3.82.11 7.91-2.5 10.92-2.15 3.17-6.17 3.71-9.61 4.52-7.36 1.52-14.65 3.36-21.95 5.13 2.38-7.11 7.35-14.17 14.93-16.21zM192.18 945.98c1.24-12.72 5.71-25.76 14.92-34.93-3.11 7.58-5.05 15.7-5.08 23.92-.07 14.68.02 29.35-.04 44.03-.59 13.58 3.36 28.86 15.16 36.9 5.09 3.47 11.6 3.98 17.49 2.72 6.56-1.39 13.06-3.02 19.61-4.45.08 4.97-1.09 10.62-5.61 13.46-3.93 1.96-8.41 2.3-12.61 3.4-7.89 1.71-16.17 4.74-24.21 2.15-8.72-3.05-14.4-11.34-17.28-19.76-3.54-9.76-2.34-20.27-2.53-30.42.12-12.34-.26-24.69.18-37.02zM137.12 928.32c5.59-1.22 11.18-2.45 16.78-3.62-.53 4.62-1.15 10-5.2 12.98-3.54 2.18-7.82 2.53-11.8 3.39 0-4.25.03-8.5.22-12.75zM343.98 936.94c2.92-.57 6.27-1.63 8.99.15 3.67 2.24 5.03 6.75 5.04 10.84.12 9.03.01 18.06-.03 27.09.1 3.63-.36 7.8 2.09 10.85 1.27 1.77 3.56 2.02 5.56 2.23-2.36 3.86-1.65 9.1-5.23 12.29-1.89 2.35-5.15 3.41-8.01 2.3-2.74-1.49-4.31-4.58-4.29-7.64-.34-11.34.32-22.7-.23-34.02-.2-4.72-3.59-10.17-8.83-9.9-6.91.7-13.46 3.36-20.4 3.97-.01-4.08-.01-8.15.02-12.22 8.41-2.12 16.89-3.9 25.32-5.94z"/><path d="M217.89 957.04c.86-.02 2.59-.08 3.45-.11 1.08 3.29 3.53 7.39 7.64 6.46 8.41-1.45 16.63-3.85 25-5.51.51 5.42-1.37 12.16-7.06 14.07-8.77 2.66-17.9 3.95-26.74 6.32-2.55.71-1.2 4.08-1.64 6.01-1.21-9.02-.35-18.16-.65-27.24zM121.89 1040.06c1.8 1.08 3.61 2.15 5.44 3.2-.4 5.24-3.35 9.7-4.58 14.7-.92 8.09 1.13 16.13 1.27 24.23-1.78-8.26-1.79-16.74-1.78-25.14-.08-5.66.32-11.35-.35-16.99z"/></g><g fill="#030303"><path opacity=".16" d="M1091.66 709.98c8.83-2.05 17.66-4.13 26.53-6.03 4.86-1.28 9.6 2.24 11.31 6.66 3.82 9.57.25 21.6-8.26 27.46-.25-5.77-.27-12.32-4.55-16.76-2.4-2.63-6.28-2.76-9.54-2.16-5.2.95-10.29 2.41-15.53 3.12-.1-4.1-.09-8.2.04-12.29zM1065.34 716.99c-.04-5.85 4.5-10.8 10.05-12.13.09 36.73.03 73.46.03 110.19.03 3.06.42 6.48 2.8 8.69 1.36 1.5 3.56 1.34 5.43 1.42-2.76 3.04-2.7 7.4-4.64 10.85-1.83 3.2-6.08 5.17-9.58 3.62-2.86-1.83-4.3-5.25-4.15-8.57.08-38.02-.02-76.05.06-114.07zM1014.05 747.93c6.97 9.16 7.86 21.45 6.39 32.5-1.11 6.21-2.5 12.72-6.33 17.9-.03-16.8.12-33.6-.06-50.4zM1117.39 760.43c2.63-.5 5.58-1.4 8.1.01 3.76 2.01 5.34 6.46 5.46 10.52.33 11.33-.32 22.69.24 34.01.1 3.52 3.15 5.64 5.8 7.4.01 3.76-.41 7.75-2.81 10.82-2.09 2.96-6.63 4.76-9.83 2.48-2.52-1.65-3.13-4.85-3.27-7.63-.36-11 .35-22.03-.23-33.02-.24-4.81-3.44-10.41-8.85-10.22-6.96.56-13.56 3.13-20.44 4.19-.03-4.25-.02-8.49.19-12.72 8.56-1.88 17.11-3.84 25.64-5.84zM103.58 816.63c5.1-15.64 9.78-31.43 15.58-46.82.08 4.47.21 8.95.15 13.43-7.31 23.54-15.24 46.88-22.8 70.34-1.46 4.79-4.02 9.96-2.05 14.99.87 2.88 3.92 3.88 6.4 4.96-1.6 5.11-2.61 11.98-8.47 13.9-4.65 2.17-8.58-3.25-8.56-7.45.19-6.07 3.1-11.6 4.76-17.35 4.82-15.39 9.91-30.7 14.99-46zM85.58 935.6c1.93-4 7.46-4.91 8.37-9.59-.43 4.17 1.11 9.97 6.04 10.44 7.03-.62 13.77-3 20.7-4.27.02 28.27.18 56.54.13 84.82.09 7.69-.56 15.47 1.07 23.06.67 5.64.27 11.33.35 16.99-2.77.17-6 1.09-8.41-.82-2.57-1.88-2.84-5.31-2.95-8.21-.06-33.39.12-66.79-.08-100.18-7.96-.32-15.52 4.72-23.41 2.83-4.1-3.76-4.48-10.38-1.81-15.07zM960.74 1017.51c1.27-1.21 2.57-2.37 3.91-3.51 1.25 1.94-2.11 5-3.91 3.51zM764.13 1072.96c.78-.68 1.7-.94 2.73-.79-.48 1.7-1.39 1.96-2.73.79z"/></g><g fill="#090a0a"><path d="M1029.42 888.37c3.27-2.95 9.12-3.62 12.07.14 3.72 3.89 2.95 9.56 3.47 14.46.31 2.71 3.33 3.62 4.99 5.38 1.01 1.55.07 3.48-.75 4.9-2.47 1.89-5.05-.74-7.12-1.97-2.43 2.87-5.16 6.13-9.18 6.49-4.55.79-8.17-3.32-9.22-7.35-1.8-7.62-.47-16.73 5.74-22.05m3.92 4.93c-4.82 1.94-5.5 7.98-4.88 12.5.16 2.85 2.98 5.92 6 4.64 4.97-2.27 5.52-8.67 4.67-13.4-.4-2.6-3.17-4.94-5.79-3.74zM939.11 896.96c.08-2.51-.49-5.67 1.93-7.31.76 0 2.27-.01 3.03-.01.52 6.12.24 12.26.23 18.4 2.59-1.62 5.37-3.69 8.63-3.03 5.06.81 7.64 6.26 7.75 10.94.09 5.28.31 10.58-.11 15.85-.17 2.25-2.33 3.24-4.34 3.16-1.79-6.15-.1-12.65-1.03-18.91-.39-2.32-2.57-4.62-5.08-4.01-3.28.67-5.18 4.08-5.61 7.17-.51 5.54.2 11.14-.33 16.68-.11 2.61-4.49 4.07-4.89.89-.39-13.26-.02-26.55-.18-39.82zM973.29 897.01c-.17-2.41-.16-5.65 2.69-6.48 5 .57 1.68 9.73-2.69 6.48zM1000.44 893.49c5.23-1.59 9.83 3.56 10.02 8.5.31 5.98.13 12 .13 18 .57 2.93-4.57 5.31-5.11 1.62-.5-5.84.19-11.73-.3-17.57-.14-2.03-1.87-4.11-4.04-3.73-2.74.48-4.42 3.3-4.77 5.87-.45 5.9.29 11.85-.34 17.75-.22 1.96-2.42 3.7-4.29 2.48-1.39-2.56-.57-5.64-.78-8.41.27-5.52-.87-11.36 1.48-16.55 1.53-3.51 4.15-6.92 8-7.96zM918.56 901.54c2.12-1.65 4.76-2.44 7.44-2.48.83 2.42 1.07 6.07-2.04 6.91-7.01 2.36-10.93 9.95-10.98 17.02-.11 4.16 1.22 8.79 4.76 11.3 2.46 1.81 5.66 1.12 8.5 1.35.29 2.12.85 4.87-1.26 6.31-3.61 1.61-8.02.54-11.02-1.87-3.92-3.12-5.76-8.18-6.16-13.04-.84-9.53 2.93-19.73 10.76-25.5zM975.33 899.36c1.74-1.03 3.25.97 3.09 2.64.21 8 .07 16.03.07 24.04.09 2-.86 5.06-3.37 4.79-1.42.12-1.92-1.75-1.9-2.85-.12-7.68.01-15.37-.05-23.05-.06-2.02.1-4.55 2.16-5.57zM889.36 925.17c1.5-.33 3.02-.71 4.58-.69 2.22 1.75 1.42 6.26-1.42 6.91-3.22.91-6.51 1.53-9.75 2.31-1.34.19-3.1.94-4.06-.43-1.25-2.18-.25-5.64 2.39-6.14 2.72-.78 5.5-1.31 8.26-1.96zM846.83 933.79c2.05-3.69 5.69-7.07 10.15-7.04 4.62.07 7.93 4.52 8.48 8.79.65 5.46.17 10.97.31 16.46-.16 6.2.84 12.86-2.27 18.55-2.15 4.2-6.35 8.3-11.46 7.61-5.15-.81-7.86-6.34-7.85-11.13-.29-2.23 1.03-5.26 3.67-5.01 2.61 2.01.92 6.42 3.81 8.35 2.21 1.81 5.42.31 6.82-1.8 2.79-3.67 1.81-8.53 1.91-12.8-2.48 1.47-5.11 3.35-8.15 2.91-4.37-.54-7.17-4.8-7.79-8.86-.73-5.41-.42-11.21 2.37-16.03m7.46.36c-5.13 2.34-5.37 8.97-4.48 13.78.5 3.02 4.25 4.89 6.8 2.91 4.12-2.78 4.26-8.37 3.64-12.8-.33-2.72-3.22-5.21-5.96-3.89zM795.46 932.39c.92-1.42 3.7-1.32 3.89.59 1.1 2.5-1.24 6.88-4.22 5.15-1.2-1.73-1.08-4.19.33-5.74zM818.67 935.67c2.56-1.88 6.32-2.28 8.95-.27 3.33 2.34 4.2 6.7 4.15 10.54-.05 4.95.16 9.92-.1 14.87 0 2.1-2.24 4.57-4.34 3.14-1.11-1.41-.86-3.26-.92-4.9-.06-4.68.22-9.37-.09-14.04-.12-2.09-1.9-4.35-4.18-3.87-2.72.62-4.39 3.43-4.69 6.05-.42 5.89.29 11.82-.31 17.69-.32 2.4-2.79 3.11-4.79 2.34-.5-5.75-.23-11.53-.28-17.29-.1-5.39 2.18-11.04 6.6-14.26zM778.29 935.95c4.4-2.16 4.66 6.05.74 6.77-3.4-.24-3.02-5.27-.74-6.77zM796.3 940.17c1-.01 2 .06 3 .21.55 7.87.11 15.77.28 23.66-.12 1.98.29 4.14-.61 6-.67 1.79-2.67 1.37-4.16 1.62-1.02-7.51-.23-15.12-.5-22.67.21-2.95-.84-6.8 1.99-8.82zM776.59 948.95c-.18-2.01.83-4.89 3.26-4.7 2.27.26 1.9 3.02 1.99 4.67-.15 10.97.19 21.95-.17 32.9-.77 5.82-5.08 13.11-11.78 12.41-.07-1.67-.55-3.42.11-5.01 1.6-1.84 4.3-2.45 5.54-4.65.99-1.66 1-3.65 1.06-5.51 0-10.04-.05-20.08-.01-30.11zM739.37 958.33c1.9-3.97 5.81-7.79 10.55-7.17 4.51.73 7.06 5.49 7.07 9.75-.02 5.97.27 11.97-.16 17.93-.41 2.22-2.66 2.69-4.57 2.38-.93-6.37-.02-12.82-.58-19.21-.12-2.19-2.13-4.42-4.45-3.77-2.82.87-4.4 3.92-4.5 6.73-.29 5.54.22 11.1-.2 16.63-.16 2.04-2.44 4-4.38 2.64-1.3-2.54-.61-5.51-.77-8.23.24-5.9-.92-12.24 1.99-17.68zM1029.98 955.01c3.4-3.24 8.63-5.05 13.13-3.11 4.95 2.24 7.37 7.88 7.63 13.06.21 6.02.02 12.05.09 18.08.21 8.18-2.66 16.51-8.21 22.58-2.75 2.84-6.34 5.45-10.43 5.52-2.47-.74-2.53-3.88-2.01-5.93.61-2.96 4-3.43 6.17-4.85 5.25-3.1 7.19-9.48 7.64-15.22-3.09 1.78-6.22 4.12-9.97 3.93-5.3.02-9.37-4.62-10.62-9.43-2.28-8.57.16-18.43 6.58-24.63m5.36 6.26c-4.4 2.33-6.45 7.94-5.51 12.69.56 3.23 3.47 6.7 7.09 5.36 5.74-2.16 8.28-9.74 5.93-15.2-1.22-2.8-4.72-4.44-7.51-2.85zM679.65 958.95c-.03-1.83.44-4.26 2.5-4.77 1.69-.49 2.91 1.28 2.73 2.83.1 12.02.06 24.04.01 36.06.14 2.19-1.18 4.88-3.68 4.8-1.99-1.86-2.88-4.55-4.23-6.86-3.21-5.8-6.06-11.81-9.58-17.43-.17 8.14.1 16.29-.11 24.43.18 2.25-2.25 4.91-4.46 3.28-.96-1.58-.64-3.51-.72-5.24.15-11.63-.18-23.27.15-34.89-.01-2.1 3.35-4.51 4.55-1.99 4.53 7.57 8.18 15.65 12.78 23.19.15-7.81-.02-15.61.06-23.41zM703.19 963.16c3.16-3.16 9.03-4.27 12.29-.65 3.9 3.75 3.45 9.47 3.67 14.41.21 3.09 3.37 4.28 5.61 5.72-.14 2.14-.29 5.04-2.83 5.7-2.24-.11-3.92-1.7-5.6-2.98-2.22 3.21-5.22 6.49-9.38 6.74-4.79.66-8.28-3.95-9.13-8.16-1.34-7.21-.21-15.56 5.37-20.78m4.37 4.47c-5.01 2.2-5.48 8.63-4.64 13.34.44 2.9 3.76 5.22 6.5 3.52 4.44-2.67 4.82-8.51 4.05-13.1-.42-2.64-3.25-5.02-5.91-3.76zM991.57 962.72c1.85-2.79 5.6-1.66 8.38-1.56 3.47 2.94 5.86 7.15 5.75 11.81.12 13.02.03 26.05.05 39.07.1 2.56-.85 5.87-3.76 6.39-2.51.42-3.45-2.44-3.23-4.42-.08-12.36.01-24.72-.01-37.08 0-2.29-.2-5.51-2.91-6.16-1.64-.39-3.3-.71-4.91-1.06-.29-2.33-.98-4.98.64-6.99zM617.19 969.1c1.83-.74 3.04 1.29 2.86 2.91.13 8.34 0 16.69.05 25.03.14 5.51-2.07 11.17-6.25 14.84-2.73 2.39-7 3.49-10.26 1.5-3.86-2.31-5.15-7.13-5.14-11.37-.04-7.69.01-15.39-.03-23.08.03-2.03-.08-4.58 1.88-5.83 1.51-1.1 3.47.37 3.37 2.1.3 8.93-.04 17.89.12 26.83-.05 2.68 2.16 5.92 5.15 5.27 3.76-.77 5.77-4.88 5.92-8.41.19-8.64-.1-17.28.1-25.91-.06-1.58.72-3.25 2.23-3.88zM949.41 979.47c2-4.69 5.6-9.18 10.69-10.58 3.31-1.01 7.09.05 9.43 2.59 2.96 3.02 4.03 7.37 4.03 11.5.06 7.17-.1 14.35.08 21.52.59 8.37-2.55 17.6-10.02 22.1-3.89 2.48-9.13 1.53-12.35-1.6-5.36-6.49-3.53-15.29-3.83-23 .31-7.51-1.1-15.42 1.97-22.53m5.18 7.5c-.12 7.34.03 14.68-.05 22.03.04 2.42-.19 5.07 1.16 7.24.96 1.65 3.56 3.25 5.04 1.27 1.8 1.49 5.16-1.57 3.91-3.51 2.13-1.66 1.75-4.62 1.86-7-.1-7.67.08-15.35-.08-23.02.1-2.93-2.15-6.2-5.31-5.95-4.06.74-6.5 5.06-6.53 8.94zM573.39 979.4c3.62-1.9 7.8-2.34 11.79-2.96.78 2.03 1.35 4.58-.43 6.31-3.7 2.33-9.3 1.01-11.97 5.06-3 4.45-1.57 10.15-1.93 15.19.24 3.87-.94 8.85 2.59 11.61 3.45 1.31 7.05-1.06 10.57-1.21 3.27.84 2.29 6.47-.79 6.97-3.6.84-7.33 2.36-11.05 1.54-4.3-1.67-6.35-6.54-6.44-10.88-.1-5.35-.03-10.7-.03-16.04.03-5.95 2.61-12.25 7.69-15.59zM903.14 988.32c3.17-5.56 9.7-10.61 16.41-8.7 6.56 2.25 8.79 10.05 8.35 16.34-.46 11.93-9.02 21.07-14.04 31.32 4.95-.74 9.72-2.6 14.73-2.92 3.81 2.43 2.01 9.55-2.54 9.89-6.8 1.52-13.57 3.18-20.38 4.59-3.33.82-4.38-4.04-3.1-6.34 5.35-10.13 11.71-19.72 17-29.88 1.81-4.33 2.47-11.43-2.77-13.56-4.53-1.15-7.23 3.29-10.05 5.91-3.79 1.12-5.26-4.01-3.61-6.65zM634.6 983.52c4.37-1.33 8.87-2.37 13.39-3.01 2.97 1.36 1.69 6.74-1.5 7.06-4.41 1-8.81 2.54-13.39 2.34-.47-2.16-.91-5.23 1.5-6.39zM544.35 986.35c2.09-1.47 4.68-1.27 7.05-.77.25 1.99.75 4.36-.93 5.93-2.09.85-4.82.62-6.28 2.63-1.77 2.43-2.31 6.41-.02 8.69 2.58 1.27 5.97 1.68 7.34 4.6 3.27 6.47 1.54 15.35-4.21 19.9-1.96 1.61-4.62 2.14-7.09 1.69-2.06-1.35-1.54-4.34-.24-6.02 1.62-1 3.66-.86 5.37-1.66 2.63-2.2 3.52-6.42 1.64-9.36-2.35-1.73-5.88-1.72-7.48-4.44-4.12-6.8-1.9-16.9 4.85-21.19z"/><path d="M573.61 997.53c3.57-1.28 7.36-2.16 11.15-2.5 2.29 1.94 1.33 6.41-1.66 7.01-3.33.91-6.72 1.58-10.11 2.18-1.12-2.13-1.61-5.1.62-6.69zM824.09 1001.03c.98-1.89 3.86-2.21 4.98-.27.95 1.9.63 4.13.73 6.21-.16 15.62.19 31.25-.17 46.87.3 3.75-5.84 6.74-6.79 2.04-.48-13.39-.03-26.81-.21-40.21-3.56 4.17-6.44 8.85-9.82 13.15-.9 1.41-3.02 2.38-4.39 1.02-3.49-2.82-6.58-6.08-10.02-8.95 0 13.05.05 26.09-.01 39.14.11 2.56-1.57 5.47-4.37 5.59-2.63-.49-2.74-3.5-2.7-5.6.03-15.69-.01-31.37.02-47.06-.13-2.5.87-5.77 3.7-6.23 1.43-.51 2.44 1.04 3.51 1.76 4.04 3.67 7.94 7.5 12.11 11.05 4.46-6.18 8.87-12.4 13.43-18.51zM758.97 1015.01c4.44-1.55 9.11-2.82 13.83-3.02 3.07 2.6 1.84 8.66-2.27 9.37-4.4 1.55-9.97 1.06-13.22 4.93-3.31 3.72-3.27 8.99-3.24 13.68.14 5.65-.24 11.33.24 16.98.21 2.93 1.83 6.12 4.85 6.96 4.36.05 8.43-1.98 12.76-2.24 2.74.43 2.97 4.02 2.22 6.15-.74 2.92-4.04 3.43-6.46 4.27l-.82.08c-1.03-.15-1.95.11-2.73.79l-1.84.4c-2.83.24-5.93.46-8.37-1.25-4.95-3.23-6.85-9.47-6.79-15.11.03-7.28-.1-14.55.06-21.81.53-7.95 4.41-16.45 11.78-20.18zM706.64 1029.64c4.49-5.26 11.93-5.82 18.29-6.98 3.73 1.02 3.09 6.9.34 8.75-4.13 1.89-8.97 1.65-12.98 3.85-3.71 2.58-5.27 7.28-5.13 11.66.07 7-.24 14.03.17 21.03.14 3.77 3.64 7.72 7.66 6.48 2.93-.6 7.26-.93 7.91-4.58.64-4.5.43-9.13-.49-13.57-3.47-.08-6.89 1.51-10.31 1.01-3.11-2.39-1.67-8.3 2.16-9.12 3.92-1.03 8.83-2.84 12.27.34 4.88 4.41 3.65 11.62 3.78 17.51.15 5.14-1.93 10.07-5.26 13.92-4.67 3.53-11.5 5.16-17.15 3.33-4.06-2.24-6.97-6.27-7.43-10.93-.76-7.43-.13-14.93-.36-22.39-.41-7.27 1.96-14.65 6.53-20.31z"/><path d="M769.37 1037.22c1.12-.28 2.26-.37 3.42-.28 3.29 2.56 1.64 8.92-2.55 9.45-3.99.91-7.95 2.05-12.01 2.58-4-1.22-3.11-7.91.49-9.2 3.48-1.1 7.09-1.73 10.65-2.55zM678.43 1038.3c1.02-.7 2.13-.84 3.33-.39 2.95 2.65 1.42 8.99-2.76 9.3-4.04-.84-3.42-6.96-.57-8.91zM676.17 1055.92c-.14-2.67.81-6.33 3.91-6.72 2.56-.4 3.25 2.8 3.17 4.75-.03 11.23.13 22.46-.1 33.68.16 3.9-6.24 6.41-6.9 1.53-.17-11.08-.02-22.16-.08-33.24z"/></g></svg>