<svg width="566" height="566" viewBox="0 0 566 566" xmlns="http://www.w3.org/2000/svg"><text x="30" y="299.4" fill="#9cbaa0" font-size="60">cyanobacteria</text><text x="302" y="312.85" fill="#8dc9a4" font-size="15">over</text><text x="232" y="248.79" fill="#c98d94" font-size="21">development</text><text x="242" y="320.85" fill="#9cbaa0" font-size="15">issue</text><text x="302" y="328.85" fill="#ba9c98" font-size="15">globe</text><text x="288" y="344.85" fill="#9cbaa0" font-size="15">deal</text><text x="232" y="228.79" fill="#9cbaa0" font-size="21">control</text><text x="276" y="360.85" fill="#c98d94" font-size="15">learn</text><text x="196" y="206.85" fill="#ba9c98" font-size="15">introducing</text><text x="222" y="338.85" fill="#abab9c" font-size="15">toxins</text><text x="286" y="372.85" fill="#abab9c" font-size="15">promising</text><text x="216" y="368.85" fill="#9cbaa0" font-size="15">bodies</text><text x="186" y="258.85" fill="#abab9c" font-size="15">loop</text><text x="206" y="190.85" fill="#ba9c98" font-size="15">Making</text><text x="332" y="344.85" fill="#9cbaa0" font-size="15">means</text><text x="296" y="194.85" fill="#c98d94" font-size="15">stimulate</text><text x="200" y="392.85" fill="#c98d94" font-size="15">increasingly</text><text x="156" y="316.85" fill="#abab9c" font-size="15">addition</text><text x="180" y="168.85" fill="#ba9c98" font-size="15">application</text><text x="280" y="170.79" fill="#9cbaa0" font-size="21">remote</text><text x="130" y="345.72" fill="#abab9c" font-size="28">algae</text><text x="326" y="214.85" fill="#ba9c98" font-size="15">topic</text><text x="144" y="240.85" fill="#9cbaa0" font-size="15">proteins</text><text x="320" y="264.85" fill="#8dc9a4" font-size="15">feed</text><text x="124" y="364.85" fill="#ba9c98" font-size="15">economy</text><text x="128" y="415.72" fill="#c98d94" font-size="28">research</text><text x="358" y="318.85" fill="#abab9c" font-size="15">foundation</text><text x="158" y="224.85" fill="#9cbaa0" font-size="15">utilize</text><text x="164" y="147.72" fill="#abab9c" font-size="28">resources</text><text x="358" y="360.85" fill="#9cbaa0" font-size="15">transfusion</text><text x="340" y="396.85" fill="#ba9c98" font-size="15">biotechnology</text><text x="312" y="418.79" fill="#8dc9a4" font-size="21">cyanobacterial</text><text x="130" y="258.85" fill="#abab9c" font-size="15">social</text><text x="372" y="224.85" fill="#ba9c98" font-size="15">full</text><text x="390" y="238.85" fill="#9cbaa0" font-size="15">most</text><text x="258" y="438.85" fill="#ba9c98" font-size="15">scientific</text><text x="236" y="456.85" fill="#abab9c" font-size="15">Terminator</text><text x="150" y="434.85" fill="#9cbaa0" font-size="15">preliminary</text><text x="180" y="126.85" fill="#8dc9a4" font-size="15">creatures</text><text x="380" y="380.85" fill="#8dc9a4" font-size="15">worldwide</text><text x="258" y="110.85" fill="#ba9c98" font-size="15">sustainable</text><text x="300" y="126.85" fill="#abab9c" font-size="15">exotic</text><text x="380" y="186.85" fill="#ba9c98" font-size="15">problem</text><text x="126" y="204.85" fill="#9cbaa0" font-size="15">grain</text><text x="396" y="262.85" fill="#abab9c" font-size="15">One</text><text x="390" y="208.85" fill="#9cbaa0" font-size="15">innovation</text><text x="78" y="184.85" fill="#c98d94" font-size="15">commendable</text><text x="420" y="334.85" fill="#abab9c" font-size="15">reverse</text><text x="214" y="478.79" fill="#9cbaa0" font-size="21">SEU-Nanjing-China</text><text x="96" y="386.85" fill="#8dc9a4" font-size="15">dynamically</text><text x="120" y="96.79" fill="#ba9c98" font-size="21">technology</text><text x="374" y="168.85" fill="#ba9c98" font-size="15">conduct</text><text x="342" y="442.85" fill="#c98d94" font-size="15">develop</text><text x="66" y="326.85" fill="#c98d94" font-size="15">business</text><text x="382" y="148.85" fill="#9cbaa0" font-size="15">Instead</text><text x="84" y="164.85" fill="#9cbaa0" font-size="15">through</text><text x="436" y="230.85" fill="#9cbaa0" font-size="15">interesting</text><text x="106" y="228.85" fill="#abab9c" font-size="15">cells</text><text x="364" y="128.85" fill="#9cbaa0" font-size="15">blood</text><text x="258" y="496.85" fill="#ba9c98" font-size="15">Controlling</text><text x="284" y="94.85" fill="#ba9c98" font-size="15">issues</text><text x="54" y="256.85" fill="#abab9c" font-size="15">fishing</text><text x="42" y="344.85" fill="#ba9c98" font-size="15">enzymes</text><text x="164" y="452.85" fill="#abab9c" font-size="15">good</text><text x="228" y="78.85" fill="#ba9c98" font-size="15">impressive</text><text x="248" y="60.85" fill="#c98d94" font-size="15">source</text><text x="234" y="529.66" fill="#abab9c" font-size="34">bloom</text><text x="432" y="254.85" fill="#9cbaa0" font-size="15">take</text><text x="460" y="196.85" fill="#abab9c" font-size="15">blue</text><text x="130" y="45.66" fill="#9cbaa0" font-size="34">project</text><text x="350" y="458.85" fill="#abab9c" font-size="15">solve</text><text x="54" y="212.85" fill="#abab9c" font-size="15">trying</text><text x="378" y="108.85" fill="#abab9c" font-size="15">large-scale</text><text x="318" y="60.79" fill="#ba9c98" font-size="21">environment</text><text x="124" y="140.85" fill="#c98d94" font-size="15">plan</text><text x="60" y="478.79" fill="#9cbaa0" font-size="21">wastewater</text><text x="110" y="502.79" fill="#ba9c98" font-size="21">sensing</text><text x="214" y="496.85" fill="#ba9c98" font-size="15">all</text><text x="468" y="364.85" fill="#9cbaa0" font-size="15">hotspot</text><text x="354" y="502.79" fill="#ba9c98" font-size="21">field</text><text x="416" y="434.85" fill="#9cbaa0" font-size="15">major</text><text x="28" y="410.85" fill="#abab9c" font-size="15">interaction</text><text x="46" y="362.85" fill="#abab9c" font-size="15">China's</text><text x="304" y="548.79" fill="#ba9c98" font-size="21">continuous</text><text x="90" y="122.85" fill="#9cbaa0" font-size="15">national</text><text x="346" y="84.85" fill="#9cbaa0" font-size="15">maintain</text><text x="42" y="529.66" fill="#c98d94" font-size="34">water</text><text x="300" y="40.85" fill="#abab9c" font-size="15">mechanism</text><text x="492" y="316.85" fill="#c98d94" font-size="15">clear</text><text x="452" y="166.85" fill="#abab9c" font-size="15">exploited</text><text x="486" y="214.85" fill="#abab9c" font-size="15">play</text><text x="62" y="428.85" fill="#8dc9a4" font-size="15">combined</text><text x="464" y="450.79" fill="#abab9c" font-size="21">algal</text><text x="40" y="452.79" fill="#9cbaa0" font-size="21">market</text><text x="38" y="148.85" fill="#9cbaa0" font-size="15">complex</text><text x="418" y="502.79" fill="#9cbaa0" font-size="21">treatment</text><text x="416" y="460.85" fill="#abab9c" font-size="15">UAV</text></svg>